<mxfile host="app.diagrams.net" modified="2021-12-05T13:39:27.845Z" agent="5.0 (Macintosh; Intel Mac OS X 10_15_7) AppleWebKit/537.36 (KHTML, like Gecko) Chrome/96.0.4664.55 Safari/537.36" etag="nMhOe183s3Agmgg53QC5" version="15.9.1" type="github">
  <diagram id="vEmIBDDotwk9tMhAF2Ns" name="Page-1">
    <mxGraphModel dx="851" dy="838" grid="1" gridSize="10" guides="1" tooltips="1" connect="1" arrows="1" fold="1" page="1" pageScale="1" pageWidth="827" pageHeight="1169" math="0" shadow="0">
      <root>
        <mxCell id="0" />
        <mxCell id="1" parent="0" />
        <mxCell id="MMp3bKSsHC83LUOIyMqO-3" value="" style="rounded=0;whiteSpace=wrap;html=1;strokeWidth=5;" vertex="1" parent="1">
          <mxGeometry x="80" y="120" width="680" height="520" as="geometry" />
        </mxCell>
        <mxCell id="MMp3bKSsHC83LUOIyMqO-6" value="" style="shape=image;verticalLabelPosition=bottom;labelBackgroundColor=#ffffff;verticalAlign=top;aspect=fixed;imageAspect=0;image=data:image/jpeg,/9j/4AAQSkZJRgABAQAAAQABAAD/2wCEAAkGBxIREBIPEBAVEBAWGBUQEBUPFhAVFRIXFREWFxUWFRUYHC0gGBolGxMVITEhJikrLi4uFx8zODMtNygtLisBCgoKDg0OGxAQGzcgHyU0LSwrMzctNS0tNzUtMzEvOC0vKzUxNysuKy0tLS4tNS0rLSsvLS0tNS0tNTUtLS0tLf/AABEIAIIBgwMBIgACEQEDEQH/xAAcAAEAAgMBAQEAAAAAAAAAAAAABgcCBAUDAQj/xABFEAACAgACBgQLBQYEBwEAAAAAAQIDBBEFBgcSITFBUXGzEzM0NWFyc4GRsbIUIjKSoSNCUsHC0SRTk6JDVGJjguHwFf/EABkBAQEBAQEBAAAAAAAAAAAAAAAEBQMCBv/EACwRAQABBAECAwYHAAAAAAAAAAABAgMEERIFMRMhUTJSYXGh0RQWIiMzQYH/2gAMAwEAAhEDEQA/ALxAAAAAAAAAAAAAAAAAAAAAAAAAAAAAAAAAAAAAAAAAAAAAAAAAAAAAAAAAAAAAAAAAAAAAAAAAAAAAfMzi4/WzB0txlenJcGq05teh7vI1doGMlVgpbjcXOUa81zyfF8exZEe0DqjhrsCr5zkrJKUt6Mso17rfDd5cMuOfpO9u3Tx51z5dk9y5Xy40Q7E9oeEX7tz7IR/nIzp2gYJ83ZD1oN/TmVNmYtls4dtJGXcX3o/SVN8d+myNkeT3WuD6muaNsozVnSk8NiqrISaTlGFi6JQckmn8c16UXkiG/a8OdLbN3xIfQAcXYAAAAAAAAAAAAAACK61a6QwU/A+ClbbuqfNRgk88s3z6OoCVHM1j0t9kw08RueE3cko55ZuUklxy9Jv4ezehGT4ZpS+KzI5tH83W9tfeID7qTrDZjo3TshGChKMYqGfJxz4t82SYgOyTxOI9eP0E+AAAAAAAAAAAAAAAMZ55PLg+jPis+jgcfE4++uMpvwc92yNe7GMotr7rk0958d1vJdeQHaBzoaQcsQqYpOvclNy6d5Ot5L0btkX70dEAAAAAAAAAAAAAAGviMZXX4yyFfryjH5s4uu2nHhKE6/HWPcrz/d/ill6Pm0VFiLpTk5zk5yfFym22+1sqsY03I3M6hLeyYtzqI3K09cvB4vDqmrFYdS34z/aWwSySfSs+shkdWrlFwWOwig+MorEyUX2rdyZGmYssoszRHGJ+iOu7Fc7mPq7eO1bnVXKx4nCTUVnu1Xb036Ix3eLOE2fGYtnSNx3nbxOp7Rp7YR/tK/Xj9SP0C7Yrg2k+1H58wfja/Xh9SLrx7/aS/wDuhGJ1rLnHppqiN/00un2+e4dqM0+Tz7D6iPUYhwkmveutEghLNZkODmxk0z5amFl21NuWQBz9PY94fDXXxW84Qcknyb6M/QXuTcuvjCLlOUYRXNzaSXvZybdbMDF5PFVv1W5L4rgV7oHA26XvslicRJRrSk0v+tvJQj+GP4eomdWoGBUcnXOT/ilZZn+jS/QDuYDS1F/iboWZc1CSbXauaN0qDWvQE9G2134eySrk34OWf3oSXFxbXNZfHiWNqpppYzDQuyyms4WpdEl/Jpp+8Do4vG11R37bI1x67JKK/U9abVOMZxecZJSi10prNP4FVbV/La/YQ720srQXkuH9lV3cQN408VpbD1S3LcRVXLnu2WVxeT5PJs3Cn9p/l8vZw+UgLctvjGLnKUYwSzcpNKKXW2+GRT+0fFV241zqshZHwcFvVyjJZre4ZrpLWvwUb8N4Gee5OCjLd4PJpcmU/rpomvB4l00uThuRn99pvN72fFJdQFs6P01hnCuCxNLm1GKira3JvJLLLPPM5u0fzdb2194jX0VqJhYOm+Lt347lqzlHLeWUuW7yzNjaP5ut7a+8QHI2SeJxHrx+gmWK0rRU8rb6q31TnCL+DZU2qeGxt8LMPhJeCqlJSusT3cuGSW8uPLoRLMPs0o3f2t9s7HzlDcis+xpv9QJhhMfVas6rYWpc3XKMsu3J8DZKW03o27RWKi6rHy36prhvLPJxmunqa5PP4W1oLSSxOHqxCWW/HNrqabUl7mmBvnJxmsuEqe7Zia4yXBpPea7VHPIhmv8ArPZK14HDSaSahbKDalOb/wCHF9C6+t8Oh57+hdnVEYJ4pyssa+9GEnGEfQsuL7cwJRgNPYa97tWIrnLoipJS/K+J0it9aNQo1VyxGDck4fflXJtvJcW4S55rnkb2zzWiV+eFvlvWxW9VN87Irmpdcl19PuAnR4YrGV1LetshXHrslGK+LOBr3p6zB0RlSlvzluKUuO591vNLpfDpI1qtqwtIQ+2Yy+y3elJKObX4Xk85PkvQsgJfLW/Ap5faoe7ea+KWR08Fj6ro71NkLY9cJJ5duXIj2I1AwMouMa5Vy6JRnNte6TaZXeJhfovGNQn9+DTTWajbB8UpLqfHNdDXvAu415YOL6/xq3/yWWXu4GWEvVlcLFylGM1n1SSf8z2A0sLoyutxcE1uqajm2+E5RbXu3IpdSWRugAAAAAAAAAAAAAPgFZ7U8RniKa+iNe/+ebX9BCGyabU6csTVZ0Sr3fyzk/6yENmvj/xQyL8fuS+tmdWFsms4VzmuuEZSX6Ikmo2gYYmc7rlvUVZfd/zJvlF+jLn2r0ljK5xSjDKEVwUYJJJehIzs/q9rEqiiY3KnGwqrsct6hS70df8A5Fv+nZ/Yxejb/wDl7v8ATs/sXQ8XP+JmDxk/42Zn5lt+5KuOlz7yAao6p2u2GJxMJU01yU0rE4zslFpxiovjlmuLZOLrN6Tl1vMWWt8232ni2YPU+p1ZlUeWqYaWLiRZj1l9bJBo2edUX6MvhwI22SPRUcqYfH4s6dEmfGq+T1mR+iG2cTXXzfifZv5o7ZxNdfN+J9m/mj6dnIhsj8ZivVq+cyyitdkfjMV6tXzmWUBFtpNKlo+yT5wlXNfnUflJke2SYh7+Jq6GoWLtTkn818CSbRrlHR9q/idcV/qJ/wAiL7Jam7sRPoUIR98pN/0sDV2reXV+wh3txZWgvJcP7Kru4la7VvLoewh3txZOgX/hcP7Kru4gb5T+0/y+Xs4fJlwFP7T/AC+Xs4fJgW3hfFw9WPyRUu1Hy5+yh/WW1hfFw9WPyRUu1Hy9+yh85gWxgfFV+rH6UR/aP5ut7a+8RIMD4qv1Y/SiP7R/N1vbX3iA5GyTxOI9eP0E+IDsk8TiPXj9BPgK+2uL7mGfTvWL/bH+yOzqDPd0XVLq8NL4WzOPtc8XhvWs+mJ2NQYb2i6o9fhV8bZoCv8AUiPhtJUznxblO6Xpluyl9TTLoKW1Il4HSVMZ8GpTpln0NxlFf7skXQgDRSWCl9m0pFR4KGIda9V2uH0tl3FJYaH2jSq3eKniZTXqq1z+mIEy2teT0e0fds6OzTzfD17O8ZztrXk9HtH3bOjs083w9ezvGBKiptq3l0PYQ724tkqbav5dD2EO9uAszQnkuH9lX3aN00tCeS4f2Vfdo3QAAAAAAAAAAAAAAAAIltH0PK/DRsrW9ZU3LJcW4tZSSXwfuKjbP0Q0cjF6s4O2TnPDVuT4tqO636Xu5Zsqs5HCnjKW9j86uUIrs4f+Bu9u+6gSJs2Ho2nDVOFFari5bzUc+Lyyz4+hI02z4/rlfLKmfhDVwqONqIGzBs+xmk02s11dZ6vFQ/yV8WZdFFNUedWv8n7K9zHaNtWTMGzb+1V55eBXVzZ1/wD86r+BfqV2OnTf34dcTr5vNeRFv2oR7D1Oc1FdPP0LpZKq45JJckkl7jCjDwh+GKj2Hsb3T8H8LTO53Mo79/xZ+AcTXXzfifZv5o7ZxNdfN+J9m/mjRTq01J1ijgbLJTrlOuahGThzhk5ZcHweeb6VyLGq10wMo732mMfRJTUvhkRHZVRGyWLhZGM4ONWcZpST+9ZzTJPidQsDN5+ClD0Vzml8OSAhOu2s326cKMPGTqi848HvWzeaTUeeWT4LnxZPNSdBvB4ZRnl4ab8JblxyfRHP0LL35m1onVrC4Z71NKU+W/LOUvdKXL3HWQFfbUtDzn4PFwi5KEfBW5furecoy7M5SWfpMdTdd6oUww+Kbg4LdhZk3GUehSy4posOUc+D4rpz6SO4zUjA2ScnRuN8/BSlBflTy/QBjNd8DXHNXqx9EalKTf8AJe9lW616Y+2YiWIUPBpxUYpvN5RzybfWWthNTMDW81hoyf8A3XKz9JNor/aZFfblXBJZVVwjGKSSzlNpZL1gLawvi4erH5IrHaro+axEMRk/Bzgq8+hSi5cH1ZprLsZaMI5JLq4fAwxWGhZF12QjOD4OM0mn2pgcPVrWXD301R8NCNuUYOuclGW8lllFP8WbXDI8do/m63tr7xHtTqXgoWxuhS4zjJTjuzsyTi81wzy5nY0hgK763VdDfreTcXnxyea5AQrZJ4nEevH6CfGjovRFOGUo0VqtSe9LJyebSy6WbwFf7XPF4b1rPpidvZ35up7bO+mdbSuh6MSoq+tWKObjm5LJtZPk/Qe2j8DXRWqqoqFaz3YrPhm23z9LYFb7QdX50XvHUJ7kpKc3HnXZnnvdjeTz68yT6B13w11ad1kaLklvxs4JvrjLk0/iiUyimmms0+DzI7jNSMDY950bj6fBSlBflXD9AOdrVrxTCmVeGsVt0k4pw4xrz4b29yb6kjS2b6tSr/xt0XGTWVEZc0nzm10ZrgvQ31kk0dqhg6JKUKE5LinY3Np9a3uCZ3QIJta8no9o+7Z0dmnm+Hr2d4zuaT0TTiYxjfWrIxe9FNtZPLLPgemj9H14eCqpgoQTbSWfNvN8/SBtFTbV/Loewh3txbJy9J6vYbEzVl9KsmoqCbcl91NtLg+uT+IHvoTyXD+yr7tG6YUVKEYwisoxSjFdSSySMwAAAAAAAAAAAAAAAAAAA1NJVuUHlxa4nCbJPkamI0fCfH8L648DH6j06q/Vzonz9FNi/FHlKPyZsaOuhGec+WXB9TN2Wheqz4r/ANn2GhI/vTb7MkZlnp2VRciqKe3rMaVVX7U0621MU423xVaz5bzXbxfwJAjxw+FhBZRSXX1v3nsb+Jjza5VVe1VO512Q3bkVaiO0PuQALHIOJrr5vxPs380ds18dg4XVzqsW9Ca3ZLNrNdq5AV7sj8ZivVq+qwso4Wruq9WCstnTObjYordnk93dcuTS5fe6TugAAAMZzS4tpduSMji60avQx1ca5zde7LfTik+hprJ9oGGltbcJh4tu6Nk+iFTU5N9Ty4L3kE1fwduktIPGWR3aozVk3xyW7+CuL6X92OfvJTo/Z5hK2nPfvfVY0o/liln78yVYfDwrioVxUILhGMEkl2JAeiPoAAAAAAAAAAAAAAAAAAAAAAAAAAAAAAAAAAAAAAAPjZ9AHnKR5SsZ7uJi6wNZ3MRuZseBQ8CgPONjPSMj6qzJRA+pn0AAAAAAAAAAAAAAAAAAAAAAAAAAAAAAAAAAAAAAAAAAAAAAAAAAAAAAAAAAAAAAAAAAAAAAAAAAAAAAAAAAAAAAAAAAAAAAAAAAAAAAAAAAAAAAAAAAAAAAAAAAAAAAAAAAAAAAAAAAAAAAAAAAAAAAAAAAAAAAAAAAAAAAAAAAAAAAAAAAAAP/2Q==;" vertex="1" parent="1">
          <mxGeometry x="600" y="440" width="148.85" height="50" as="geometry" />
        </mxCell>
        <mxCell id="MMp3bKSsHC83LUOIyMqO-9" value="" style="shape=image;verticalLabelPosition=bottom;labelBackgroundColor=#ffffff;verticalAlign=top;aspect=fixed;imageAspect=0;image=data:image/png,iVBORw0KGgoAAAANSUhEUgAAANAAAADyCAMAAAALHrt7AAAAw1BMVEX////zdyZOTk6enp52dndhYmJCQkI8PDzybABFRUXyagBKSkq7u7vo6OjzdiNBQUHx8fGampqUlJTm5uY5OTm0tLTzcxvzcRTJycn39/fW1tbycA7v7+/FxcVaWlppaWr+9O+mpqb849f97eX2oXX1lmL70r/R0dF8fHz0gTr1kFj6x6/5v6T71sV5eXn4tZT0iUyIiIj3pXv839H96d/5vJ/3rIf0hEL1lF/71cMrKyv2oXb4sY7zfC/2m2vyYQAlJSWYM4IVAAAQiElEQVR4nO1dCXequhZuqWVUPFUElapYp1q1dajae271vv//q14GVIYAAQJoV7+1zlmtDSEfe8jOjuzc3f3iF78goTVp9B8eGs3nogfCBu1ar1eC6PVeO0UPJj0qK8wGo1dqFz2glGg66SBK/aKHlAplLx/A6KHoQaVAx8/npmVUIfEBjG7WjlZEPgBFDywh2mQBARHdqPeuBQmo9F700BKhFSQgIKJK0YNLgkkIoZvUuUYgn1LpJj13P4RQrejBJcHDL6Erx4+zIV+gfcFternnEEL1ogeXCIGhXCHB3GAznn/s/h29LSHeRsPdx3y8GcTpIlDneuWsRk1C62W2+1JlUTRNQwdQIeAPhmmKomy+7WYbi66r9AJqVep/ktHAGMzWU8DE0NX7QOi6KcqH4ewzuruAcLs3oWTTKHFcl+vWklmcNRvqshlGxQEVsDKOsygN7BNXrJRr8AbXfUTocqtWXDaf2z01mYusTPnw8RLa7xMhp7CiG9LKpoModWOF54PtQTZikjlJyhDV7zDl88mo9xSfD6REb0qzZVI2J07ydG4Fdj/puSjRTqll7tFNiNKRDHaimYaNzckUh8Gq1yidKPV6DVpjcMsHMqJ5Eps3WU/NBkOXl+PA+7Qbtdf311qDPttT9hF67EVeNJ6KrOhAqOL9jHrAUXj18XnkIvwCoJNe1zKjxPkJdZthF2z2zOlgSodgxYuBPyRCjeD2gy85CzqY0jJ8ZsqC0I6ZKyBSkodWakYkQkFubqwbGdKB0MXUptQjOAVyRGeNMtM2B8RlrHWGH32/234kNhwz9dTB0OV5KkIVn86RTego50IHQnyz0jCq+UREaPSi5yMeDN38Jw0jrwURooxtHtbjgCrvUhB67jplxBFc3EjMlQ6EuYy9MLug9X5m1O365WMdsnbWJOg6xUI9EM0S1wXgHgn+YJNJpBMNVU4VCj03G40Oaf6Z5Ww+DsjbNIwCsM3PW/shpnENZOzydwcuRkfGfNbF8gHO7ospn2F8PqquGyhPiiDLsv2TaRqGHjfZBWC8seRjxiFioGzv/mv9vZ2NF5uXz4GFMfh82SzGs/n3erQ35KjsaoaMKPUNUIFEhh8zqnz8YDPb/rs3ZZE2OWmMGPH5juYDs7riYThfxI/4rcUc5cIpWJlDJnzmEf4aktGP802KCAVM2vOjHk2Kifceh/KBZNaR+XY6DMZrVTZDg/mUKySIl2A+qi6KXzQ7IjEwmH2JYoig5FTLCQArMMkLNGSdtncyFmsjeE0sptSGPblnIJv1hs3widiszQBOqpqq4yFpvaCa8nHBaOTBWBxlonboaaajGcGAdHE6s1iNOhStGTFxLn4k7nHg46Ma8jBLVfPiZUjYd5ITj+Dg6Us1zQ+L4XBpYH2YXs1T9YR97QwPHTX9LJAEs3vPUllPFgNtZDcdhjs3cTE7uCklSxOrzj5MvTg6EDPVpXiiFb8Lp8IZYhaL+niYm44BJVA6R8ijyutUgScrOHdw4ieCpicJq+KSbbiWHIO3synF9nTz0xpIN4s1HjfGxklIxne8K098xJGVycgSY3jKDsqxolTbI+gik+1bpljYKyY9ThrIjnlSbs9kBXvHIE4EdNSRcyveV5MxR2qnLqkv+JSRN2CwtZ4RPlX4xEXqNcwINDf2VoYjSo03E4hoT9kYCkhkkzHKDjuZXkTAguTki6i8ABaflFYEXJx8TZNpEP6RVZnKzHdG6lxRPngR6WJUUc4+A8IGLyJNuDD7L8+kQTp8yhQRnXEb+obx8l9kk0UxeYOk+CfSfd2OvmHc2nh/8Ytf/OIXV4wfUoQIo90vaZTvOd0EOEFSpJt8GToAXY7jfgldM34JXTuulVAr6dYYA0J/6p6bP9cgLt8/b3WaAJ5vPHceIC6/t0GTDp4QK/0er2mCUmo4X4Ct9xsAvlfrK+UOALpZs1wudyAhZdXsdM4fO+7Rf+8qSrfU9303vgyBfmq+89pfz/vhFU2SJO1y6z9/q9Wq5vlGek0AjQTH7xpoA18qeH7VJIWDUHjNWS5E4yWJ/+t9yfdJ43n+LxphSQA/4iurCJrrxehOV8AdK5LgfSlQqvK8Bof+KIAmVQ/higCu4h2E0O9eQhLUjcvvfQlfU9YwGwxJuvT9hK7wflMftla66Md355XoasfzeH4UEBkFc3JzvXsEn1WBCAX0V3aEGnd9DY2Er/L26LSz+CvoT113N21H3yXJHi4aNwC/crSDf+GF3moFBAVv4Xq3tgflcvcs4KuZEGpI8PE3waAVofvUaTZW6L6A0dn44F05oe7vRsBG/FR6f39FjLqlHsLZRusaUjX8svRzDf7GO2WECcH/FV4QfDaUiBAPjRmy6trdtdB9OYU7NelUPWoEAHtRXj0f+LxcC37KX8qUtasu2QPhAioSlLbQ61R8HjYRoTKPBs9VHQ+uiRjx5+eMRMY7e5nArgXnA+VJhKB1SU6JIIl13Q24V6ClxPoXyQmBZi4BdJBSa6cn9gCvqTa9vSjOS0iE2lCR3e/N9UE74dIT0lTwj1woIQUhxfMa/EpxXorcgkvBkBK6qnCQCEHb0DzzoOTqCZuetw0DQt4u/yAK54eL3IJ2UfEJsgXXm/MEQlC/FG9NB3j/qpuQFFQkK4UN+UpJIBFpJ01oVt09wb96hEogdJriXID3E87uGcYXXgfKgpDvtpjCxWwkl8CQxlXd1xAIQbkK3gIIsOPL7RSfu2FDyP+M0LWXASK3cG6F2AruCwiEYBfVeqXuRAXNe+d2JPtlQsgfY/Mu5UZuQTrlQKDGeRXfT6iOXGVVcENy9cuFmRBbQo/QTC5TSElxXIYE5AlT/ISQ5yDi0i/n85aZEYIMHP4V29Tk8rMntiMQ6lwXoZ5bQji6xgSRxnmjbz8hPCEIBGjnB5UjIbQCdRCCPtieigSnRw8m1EAfVZ79qJwvTkDI+yhpCVU9A3zWTk8HqpIrbAgjVPW2cyMeoZbgu0kQIV8s9ezpyzYq6GHh7F71laMJsCEhPN2dgJDiqRO2UkiEfPMQHo3zY+QKNDA+zd1BICG0BqyGF3+KRwjdxBPtoi6cc3NApICjU9dHdrwKiRHGEDCx+nUzDaFHxWcf6LH5YznvZI2DU7dwoVsAQR/UWc1f0QnZnHv3AUWehKbJCSF7cT99NEE6pWY7V88Ca4VCHffcidyCcOePSxEI6o1WgcGBTQJC9tTmaNJAn/gJcZxLjhON8ysrXn/CqI5kGJz3VgBdpKVhFXRjEmrhVM7lufVxeoVASOk6GGG91LxpQfzEiS7BNjqPTNvo/kIIo5iEsOZwkl3ztd2rAi5EQgqnSOfHjlNavL+MIpYCeQRlrA1u/19DH0quaiLtlcN3hhOq+wghtUcJqtfVqwJTZApi7QjE7AUeVKRuv9lud2oSfgqEGjp9O8FFnFswIWHV7z89nqVdkuz7w67bk3K/xAuCY4RxCd01NPup4lSgAmYWwa3rdqTwiObbqlDl8aBJfLDv4xRy9fw+ZqTAdPSFccmOUCWUI+Ylz8KDgpBnLng4MUKXwgJ6yBB8hO56ztjYm7E9D08heMQTutLpcueE3HelmLF60xJqe+MviI5UtVPwEk7BoyS7n9BdQ+DPDR8DCinCNLfP+Z3xao9dcbmTeum0CYD+xmtdxwgFmNoP3DufeFIZpyGXJE3Qqr0+Nli4geFocwlOWw3UUOo9BFaxhUMKCWbaK7haUEp9t2uo9x/tZUO1u2q4Op8AeDd8PGMj3q/1HFjy1B1tt0I3vNC8poQ0CAbMLFTiljDuuzIZlAhaPpCABBRSJZE1UOwUsQDxIQahB1/+N2Og+1FWFT6DnhCKh4QcC83jbFloIVACqAmhSSHYxWUA7BfjXkVLqI7mqaC0egaooNA2vkZQEiqjCbqa2xcRKk9oLzN88UEEFaFKCa8LczoIYNLjBDsIjF+snoJQe4VDAMWbXMwKbTte46NqHZNAQcheRRHj1UyAEwCSkOhsOQpCOOsuhKc7mAJ+GaTbT/YtncZfEGT9L/xaKH0pz5NOGuVJ4pMeWig3G96mpnE5Bjw5oH6zh/BdI6yiBxATVlQDxsW7soYV/b56kvolxcGwIpvs9Og2V4MpRbXQgXywMh8IIyypaip8GfdWxgNhhL0xpWm2EXWdTY3CbGFNaQv171VVvN7iECcMVJ22eN5YTFsROgfAWtkm7UvEsAwbzVvWBQLWylYN2tZjWJbFZFmblzVQbVyTvggMqiOlq9dqSNYelh2iF9Dd3UK8v+I6OPZBGrFqXC1xdSNxaWU1quSwD9JQD3Eu+rSLsTE4koUxFqeDNOir+iD8e6oSlvpIFqZoHU+1vuKWO7XOJan1KyqJM7vUPY1XvAxde662Z95fR1WPF8cRW2b8aXJ5qR/I5giqlLCOjnMn1Pv4HbjK0OrysVhTstxHbCUqRrt1Vd7X5WFxlKxv0VVE1lgn6sZTmhpQKibf4KWTSOFQR97i+7r8lX+RlsFa9tbIpiuJRYC/XD2sTc10uFFYEE6qTFFFllA/XDXNXV7GZG3vCQW3U1UQnxJqkquGvMxDTOMR8YxXVU9TFtdnRicxycdsl7SbtRhQtD6xAWEsgk5J0E3xOM6ohPAm5FiB1LX85sHnjABOb3PW9mTNjmbIwQ9m+rM51mEn2+imfL8eW+l5YCy+p+FHcxgsTiH6Cj9aTYUHYa9T5/gH4++9LEac9KzTFgINxzLybEJ0uM3b9zgZq8FiOzJEM/rYaj3WIjUEU6rTFtFBStPhx/jFouzX+hxv10sTCIbqBCJVpe04Cq0D9fmR6HwoWZyO1h+zfzafFmEI1mCzmG13x70uxzojSqXYOqGFRc/oxEtH53fBo7v0w3S/hNhPD8De0GFeJjzGK945XqrJ0qHGZuQciRPJezEYTxB0dpQZdGb2c8ayiIMxz3ymzPnc3R2LO9vPpK8VHgffRZ0mmVmt7ILO+8wwMfhi5O8a1Jg533iwljEOYWQC45Dx+vg7X7WTsy81v8nxHO2cDtI45iWk3LanxuHnIzJCrntTw8yFpIpfVn58gCUdsnV3hp77FyXmYnbBXTGbbK2dP0vLiM7QKoAPgDXMgJIufxX4pcoBa0qATsGbhYMdMQOdCPCkyiv4ymtrqwafBxsDupj/SZVBWIzIZ6fGEs5bLo660p5MJu3ot1as+T656qmGeNjmsek0aTzZqPUnkTsNg21EYpoMmEn+yMNyWp3a08MFT7Vy9OaJNRuJlGlQTMYQxS/mGxhktJ+cdDClgLfS3XiZj3Q5MiOKMqzm2za3TeiGlw6iRPvSzGD8MVJF0UQJUjcRwATmwPXEqf1k6JP4AEZx3nJsfY7n38e3gwlzv6L93+HtuJvTp/NZIYAPQLL3Ni0MtoOMAaK+xdS6a0I7mA9gROUZrgthfACjqzg9Nw46EYTyfN2RCcL5AEZFDzAmQi0IEbqxdx4bEXweHm7M0UUJ6NZ07pmCUOLXkotAnYJQfmUrGCDSJ9yaV5j8NEI/TkI/zoZ+nJf7cfPQz4sUflwsd1f7WRoXvR6KWw6seEQQKnp48RGeU7g1C4L4aVmfkLxcrEzjNYFF5vS6kC63fY2Y1Hy7DzfpDy5old37Q0+dm8swetGa9E87eE8UO3i3gUp70qTZY/1FZvg/XddyAWqutWgAAAAASUVORK5CYII=;" vertex="1" parent="1">
          <mxGeometry x="105.83" y="506" width="60.17" height="70" as="geometry" />
        </mxCell>
        <mxCell id="MMp3bKSsHC83LUOIyMqO-10" value="" style="shape=image;verticalLabelPosition=bottom;labelBackgroundColor=#ffffff;verticalAlign=top;aspect=fixed;imageAspect=0;image=data:image/png,iVBORw0KGgoAAAANSUhEUgAAAOEAAADhCAMAAAAJbSJIAAAAyVBMVEX///8fnPAAeswAZakAlu/X6fsgnvINdLwNg9UAZKkAeMsAcckAe80Ac8oAWqQAdssAWaQAX6b3+/0AbsgAfc3k8PkAY6bw9voAmPC3zuLC1uehv9nc6/fC2/AAc8AAlPB7psxNqO3S4e5Agrje6vMsofAQbK0yi9KtzuuWuNZ8suFVnNifxegchNCzzOIye7Q/ktRjl8Nvqd2EwfO31/GTx/IAa7YakeJstO5Epe2hzPGOs9NQibxnse3L4vdwnseGuOJxq96VyfWVecUHAAAJr0lEQVR4nO2daVviShCFOyGOggKCAhkUcWVQwZVxXMZl7v//UTdhkST0VpXudJon5/t18t4u0ofTVQ0hhQoVKlSoUKFChQoVKrTe6kyGw0nL9FNoU+f3Rd/3fa/vPB6afhYtGh09PW1u/vnhOI7vPW+Yfhz1uq+1S6VSu73phIyOf7JmjM2zRmmm9uaU0HG8kw/TT6VQndsFYATR6Z9MTD+YKrUigIH+LBAd72U9GM9LMcD2+JswYLwYmn689DrdLZdihJsRwoDReTX9hCn1sxEHTBKG6/jaMf2UKXTQKJUEhOE6/raW8S1RonTCYH/0H+1kPK4l+RiEodF5tNCxflIAWYQBo/Nsm2H9SwNkE4a1+m4TY+d25SUjIgzUf7fGsLYYgALC4MX6bodhPR8wAIWElpjy0+Q+DyG0wbB2a0xAKcLQ6OSa8YD6EgURTk150zQIS5ecFZQnzPEXj+NVp4YjDD+PefQ5VCODJAxMQP4sAN3IoAkdJ2eruIyclBGemGaKiWlkUhB6ecoA2EYmBaHjmMZa6rTEfYliCb2eabCFumynlorQfzRNNtcNd59PU6UXptFmOuDv8/YTvkmuIIYwF6+az11JPlsJ70VGxnLCptCpWU7IipzWhrAlY2RsJjwtwQCtI+xKOTWLCX9Kb4OWEkobGVsJ+ZHTGhAeYwBtIoQYGRsJYUbGQsKOOHIyRdjq9RREkB2gkcmOcDTe297e2/lK2RZwDjUyWREe/tquuIEq1XGqdEcucjJA+LFfd+eqVL/wgJKRU/aEvdkCzlW9w1bqjfz3+WwJhzFA163v4yr1EuHUMiEcJQCxlYozMhE1NBFeVZOAIeI1+JRVdHYmUrn2t+frIHzYXuGbVSqs6wFtZJaAb2TDU0/YvK5SAYNl3B4BAPFGZq7GoEt0EHbuWICwSgVGTquqnYXHneoJO+M6EzCs1LGki5M6O+OovHs8/TvKCQ/3V98xiUqVanlIZWQCNUpdooWwJQIMER/EldotpwOcVagOwjtuic5V/SWqVNmzM5bmFaqBsLcnASiuVEzkFFGj/HP5txQTPsgs4RTxH6dSKe3aENVuoy0jignHwk/hslKZnSvHqbx28A6N/c9TTFiRJnQrFUY7IDJyWgDWbuJ/TjGh+E0aQdz7R/kLzbNUgI3bZGkoJrwDEIZfGlcqNZ2RKdc+Vz7eiglHbMNGU30/UanQs7Mk4MHqIykmbNZBixi8U6+i/zn47CymxuCc8kiqd/wh/XsTW9FKTZXIlGv31A1IuS/9giIu4w3E2VkUkFKhWgjJaA9WqN/xBrddW6TG4JTxPBq+Hw4pCQZf0yAujZFhVagmQtID7Psz1fc/0hiZcu2S/TQ6CMmGC0Ws1J/aaMBpWJEtYfAtUdKBL7VzhF7Av9ywWQ8h6fyCI7qoZQzjNK40EXLjKCbjExyQX6E6CQlhRoocRHCl1s6ExyH6CMkDAtEtQSq1XDsWP4ZGQvIFRwRVqrhCdRMG9gaBKF2pyzjNHCEZQh2cK1+pkTjNICHpAb9NzRglto1YnGaSkHyA7U2IeCSyqLWVsMIYoTjlpyIKKjURp5klJC3+SQ1LnEptNG7E/2yGhCh7w3unrsZppgk5J6ZcRHql0uI044TMU2+RKJVa3mWEFYYJyRVmFSmVSo/T8kBIvla6T+QQY9sGL6wwTkhpsJFTpFKZcVo+CMkEh7hz1P6uUFaclhNC8gEOqOaI+ArNmJBsYOzNPN6Av0NNEAb2BvdZDF44uArNnJAc4ghd9wi8SZghPB+Uj3ZQhJUx+h6gLAmnZ2dYRFBHnCHCeRMQGhHeu5kx4aIJqI1EdOv7+d4Pl2dn7SckIq5SsyKMnp3hEasSHXGGCON3NqIR3aps72bWhPeJw8F2GUko27uZNSGlXTsFIrBSs8hp6O3aLrpS2R1xZgiZTUBoxEoVUqnaCTlzZ9iNUdC7mTEht10bjQipVM2E/C4ntL0JltGVvcpRL+GBoIUkDSK1dzNrwkthjwx+76f2bmZNSLt8WiWi3MCfRkK5bub2E5ow2DauxI+hj1B67gxtb1ypStXWTwOYOyuj936ZStXVEwVr106BWNn+MkEIHqDH7xpBpV5n39d2Ch7LatdRB8Uz8UdTdRDC584ag9MrRO/NQpUqJ97QQAieO5v1T34hem+WiOwgTj0heO5s0T8J756OqL7P+gkA5YRv0G7mZXfaJA0iM4hTTXgDXcFo/ySqg+obkRHEqZ6ZAe4S5Xh3Gqq96Fv0IE4xIXBmolFKdKch24sWy0gL4hQT/gWtIaV/EtEgHkWkVKpiwgEEkNo/2UR1UH2rOtY8fwjY65n9k6gOqsgyJipV9RpKE3L6J//hOqgWiIkgTjHhp+TnMDmOHBd4/i2ueBCnmLArt9+vjCMnhG0vWixjdIha9Y4v9TJt3IoaD5J3MEER95bxhvJ7McSDvFL9k/D5t7iW8YZyXyq8dEWy9wc+/xbXd7yh4X4aPqJ0/yRi/i2mxRC1jjuGOCEUpDstnb1xF5Wq5Z4oZlIK65/ENYhHNK1UPUkUAxHaP9m8TrcxToeoNaWJtIvkMP2TiPm3uLave5oS4dVbjbnjyEzhGsQjqm9BAWVT/eSFjnKjdKsapSxUd0vb3ZfdaJ4hGkfmCDP/lg1h9BqPckMwjszTJE16o5WQnN/OPozlGrJC5/rYSYOok5CQg8FuoNJbynuED9Mg6iUMvFe3q+C32tIEVLoJFSmFvbGEEDn/ZhMhIVgHZw8h1t5YRIgMqGwixNkbqwhR5292EZIePL2xjBBx/mYbITygso4QHFDZRwg9f7OQEGhvrCQEnb/ZSQi5oMlSQsD5G5gwH78lCzh/s5ZQur0ISpib33QmZEMuvYES5ud3uQMHJ5XegKvUNFZUUgEVkNB7NU0Vk4y9ARKemGZKSmxvgIQKsk/FEl7QBCL0WX24JnUlQAQQei/5W8FQAnsjTehdQIeoMxO/QVyS0Lt4xd1KkYkmvDeqFKF3MckxX6ANjoOTIPReZAdSzemQnd4ICb0T9N03WarFTG8EhP13K/hIGFAxPoxcwv5JHjdAlhjnb2xC339X8Eu+WYpub1iEvv9sGR9h2Bs6od9/zKd/EYg2/0Yj9P3HlM0TxjRatTerhP6P37byEVp7UZLQ+/FqMV+gj6QPjxN6Tp7tp5wS52+VP1G+/H59gCiR3kT4LLCfcoqev1W21o+PRAOqyuJT6L3YYj8ldT1/38wAfd8q+ymn1636ztasQn3vef34AnX+u+j7vuf1nUf77KesOpPhcGKl+yxUqFChQoUKFSpUqND66X8ygSgTVb7oVAAAAABJRU5ErkJggg==;" vertex="1" parent="1">
          <mxGeometry x="98.00000000000001" y="160" width="65" height="65" as="geometry" />
        </mxCell>
        <mxCell id="MMp3bKSsHC83LUOIyMqO-11" value="" style="shape=image;verticalLabelPosition=bottom;labelBackgroundColor=#ffffff;verticalAlign=top;aspect=fixed;imageAspect=0;image=data:image/png,iVBORw0KGgoAAAANSUhEUgAAAT4AAACfCAMAAABX0UX9AAAAsVBMVEX///9AQTeDzSkzNCi2trSBzCM7PDJnZ2AwMSR/zB45Oi98yxEtLiHX19V9yxje8cfV7brHx8Wa1lGP0kCt3Xy04IP6/vXD5pxTVEvv7+42NyxsbGb8/vni4uFFRjyBgn1cXVXr6+rz+uvi89C54o3Bwr+iop7o9dru+OKTk46l2mvY78Gg2GKa1lZNTkW+5JbJ6KjH6KZzdG2YmJSFhoAkJRXN6rOW1Uej2mirq6iJzzYlRDxbAAAJ6klEQVR4nO2daXuiOhSAWRoqBKn7glqt2GqtVu2irf//h90EUCGEEGQ6jrfn/VLnUUt4s3CSnHQUBQAAAAAAAAAAAAAAAAAAAAAAAAAAAAAAAAAAAAAAAAAAAACAf5lu9eHSRbhm3j7vn7qXLsT1cmuoeufm0qW4Wog+1Sjdli9djiuF6iMC7eHg0iW5SgJ9qmrZzzAE5uegT1Vd/enShbk+TvpUVb+vXro410ZUn2q4EATmI6ZP1R8vXZ4rg9EHEWA+QF8hQF8hQF8hQF8hQF8hQF8hQF8hQF8hQF8hQF8hQF8hQF8hQF8hQF8hQF8hQF8hQF8hrlpfoa3V/p8owV/XN614goL3Cf5Pid90M7J6Z2dHzJq1xvTcLyuDm/DCZ+jrPr2dnVXkLTHGtZfU99uN+aQyUZT5LOs3lW9LhmrZw7NK0p9gE5m42Trny0r3w9btnp+WkV/fjaVbuvp9znXHDYw0TUN4kVrx062yrSvTXYa+7vAzKLhln7G5v3UcjeLgdf4vK0+261/4g9RcL6e+aqfkf7LUyb+l3sYmLTIpOqn4lO5J9U3u1hOxvifbOpVZzTnieDusHcD7u3xfVh7v9fDCbum7/Krm0Td4sw+6DbuXb0+9ovneVuM18l9suJ8i+tbeZLUWjUuPr2681HkSxGZzB2knEP7KMwSWe3qkvbmWGi+IUF/32Yp+3nLf5Qee6ZKUGmF/TBtPHNoM67yKp61vuqpU0ltfueca8VKrhiWbINZaaaYWx0STseRNPHwYjLAc+m6YSicff5XsN+OmL692EDb9IoMgcuaciu/7T93UJ+/Dh8W7A1cuR3ZbjzW9EKe+lopivhMC5PWVRzpb6aTadZnQob/Zk+7q7KOFfNkRgaYmXfGHO7hPu4NSJzPBZLrAHHl+D156mZeujkpieQJ9gyFHHsWyPrKGwLsaNcV2kX5b83vwNkf4KrwDw34TVuW4idl+GxXYEFfkYFjiC5DQ131S05utKw5iZnPaT3mhyqxhmnIVH97B6bnFx9LTUzz7G81JlRcMge30iuy+s0+JHPoeO+JmKwhiWuFTosJ91wueJxkVH97Bcyn7DlwjpSpf6in9NgLe80tJRv1jsJJfX/k2o9L9fsN/8m39GMVMr9cgmnEEFR/y7WYM2yGle84QOFtmy/N7cI0XxJQzWo9I3zG8F8NNjR7vcHbjWtERCe8zenBP9g5U4/Od/fJaSl4gcJUQkDVkiPRVbZk+T3ENduBu1U3h/Cxk7A+OpnCaUbZl74DwyZYDZ3s79WC2HCO5fsvV183xXeOeufAaayh1OIniLU3NaYo+8ZijHKrNDCR3ufQxBR585rgyq6+ap9Ytpvk1TaRJRiVzhHb/pr5c7T6hT3rI4ehrmKh2+le/dVgdas2mL+313XR2cktM1/PrsxKzt7+mjz8cyulLmfiJ9S13QfTSatdMjB0HY7RsH4yeo89Sh089i3MfP6/PMEYqz4GMPkO/feZO/oT6Wg7CbfJzFgRgKFj3q0/P1WfofqxU7STF/rg+fVQm4RxnGiahz6XLa8zai4w+pDlEX0ujSwVI2+/9H6Y2Pk+f/nqI1JMB4Q/rc0NJj2qi5jL1WaUwqhr0EuGQjL4VeRrXK76z2ZaodBpn6XOjk4tn5s0f1UcC3ON7T58Z632sPvvttD5QfWWKbTHF5ujr10jjO0bRsz3pwq0z9BnxSeJ3vP39pD4rNr3qDuNNKENfeOZts9/6P59j8u0hc888fWTQW54+McEIe/n1GaP4uw/3f0uf0WHmVh3hXkdcn+ULuqs7yPGXSbrRdevkugtPX520vtP8bPy1CCYlOfX14u924zfxk/pGjL5RXn3hZpkzieqzdM6qH2/sa5B5nLbYeLOwBwe7ur9HX38fTL/pLOGgzyhx15x5+jwqHzlYqy8aG+84Cv4ifcFlqJlQX9qOB0+fUtGC5Q+ETAfvG95v12cZaUu8XH3KeF3TTOyY/hBg4nMCl/+DvqDzhsF/Dn2EmVdZfdU1k+56Bdu9v0afsvALg/CcvNbtV0GuQaq+kOmajKNoT1/+Hn3KlrQavPezfMrCvUGOvg3SImGf0t8hDdNn79XoKxL3GR0/OulP9vwECwaOvjaOL+fOiT467cjUFy/HxfSRS0djjMFbrlmHET5j5RZBOfoqWDMjy8pjEkU79MXV6CNPymOE231nV+6y5ryGfiufWMXR16K7lofsqf50YWqm/+i9ls5Lce+D+dVNcq0se8HKcKX/XBPv0bEht+Joy3mj2ZgvEZmCoJmUvn+m9VFKo6pS7nGyDmSWS11DMreU++Sd0H1JZFLoyl+YXndd+kgn7HD3CeQW6/XsbJxUfcrdEjkkaKaTDkdrhP34yvQV2+tQDVsmITEt7pu+rBpfy/lkeyc/5/3X9PGR3mkzJHKym6bmHBenOGHziWkdRXeVksT1JdKZ32Lrpay+fNvkzK7+Q5593hLTKwWbxFYyGYLBI8XGi7B7CvS16BpYSq4uR59hv7FvP8SyUFh9JNqUT9KYsL/7Vn6L2VLZJvUsyHDRedk4UZqYpv9M/OX4F0fD/PMIG5MmuSyFsWREHz8N8juSQZfQp3g1yRShHSdf+EMisc+v1lIvGZM8sjsa0S9k5WRvkJ9V2p6OPQ0l00coLzs/B2siPmFx1OeqKY/9hw/9EMMm9Sn99V6c3Udx9htuHXJjlGRjGnEbkzA10rI+hFHguEHiFOSgPc3j4zSw6TxIGM9KIwr1Wa4glfWY9M7RR9PRUXpuKcU0m6mZYJwImUGQWz3gZ2Mfvye8cW/hB3q0ZyRy0PxbQqJDRgd8fYab0dgfO26qPpqOzksLP/ZbYSZY952bVXAgYy4RP83A8JkxAlYWGiYxXnJY8TuUqWWnRgb63Ow0/qCnpOijKaZpPdjJzAQbvKUroFkHYm5Sh0D3PnMSN6u0Kx47uPnDOTKlEnOVR9t1pQ5fPQxL1md6gdomrweb5kqiCnn5IL4AqVNNT9zUYsvKcTTGOzVA/3SbfFp4tzOUPcJUvk3ENRHCU3XxfjuXPB3BSxC27Kz4LaQ7TKZlfErfFek6S3woaD/IyNVkcif/NMzhjhyZ/QQ2Pd2Ipl1kwSSJGzYn0EllpmH/SBt5uQ1Pt8l/+Y/yUj9NQ7IHvTjxwxF25qAXJ3JEwch7prLfpqGDs1/nOI3wM/QPQ6DprHKf6D0dzXHv8x8eP4T30sfZIsz8Ac/JM+j9EOOGYyLTyT50zSM4GGZZZ/2ZdRreG5In8BLQ81kIyR7B+0m8r/oi71HeAw8flq2LT4AJKA9vn8/9DwL6m9p+t7pcv41QpBCD6qX+i4n++Lw/IAAAAAAAAAAAAAAAAAAAAAAAAAAAAAAAAAAAAAAAAAAAAAAAv4//AICu4qW/RuGiAAAAAElFTkSuQmCC;" vertex="1" parent="1">
          <mxGeometry x="105.83" y="330" width="160" height="80" as="geometry" />
        </mxCell>
        <mxCell id="MMp3bKSsHC83LUOIyMqO-12" value="" style="shape=image;verticalLabelPosition=bottom;labelBackgroundColor=#ffffff;verticalAlign=top;aspect=fixed;imageAspect=0;image=data:image/png,iVBORw0KGgoAAAANSUhEUgAAASYAAACrCAMAAAD8Q8FaAAAAmVBMVEX///8AAABh2fxa2Pz5+flWVlZm2vzCwsJxcXH6/v9k2vz8//8VFRXh4eH2/f/M8v6W5f2o6f3Y9f+M4/3r+v+Dg4OWlpbh+P6C4fzF8P5y3fy2trbx8fFNTU0gICC07P4MDAw6Ojro6OjJycllZWWsrKy87v7V1dVFRUVHR0eampouLi5tbW2MjIx7e3skJCRfX18zMzOlpaU28IzwAAAJlklEQVR4nO2ciXLivBKFkU1kbIh3YlssZoeQTJLJ+z/c7ZZk8MJM/ZWam1BWf1M1wYak7FPdR62WzGBAEARBEARBEARBEARBEARBEARBEARBEARBED1jXJRRVMbjP7ydHaIoCvxvvaT7YxzklmXbFs/LtPtuesg5vGt7efH9l3ZHjEvLxn+IF7WESkuB5y35duj+zBXeBQFIxMMoSjiqkRf11AtykMj2kigK4V378GMX+eOkEC4ic13XT0uOgZNcTMiPPBlhmQ9vZ7ltifgnr/RHKeHuM/3aPwiIGRGoo0weXPwqTWw7+pPL9x24eau8HmYhJB6XyRWgSkktfgoQ7YbHGwGETCOV/BLNGnQqOAgW1auAlFte1v59Qwg8O29WRDFGURiBWFX2VeS2sSZe2HbSMhw0a6wBOoYdgjl924XdFyBT2D6XQrkJpUFnWIMIy7/nqu6Oww2Z4CT6UmdUK0imOujeluWVnfPmynQj6WIBIz/4uNeexBmcdF2ZUqjFRexDcc5b7hTeSlAzCKxWQZDiOBfLusDOm2VSYm5BEPNmae1HYEvSlcCh7LBh45CMrUrKGNpVeAAq6TGuxOGu9pZvcBUOOcZrIRJ7mGpphuB0z6q9l8Fsz9Q5nR/aljScNIuLssyx+s6F4FyIHKvMvCyLOEuxIdexMZOAqW6UFiFKY9lYL6k+pq2alhKULCxSqAdCUxspaNkNWTwPIwnh3PMauoFVGZl0flwmXAtheQJLgbwI4jhGa4IfQSCTUHhWpWFexqblnXvIhb59ER3AgCJ43aooM1AoRNuKhKfk5HlpklBZ6WEa2RhDQp3hVrdRUtqWHgnB64VQSzBRZohHya433HFSZBncOVqOD0V2t4kLI6Gd49lU2F4BXu/h7wkzTCpLpNtE0mggr7DsDqB6vFFkx55aeAogmHy0swjXX250o3rHuMB0E1WCwREIAHWmHWrXcaG+TCsHAsey4bW4zHvHB9ne7LtFuSWudl8XwiGdwH6i60JUHAruiVD3UXyBlpWCMpeZCq7oWV7PV6MC7JTUekloP5ESQ3LgcvizvVLP7VBAqEJFTRa5OtXrdkHqtTskuACXQLGt4qu4VN+26l9iOiZ5daTx824/qleEuBjeOOPncq+FCo5UVCpZVe8gwCS1Wr+UgnBhf+0JZWh3uUu5yUIF08G6ogMIZeyWVBiD/e2rxKJ7d6lX9eIGbmTXZErUVp3g1qodiOf1N+vAwLvtEIgwrrTDxsoVoT+JHZXOLyW21d9mJkZTu4T2cf6rxr6GTHauoinDaGqHIFTtPY4m9Kb2ylKB3qP3NZV1b1KlkSulaxsahGWPvWkcyqK7jpvICFIZlPGrTHrSG3M57LWGR5gCJv0d6TCDWiM5xgUM71q88loQRDLn5OxXtKvJ8JKnPQVXTJJaaLjYvc28SgdIMVu16hJdb2JYwWeS2t9IQ/tG16VXuNjXta77vGWLRLaT9Kki557HhTajsZz0Vu0WiY9zFSvp+cZev8Squ5raQlWEY18GakT6xtOgKIIq3g5q0isum5vGcYhFe9j/lpPcimolKqJyJcDBsm/t1M30nPgAYqKKfoztc5gX9zyWJGnkYc+IR1latUjkDLczdI0j3dNMue0Ffozb6XEfeX9LgQbjQLVrrTypeuGB1+oCIAXMY6S1Y9WQYNPzGoZG4GdJtTrnRUXmqkWBluHg/p3QHbhpEIpqxS4xbQ3KD0JeLVhaAuPKzuMs9TVpmmH9nSfCq5aAeXLov3PfIA61SvIhKPyPi1wjxPW8/N8O//gwWd8p8eZDUVseb+4h0C8FfMjc/c5yWou+7WZBGYUJlo38ArZSkjAqiwzdqDB4R0prf1MgN4Rr0Jhq07bYM3d/U2u3HJRJFtdzXGyB1580NPmZlc7eS3AgFV5yj2ojybi5ey+7O3nRzTMZZu3Ji+GP9jTPoD0l6TixO/0kg4e6G08ZHFCn5EY/yeCnDG48szIuVTHZiZwDyVTHj2TF3amR6NGeJmFtpaVGSTLVkH1u+7JafoUe7amRoXsnod19PtPggqCzpUA9Ee3jXK/1TLTL5aNRRgJzOq8WIinu7+XyYQL5HRf1raiBZ+73EGCv+2JCbowJxw+yqTQOuNxOX83qcBpj7pfJZNfH5mL5fTHi0nqTT9rzRGXeGFf3TJ3SDdQ6HC+DIhJqf2/N0F31tURedAjkklXPN6X+FblVR31Bg20lcTOtZICp5RSrWiw3FPX9Q3LNpLuw5GNvV2HAMu/fcQ9Jnvzx2+P8OIK3+75b/r/h/t12jB3hCIIgCIIwmWHFT1/IXTNcMMV6up1/9Y8ct4//8prukOEDq1hNv6oTY7/+6UXdHyDT5NOZObPRhLGnL/4Rxqb/9KLuD5RJZcwRdPpi7pgk0+CDMac6vXFms2PtY3jsNHJyeIQz8jfnG8be5sg3XO8PUZPpibGZevX4dlox9rLb6g89feDxcvF0GQ6H54cXcLP1zhnM306MvT+fTqe3/upUk+lXJZMDfn56WCwZO8tjiJaXxcMCdHnZqI8+PoMyi4fnd/YxnI9+g4Tr9fr3yAiZIChknm1f2GK/GcydHVvJeNqM9sf5YH789a5HtM0DDItQP8y3T+fhYPPI2OgR2PzQPXwDKJO6vT2EEIbD/JX9Vrb0uGAjmWY6SoZTdpKSfkIFoPNP/jDCwtloOp2OIKWepTrHi0WBHO/b+oePS/XWiq0bf8QMmTQ7lXwzxiqPqWSBwNo6UFx9LqVbbdoVlhkyPS8WD+DXC5Vqr4y9jhS7FdvjqcfRablSWqI+s2u8KYyQSVr4cA/GLcMJJnmravoymaBMxxWbPH+8StlQpn2twJKYI5OMkSkaMpxwroC9z09srWTZvFfRZK5MoI8sCKB8ajZVnMlqr16BV6FMW8Y+G58wSiYY4nYDKUIzVvbsRc9bPrV3qw9eMUqmwRtjMP5v1mzRKKf3bKlzbqdlGulCtKItW/+oy+RM2CsIdIahTp0aOp+Qf9ulqjLnb3qkG2wnbK0KqkdH2dmy5325ukzDEVvi3U9hwjb6nJ1HJ/aAcQUlwuLTeVqz3VIXTPsVW36cZ+fdcocyQZ6+nxbPX27r3T8g0+oSCUcdN+fnqvN7xsPhhzyYPG0rmQaOrkonsmkw/FxM4OChx5M6Zz+bdw4e99PR6O080wLOZ3D45AyGs33lSZv9L/zEVg+KG2e23zvmLTu01lpurLzQagxBEARBEARBEARBEARBEARBEARBEARBEARBEARBEARBEARB/J/5H1lmmLQD3bi0AAAAAElFTkSuQmCC;" vertex="1" parent="1">
          <mxGeometry x="160.00000000000003" y="210" width="189.13" height="110" as="geometry" />
        </mxCell>
        <mxCell id="MMp3bKSsHC83LUOIyMqO-8" value="" style="shape=image;verticalLabelPosition=bottom;labelBackgroundColor=#ffffff;verticalAlign=top;aspect=fixed;imageAspect=0;image=data:image/png,iVBORw0KGgoAAAANSUhEUgAAARMAAAC3CAMAAAAGjUrGAAAAtFBMVEX///8AYYrkjgAAUYDkjADjhwAAVIIAXIcAXojihQD45M8AWob338kAVoMAT39ula7W4OfooUn88+t6nbTnnj7z0a378ORHfp3qqVzx9ffP2+PllCC2yNT56tv01bYja5Hs8fSguMg2dJeJqLzC0dv++/fxxprg5+0rb5NjjqnvvonrrGTtuYDyzabstHVUhaOqwM6UsMIAP3bnmjbhfQC5y9YARnnlkx/xyZ7rr2rvwZDppFGOV4P8AAAJmUlEQVR4nO2da2PiKBSGgyRAikSrrTZWTbzVamvVXmZ22v//v5YEoolGjNWpGcPzYVfDmRTeAudwIKlhaDQajUaj0Wg0Go1Go9FoNBqNRqPRaDQajUaj0Wg0Go1Go9F8l1YTQa/yce5q5IkPBxNAMGMD99xVyQ0IoPmjQwGgcHDuuuSEIWJVw3B7ABHAcOvc1ckFCwrFhw+PAeAszlubfDBkqCo/LhgGzJtP6oNhwacWhufRR7dPASEEUwa9QVX1jy6cJYNrP1zHDCLEKCEU9gs8uXgE+bGv7rg6XHoQAwInhR1CPiTe1sVqxcEAs8JOuUNIJ9tX/YpDAGoWtasMGGqnXB43ESCoqEF/n6DU/tBmBMDKT9cmH/gIRy1fNOPjyG0yQB+LOX56zPHlRx62xUuWDsB0/PM1ygGYRgtAf2NyafGFEByeoUpnp05x9HHgJKdVn2DgFHGm/WAoCltdtFHmelyUIvYURBXZE48Ap4CR/gQDRWkgSvEm2iGDika7wXK5eC6ZqgaPMeYhbf/H6pIX6pSoiocOoPWfqkteGEOm9C0DVkDn08SPyvI+AfSHqpIbWk7q6niFjwBOySlcNnOs7gcLVLwg33f2uBY+epTz8CXSg1gpypj7nuVPVSYvDChUhvAVDNhP1SUv+IgpNXEdwJTz8AUyoI7aYIILF80+rvcE02lx11OwtaCzd2RggIsV4Q/ZZjppiyUF6Sn+S2WA9u9bwIK54z7avxc6oMVa9Tho/wELF4Ii7SKPUZapoo5TttwvlhaDGax8HrcVZ2cjg9sJqBSpowzZajGjypOMISjOYYPhauwMfqkm22aBOkoLSU2GjjJYHaLidBTud/zwAyBAOdt6BKhTtxeEI/aM+UIP0J7C7oN3lKIkIaUSPFQlQLVTyjtKYWaUCm0G/2sSMqfKFXLLAbhZjJ7SZjAIZBmg7TpVdpQKAoQR1fi6GJxg8PAVDar6jnpVU3coBhTW/R+q2fmoBL1jjADvLpU9mz3uYg4pwc7FZ5jGDuvxZQ9AwbJGec4gZNGHmOJLn1fqFPZ6NMxDD9ZHIXfj1x1y8QdoPUwpED2kKbzQHsaPjHqXnbZ2PYapTKN4Tqa9nCXvKhe+6dObRA+QuhnT0ePAAf3NKuUJF2QZPUbgmVlGywvAyxiWVT0ECrPFMc/6WOCEFmapbCz3+hS/9bHo9ZaYXrpPXtPzVaXtCYOMUQ5mr5ceva1p7xw+4wliGADMEMTNenEUUbFEAABIKu3LjtkOwwGA+ueuRM7oIYCLM7NmZE4B23OM5zv4w3Zb/c4Ed7hot3IaEfUZwPS0qx13ABzEGHJ290C/6TAO7H8r09eZPT99XW9z87C2aXSnf+4SPD3Prtbltbfwn/xJ/QEVCADqn3CSHSNKQAjd9XRMy5EWhB2eKp/9ti0zFetZmow+zTQby7L+dKRJzQ4vXaf/jDYkgDinS80+YhBB0kNjF60sDn5WpFOyzNIOTKnJzN5pY9ovwqZmh193aMI7MlcFneokvu+sG7zj4GmdxkyUqfQtGrZsraKfTO2VAnHkNesmNNqjCe/LfUjoic6IVkUnkIMjraO4MG6x5/DqBm+iaZZtvt1s8fYZmJSlJCY3+n2/ohR1HmsaWO3VhLdkDk+0BhSakIoXtjjtWPcy7CZ48igsDrl5R7TXuh3ttrkWTTdL3Q2jqy8rLLGDLxk0CV744JwkhSI0wfVe2HKSMiTFyEFV73BNbq34vJGOkM38nVL0FMpllY2MmvDJ9tcpwjepScUQI2Q7T75gclSBwzV5CDWxugqTRtSVUspq1qoooyaGD04gykqTeuh/tjdUPCJn37+kiRggYWfYwj5YE8OYHO+SV5pIB7T5HMhQzsFGVk3cED/8fA5NjBNqYsxFh9jYom2Kq72kJu4r5Dhpvs+BiPMafj6LJsez1qQlPFAyUh2LaSY4jJjQJLxM0mZ5GjOTmjykmEXkW5PgUbug+Ql3XFnPMomxk00T6XdKip+fc00+Qg+TeHzGjXmjgzQRp1xH0tG+lXcGKDnXJGp1bIE5kPFarDS8vnfsyJO//9lRjGqtMN+eHjor87xrIuK2+BlMEZvAMEP8HU24KFvLu2ClY5dm0iDvmkgJ1qe7Rbwmm/4tTYzGXZAG2NSF95yS6Cu510QMlfUZTLHwk2cuv6cJb87szowNHUuu7Uw7FCX3mrgycSDLhgnv/A1fvGLU6ESUZ3JtJ9xR7jWRrjd64UY/EcUdo0mSrlzwBrnF/Gsyjre1KhxxFO0nNEHHaGLcrRe8+dfEaIYdRbzLaSLitehxxBNq8vJPaTJcf5WLQhglrn9Ck1vBTIZ4h2pSnk5Va6usbGgiUwOBEIONaCWuiX/UfLJbk1FJeCizFn7d0uRLddda6e2/2dN7ao87iE1N2iwaMCJJsH4l2t/VJPr9XoslkhU66oP6yci+vep2a433K4VRJjY1McTWBpZBLVmvfhKaHDd2rjeTiiVztZt1J0SxeWE5lmqQ6TjFTZ//GPbstlTuqpacmdjSRKSk2cdW0jquicxUopS9twyafEpf3Ai+yCDXXiUfn2Vpd1QS0oVdRuwAmC+772peGVyy6dR4r2VpuIItTWRzsdi7iG0OJDSRez60N3aTJDTplLfpPrzJmO0+LkHJ+uqKoK72R25iiIDXNEOz2yjQm3ZTbhrIxqUo3Ztf/L/HDp5tTerrjcHEJlhCE8MTVhQhmCRu9pyI6VNje2MUbQKayfKIqAPdSFHMlDvad9yA9yfLeOJD7r1xck1iO4MkvuuX1MQIdiN3I8ymO/dFuQLRb7Oze/c0UG4a/cBrxS7rU/ALeDFsPtEaZfNISVI0MXorURIvJ93QxBg+Qop36aLWxLTsl3WWafRkp6ycheFXbBx0S7vsQk1G710+G3du7aOdcfVXcIrCSex1LR2GMaYs+RAiRYHla+zKuDfxNodOhrFjW1//JfNujc/7DUtb5F3Mm4Td1ee1lXbLcOxwt/41u315Pz5qc1shSQfiLuqVymBjQ10Y7n2tLYpp0rhKoZPqFkY8togodxqj2r0QpbRpzZfYKfcUZd3nl5liG/ZsoI0h9m1u4tHbv43QJNObGPYQi97+bcZCk5O8x+Ylit5OcbPzURVryBO9vPPz3Q54n+43zQGVehqV4K+UhU78RH9haSQ5zd3+Mr9wKlF0Usi/aAcVMSw+4QnEf4ldmgSRXsU/d+3Ow+tm+BqCwHygHxfRaDQajUaj0Wg0Go1Go9FoNBqNRqPRaDQajUaj0Wg0Go1G803+B/E0roGtL2c+AAAAAElFTkSuQmCC;" vertex="1" parent="1">
          <mxGeometry x="90" y="250" width="120.22" height="80" as="geometry" />
        </mxCell>
        <mxCell id="MMp3bKSsHC83LUOIyMqO-7" value="" style="shape=image;verticalLabelPosition=bottom;labelBackgroundColor=#ffffff;verticalAlign=top;aspect=fixed;imageAspect=0;image=data:image/png,iVBORw0KGgoAAAANSUhEUgAAAM8AAADzCAMAAAAW57K7AAABR1BMVEX///9BLx+BxWRPlUZSmUlMkkRQlkaCyGV+xGBALR6Ey2dUm0p7w1yOcU5aqU1Up0pmrlU+JBuJakRxs15grFE/KBxssVl5uGZ6uGdztWE6HxCRdVNDLCE9IhqsmILy7up/wGI2GADGuKo8IROCvXDn4tvL5sCKyW/m8+FypFVIQieRhoEzEgCglpKi04233ajw+OyUzXx2rVlNTi1tmlC7tLFYRT3OycdEOCPc7tVRVzFnjEm6qpcrAACDdnBPOjCw2qBfekFabjvPxLeehmpqW1SZjonQ6MfD4reRzHm23afs9uhWYjZKRymLwnpkhUZKbTdFWSxKfTywrI2mkHeyq6fJxMFvYFkoAABeTERUXTpyj1xSi0N1nWB5q2ZLZjVNhECBoWiYpHnAu6Cot5B5b1jHxalaTTqkoIORinHW1L6EemuBYDNxzrNxAAARpklEQVR4nO2d+VvbOBrHQ6BJTALUSdUWY3CMG0IujoRcHAk3tIXSKSQsO52do3Pt7vz/P698S7ZlK4xFwj7+Pk87qZ1k9PH76qtX8pFYLFKkSJEiRYoUKVKkSJEiRYoUKVKkSJEiRSJra3292+1eXG5+ONywdHi4ebl2Abevf9wadwMptX6xdrmxXYzHU6mMphQuY2M8Xny/cXh50Z1crvXu5sb7YkpDiAcrpRPHi9sba5NGtdW9hCHRYkFB4gRLqVSHF91xU+ja6n7YjmsZ9LcEoYoblx/HDXOxXaRLLzqmePHD+vhg1jbifzsuTmVSxQ9jybzuRjF0GBNp+/KpDWLtPSMYTTDxDp8y7y5pQ5P0ECVSauOpiNaKmUCIWahkPl+v10u46vVcPq7tDUKDRE9hd91tMo0KkozXSzs3R8e7jetyZ4oDqnie1/5AcVOdTvl69+r4Zq9Uzyc1LjLRJnOcQ4I7qyHJ10s3u41yh19Wm85BTal/UBnbOJVxmStfN453SvX4LIkpU2Trdeueqaay1HeOGh1OjQEO4CcNjAed8tVeKe/NxDZEFx7BgfmS27lqcMu8Mxa0VDApeb68e1OHTB4h2mCGs+4OTjJZ32t0RooKgQoGqnxc8kBiB7TtiE5yNnfT4PjHhcUDCTJ1jktxJ1Hmgg3OBR6eZLx01QkNxmQC/PWeI0ipIhueYgqj2WmMkGWdDj0S3zmqz7IPUBcJTzK50+BH6DPgn8eA+s2QaOo4jxCltlnwbNjhma3v8iO0b2qK/35nJMfgQOcG6UcZFqUPkgA33Gh+xnU+5XZHOgAwRrt1CyhzGT6O7QbJneXRTIADP3xa/Dqqc4CGHSAGjnBopdtsY8RDzX3/6dPb9HejfQoClSygVPiVadzkSdanRku2qR8+qTzTnVEDdGx5QmYtbJx1KzzJG36kVnX+9U7jSX8ZsYjgOnkrPqHXCHb3mR2pZ4OyhvPpXTqd/jyiiyAJF3oHst06P0reqNF5987gGRUIHFkJlwrbsYtWupVGSDdOw7F4INAoPFzD7kBhlwh2abBHz8NxP7x9pwPpPOkfRwHiyvaIGvII1LXdmr77cODmjc7zzuQZybWRDhR2ybNmF2/03Yc/fvPm7VssPun0KG7C79lDarg8H2w7oG4N2FVxnDzTZXogxBDi4a4wWvaWLNF6FNcpLZo8dr6l01/pAwx2WRnce4tnh9YO+L3FRStA72weOK7S8nBl2+DCXeix7Hr2iLI14GoR4UHiM4InIBVCuIa9ZaXx7BVdY7hOPQeB3nrxzFzTpixnzRkyoa5brSN2TdcW/uZ1Dg0QypP+iXbugBh2qBWcPdeepTu2XOP161yOxEM9rPKMBiCEp0zFw+/oPIvmCITzTNN9C/waawB6HyaPXV3TVaPg6rXKgwYI46H1OGRADbXCtniSOZpmcGAngCfdoAqQPaULdxHOKneSdZquDHZfvnxtJpw3z09UAQJXs0zic2nxlGjawX9FeAwgBw9dHcfZBUKoBdymzUNRHqjhsYA8eGag6ALEXbMp4A5HKnf4LwjPIsYzY4kqQEjBMz4ervMS49GBEJQZaoubCB7w46tXOhDqcGkERQ8VxRiE8IS6BDcaT8LkQRPO6QdUiwmTwMOVXyE8ZoDeoiR6pL4Gr0tOAg/4/OoVFiCEZwYVxbyBVf/ZHIFn+auDR5s0vMVZNJ5gR2Dl15f04w/XmX/llXAePMEr2sgKXKjj6RpSHwS0AXw3P++VcG4eioQDjOqDC/r6DXx28SySeAJrBFb1KDpfCGgCn5jXgJxDqgfPzIsgh0MWrBjxJANynuuk59EAWR3Iiyew5kHmP6HO5+jnp1xjft6dcGq+JTx4goZUe36aYsUTcLIR/Lgw75lwXjwzPwW4JasF7I/Uy/H8lwWPAL1588bBk1A188I/2hyr9R369Tf+hRfPos2TQDXjv/rFbP3NvtYlaH0UJDQed8JBnoRLASMQs/VR+9KqgIKHm0pbPJjDvU1Pu3ESAYbAbv2a9vwCd73g5DEC5MkTYAjszi9Y538CFqzAdwsL3gnnzfPVNz7IFQghn/9Zo1xQhHbtHSDYf1yank74z4HYnZ+jHVApeaYNJV74Hh1Wwylm2L5XsoHPC94Jp/NMI9LAfHm4qZzF8yFcHuT6g51lah7U4dIJnESX74CK2lvYF/Ag11MEx8drSE07SGh4GqzsGr1czNcQ/Hg8/M2fh93pbbwipeNxJJyHvyWmA3gYXo+EnHH0MwRvntdOHtvffN0yx6Ya1WRF3rfi0fza0+HSDhTTr8nfxZVZXkBqXxzvVyFo9YFXwqH+hvGQ44NeLhb+bSaX9pTbJ0dMHrcjpD1w/OsD5ORp6HaAXaDoM2XgyguEhPPkmfat36zJAovre5EO5DcCgbRnwr0m8PjU18i5ORbXXyMdyG8EgvPTEXgSPvMf/sa2AxZ3adkdyG/OzX9ZcAN58LzQlCDPT5G5dtjFtS7kimWfEg4zBDRA6RcYia5p8voB4tYMRh9VcfuGDHLCqRNUEs8Lp6Z9roVD5j7hX02uaZMm4TjTEBwOl0u7aCDPF6IdYOnG5u5nu4TzW0Tw7EAv1fi45WMH6NJByHM5S9acIR4nD6mkDuTJQ+4+aLoxun8OmTP4XITNcWjC+fOQqwOuYx+7FKub7W2Hi+fJdQoh4WZG6j5o7cbuBlQ74XwmDVyDlscn3RA3YJZu2Gkgn/N0IOHlcB48ZLdGF94Y3a2pyl7l8bNsV42tASU83I2UbqhZh7wQjwtxhDrRstU1bLcjuEfTF8RLUdHwMHMDVYgj+PQgY9KNJ5ybx2cwrbOudUxt0FicFSDUEdzhIa6r8Mi6DpNbT20ht9jPku+jc64iePIQT9YjZ31YhwcLELlI4EyLQxLONfgQT8Si82zG4cEClCzxxA6963I46t6DXhPCPDz4bdxkS1j+4kw4Jw85uDk7PKHfBujWFpJw5Ik313EknLN8I1bWyzeIGRwyx0GnQb4Z9x0eIAcP8Y4MLNsYTXwcQqYNs8dEj9MzzuIp0Q2lHJptTJZ13MKeuxHkcSbPDyhNgnh/yfIeEh5W8zinEEvwK3s6aIB+xryNaNVIocPeq02hljB7Q1zr0Uzb4HmJ8hDranQkjWfCPsVIFnI3Kiy0iV2It08Ov/yFwqqxNRBWT3XxFFol5K/Jo9Bnkyd3u2PhkAoDjt8ZR7ap2kLW4pI5/7m3BlS/tQyBuCSKlqFspz1uYQ+vIa/Pc8blY/Ol25+DcMAV8hQhNo+o8dEh2oX2iMOqCfTz7S9BONd5lOfJn9z5HjW5I6LJcfxnCLTwy62ecMSiGlobgsNohddPqGnDOsEH6EcYH8jzK6xyiPeiI5eCxJ+obnMKfzwX2bWnQGP+9e3t7bdfP5NntFxpnJ1H1yYKlN/1ASr/DHG+fSPjgBL2AK4xPZ54AzW5vM+FsuA3yPP7b8RkA+jAw+JkNqVQT0j6RIj7Q40PscrBccbgBaYwT/ADmvrz27dbhYSDJdsTD6S41imBwJ/ffv9ToMI5HCMOXifEk3GSbYN/k3jAFFKDMn2aJZ3WMNeOH3k/So377XdvHlDGcMbk1GSg2RvP0of74/f/ePHwjTyG834CHiR/iQEld7xWOlSeFRcPt3w1eTguoLpHUaPy7Dt5OP4Ie8ZtqjgROC6g/JWrE3nxAA4bdiYlOqocQG5XUHlWcR7+GnOCeGZycNyPjt2ZAk6ewomMdZ3jPI6zMUE46pOXcaDcLh4irv/fGrIBcHsYzfjHHae6cYwoGb8BjhDZ5Q633Kg7cA7H3X6XPhYdIapfEx5TCsCN4xnKY63ZSNracHSi/JHnQ3FdwUmlxldR++oQB4IharhCBDhncFLF8f3ER4AuHc9jT8b3prD1bVgR5HCaeGZ7oowNV9fRiWDSHdtJxy1fl5xPvZ9AJ0Dl7ETqA+aNcoHjO3t5B00qxe7inJB06fwpkGS8BLsRx08d5WfxPTDXxv2DPxTqun6jQX02O6RxPuc+9YRnRP6Otpw+p3ajvOvnIlj/9kWIugj4xRYtOIcT7GtOwRD5/6DOMwqOru57nxDBnvOMgmPIObgiwXmynyoKVR83PJMuU5zQci1Y3W0XUSY+ibU0tS7wbpRKPSdX89Sa/dthT/SLWKy1pmddJvWkv8HGUhfbmUxx8/8hNqbWL557v4kUKVKkSP+PklZW9lWt6No/Kdj7VvVd2s791YI0vlbS62Qpq2tuaS77l/ri9MTcd2ruy2p7lk78vmhSJEmr2bm5uRMJqrB6Cl9nT80YSYVT+E+4q3Byp+7YH2tLqQUbvWQm04lKNGclHWTN6v84UYEKXh+fOK0gPDHpDgWyeWL72ecSIIxHC1f21HiN8BQg592Tt+0xcvBIamYZfR/hgZuzK0/fuEfIwaNm1pwRIAfPYx1OGg7g3+1Kr6Z/2dB6Zapdq/QqA/SoDmrqX737Shv9ogF8W1N7m/n5grppgH6bk0fNrDnJyQMNYelRLM3aff+gEhs+HMiKoAxjsWarKiiC0LTf03w4EPvVqizWzFafgWovNhCrClDkmtWwntx/EOHberVB5UFrYfv+APTlqqxUbAInT2zJsjKbR1rKLj3K3goPVUFUKpXqWe9MEAFo9/7ROmsJoli1DnzvoD+UpHZPANV7DU84ACLowc0PffWNQ/1tbVGGYZYq8FuEg3/01E21qtiEw0lFAcKDheDiWbE6kDo2rRagVpeyK48tENoPQJR76sFoKrB1Z20JBg2ISs/EkUX9SNUEUa6oL6RBXxQF7Y01RQQaZEwSBW1n7B6Ah1pN0nCAflCagijcE3lUa161eLJ/QaldavWxQAPBbDs8kC1zm6jo39eUBTOj7hVRLphvNA54BR4D7dW5IOuNH8rgQT9QsnVMzuGhGNLx7J+crO6fzsFtc4/0g4FgtrgtiH39lQQjpTf9AViZ11ZE4dygMJtaEAzGM2CwSgD0tfb2FNnshBISb38eo/8U7hAbH53n3GgcAKKxsW9gFGAyWv/3B2AkF8Jj9rQHYMRH6oOWpP9Xtvsg0DeSeNoOHvg22/ZGVNPikUSLp2XwtGVRsL61pxitsnmkvsFzBowoFxRFgy7AT1oWBfue0QvdPHdefh2LzT02QL48QxmJT00wUsmDpyIY3aYp644Heez4NGUyz5zXeKqH7VE8g4D4VJGjbLTZg6cgAEEdZaRWVfc5lccaxCBPn5BvJ1b3wXlWmfAUoAcMbB4DA/rbvYNHtUmhVamISs38MlE5t3mMI+HmubMrgSfggb0aWEMHdKyBwcO7eGLtniL2z+xK6QxYDPBIGKOT1l1QnhOk2RgPNITso/zA099MHtgv7G4AR17JAEPjY44s5y2sRBkgCddTFHPfHTqDixXmrGzTu4w1W330BAhmkcUjIn5dMBnNsXMoVAdm8xAeY6QctuQz7Hiqoe0bX6LIVuqdogQnc1n7H8hIpIbHmhaNJgnmhdGQAewseizasKCpGRtloDyoW9v9qpmXMFBGS4dwpKzoww0sfVq9Sm3QbBtYbQUCqbCwSDRH01hbHVey+wV1BeFEbTQSK1iZamsLMQlOxB83/ZHOlKogVMEZjFMfvhJg8akVqfAV0BvR7MM3PPTODvoDg0YWFEWQ++3YsF9VFEWW7yWtWhMB3C7IVaGnE7VbslJt9c6qolkywUJTbfOcuoCjrvDYyzux/aVsVt81p+1pxx4jCR5RqApseq1XOT8/r/TasULlXNtoOlXtvtXv3zeNwy7d3/dUnRVi7TPt1b0G3mxBMlkWYNKa5bQ00D5pz5xW7u7uTg3dYctvsVNk18oq67UQCqdp93vD9rB5DvNXrFoeT/PJiVTtwGRot4BVfT5bVQ5shCGckI6xKWFoWLWLm5gkVJs+730OOrcmUVDtav+59hpTzSqwGe6ffXhgWQ1nbMaErndQC3j3M1BbVAAcO88r9wfiMPjtk69CTxSqBwdya/Dc+44pqQ31PE5yRIoUKVKkSJEiRYoUKVKkSJEiRYoUKVKkSCz0PyWCCKAagYHAAAAAAElFTkSuQmCC;" vertex="1" parent="1">
          <mxGeometry x="254.35" y="140" width="68.15" height="80" as="geometry" />
        </mxCell>
        <mxCell id="MMp3bKSsHC83LUOIyMqO-15" value="" style="shape=image;verticalLabelPosition=bottom;labelBackgroundColor=#ffffff;verticalAlign=top;aspect=fixed;imageAspect=0;image=data:image/png,iVBORw0KGgoAAAANSUhEUgAAAQMAAADCCAMAAAB6zFdcAAAAkFBMVEX///8AAAA2Njbu7u76+vqlpaU2NTaWl5e1tbW7vLw0NTSCgoLs6+xhYWHz8/Pa2trf4OGurq5RUFGdnp0fHh/Q0NDBwsIvLi7m5uZFRkVYWFdKSkpbXFuPj4/Nzc3x8vF3eXhxcXAPDgtoZ2c8PDwnJyg7PTtubW5+fn4ZGhkgIR8NCAoaGBsTFBCSkZEkJiOHJObPAAAG/ElEQVR4nO2beUPiPBDGGwhCOVKucoOcq4jrfv9v9zaTs9q6C6h5lef3j6W0yfTpzCSZYBQBAAAAAAAAAAAAAAAAAAAAAAAAAAAAAAAAAAAAAAAAAAAAAAAAAADg3+H3oS0IjKjvGWPzXmg7AtJjmmMa2pRQvDDHKLQxYYjp4RfrPv2dhDYnCKfsyXciO5hMs6NOaHNC0MgefKaPD9lxNag1Ydhkz93VxzIsGkGtCUM2Kg7NcTXT4CWkMYFoMlYxxzzToB7SmEBUGGvaDz025wFtCcWdr8GNUoEG0CBCLEigAcXCXWgbQgM/QE6UQIMgGojYMvr4esVo6WqCvYfZohWXXFiNE3309RpUmc/4Y6qYVTPHX7pagBirLop7qLpvvl6DHsvT/4AlSsdWwGQNhAk63LH3NJCFk746DKRBv9+fzYfKxutrV4l70oEsi9HRvWx7t4pLKiJ5Db54flBzb0rUSYTVtU2m3ttOe7owvJJNl98T1A9Ig7b/oXVtk40ij5f+9uv9e8LGgtGAM+u7V1Ar0kCeXJTf8//RIDpmHx7cl7y7SkXuct5O08RLm34GVVdyLkOqx4V/Aec1SjWCe1fqb+hPqQYieWVCUefq4D5NL6tB5zSggbJmvkpUKm8ObF8Nte3B9iaztVz6aDep7FWzI8w2M4jPWLNtdk2INOul4gpkWfeDcg147ZcasutGhtirL+7YMXHnYrlDyaaXZLOcBrKszYx5bsdrqEvdffcoKmC62dFBX/6o5Nu7a2LV+ka3q6iTcOrBM0xG9jRwa6bk6O4bueu1tSMTXXJP5n5tLjQtn6sBuRBPOv6wQI3Olusn2y0NG8/z/sl2JUfBo3d9dnI0pDnB82E4F8orssG2vdnJLaPDQ+dRKA10wZybxov8IKFn6iwfjKL6efUbkc41M7pkpu+Wa1+tczU4jMeHg/LyxDu/pd4GxrwRG9dIjJpxF2nlU16DiKZIZmNEa6Db09m2xaxDF2lg/IBvs3MykiIxk5fRtGtbogHrS28SMnROl2lgaRoRyTjdmfRyksbmBWlTqjUw+yFOgwWz44LTwB39TYOK3l+oWw9V882d0WBSoMFJ2UYJ7eyNKXqnx+fn4+9c4OlAJtrs9aThRV/3KRoYP5DJYKkbl19T3ijzA3Phhl0wuLt8EE16YyvCgiKQE1F2emr0SBu1QW3xmRrofDBhxv0i/X5lj6cSPzD+2/AsOk8DOz/4ZSL9D8tDUc/rY3emXIPOh/jByLx6YqhbL/MDI9Yqd9dFGqxMPL2SgM0jk6ez2Nu+r8HH5ANyf2tmdpLGkrJ8YDaqk+s1EPKTjH2ZhOKug+vv5vGEq7LAZ8dCnHuaP1/nBxR360hl/ldzfpmndZr8Cg26/qPZfFCmgRkLZDtmxnKhBiS+tG+g/d9j5txw5mlg/HV6lgY6j3eL8wGNjc/M/faAAuNea6CFWfoamLFgw95dmhVDY6NZagiaFMqZIpU8rCNQra9vX8HEvJWqe1eyaKA12Ln3XKiB1FdXSdblfqDmB9qtx+Yx72wv/ORroK1o58z+V8gPUhnyyUqtENQPIOh4KcWZDIb0stcmFkTFaECrgz3NGLdOA/mC7gQtDgs1SIyzkRpFGpBCFCdT+fI5TeInpm16XkGLF6cBLZ+qTXl4djXQrfMMuQXSeE9zJzss9HujzIy90YBiZ9taZsHRtxqkuqFZiQYULGy+bI3Z9He5H+h2NstHWqCoiK/qcxvVodUgM2DeIqlYWeW6HG9Zqx7a1tc37iRNxt1CshUbDSK7XBvJKK/58skAll62pnPyIU3QVp9NZzTWCG1Gx2qgI0U5l25f39swJ5ZyCFgYDSbXrBv9R2VPO1/EVOnKOqb/kYxGto8jcWcTT4NmU51u1D64qsDOWMP7bKwT7swuwbPTZPHphUJRpY4FG2r1m14NZUA9ssPSDXfJlIwYyVtU/UB+7kYxRehF9YNIT4iF4OJNIPFumub2XaqmVONdOknTt9UhW21yJ3Ot82TV1b2//jq/5yrSN9Uh8coIpYFn3Pfn7Hqi0eAHcfb+ws/UAH4ADc6PhWy68fxJtnw2vFoIr3i/1f03erVv+r9PI1bOrfwO5Q4aUGWojDNj4dsiaxD1Ipj7N5afTqtkRJNllau3/78JMicuC87LCsH5y9/vCZVI3pY76PS5RdFvy7rQ6WWIrL/cllDYqqQPzRpu6N86qTaYr3nQ9kBRlvixUEXI/7c1KiVPS6//iQj6SeShp6o/1R79BGJ4MwlRIfRksbJb7/SPeJo3JkGkft/h8xjaoBAkC0+BWfL3G34kk8FM5oWn2eCGxsQChLi9NAAAAAAAAAAAAAAAAAAAAAAAAAAAAAAAAAAAAAAAAAAAAAAAAAAA4Mb4D+WuWHfrwKO8AAAAAElFTkSuQmCC;" vertex="1" parent="1">
          <mxGeometry x="279.93" y="540" width="120.15" height="90" as="geometry" />
        </mxCell>
        <mxCell id="MMp3bKSsHC83LUOIyMqO-14" value="" style="shape=image;verticalLabelPosition=bottom;labelBackgroundColor=#ffffff;verticalAlign=top;aspect=fixed;imageAspect=0;image=data:image/png,iVBORw0KGgoAAAANSUhEUgAAASYAAAA4CAYAAABQb1WFAAAK22lDQ1BJQ0MgUHJvZmlsZQAASImVlwdUU9kWQO976SGhJBABKaH33gJICT0UQTqISkgCCSWGhKAiNmRwBCsiIlhGrIiCoyMgY0Es2AZFxa4TZFBQx8GCoqiZF/iEmfnr/7/+Wevm7HVy7ik39711AgA5jC0S5cLqAOQJC8SxoQH05JRUOm4AEIE+0AS2wIHNkYiYMTGRAJFJ/Xf5cAdACn3LThHr37//r0Lh8iQcAKA0hDO4Ek4ewh3IesERiQsAQB1C7CYLCkQKvoGwphgpEOHfFJw1waMKzhhnNGncJz42EGE6AHgSmy3OAoBki9jphZwsJA5J0YOjkCsQIlyMsC+Hz+YifBJh27y8+QoeRNgS8RcBQEZOBzAy/hIz62/xM5Tx2ewsJU/0NS74IIFElMte9H8ezf+WvFzpZA5zZJH44rBYRT7k/O7lzI9QsjBjZvQkC7gTNSmYLw1LmGSOJDB1krnsoAjl3tyZkZOcKQhhKeMUsOInmScJjptk8fxYZa5McSBzktni8bxEhGXSnASlnc9jKeMX8eOTJrlQkDhzkiU5cRFTPoFKu1gaq6yfJwwNmMobouw9T/KXfgUs5d4CfnyYsnf2VP08IXMqpiRZWRuXFxQ85ZOg9BcVBChziXJjlP683FClXVIYp9xbgFzOqb0xyjPMZofHTDIQgCjABhy62iQBUMBbWKBoJHC+aJFYkMUvoDORp41HZwk59rZ0Z0dnJwAUz+7EdXhHG38mIdqVKdsqZL/fcrlcfmLKFroWgCNIDcSqKZtFLwDqyB2+9CtHKi6csKEVHxjk11ND3go6wACYAEtgB5yBO/AG/iAYhINoEA9SwFykVj7IA2KwABSDFaAMVIANYDOoBTvBbnAAHAZHQSs4Cc6Ci+AquAF6wUMgAwPgJRgGH8AYBEE4iAxRIR3IEDKDbCBniAH5QsFQJBQLpUDpUBYkhKRQMbQSqoAqoVpoF9QA/QidgM5Cl6Ee6D7UBw1Bb6HPMAomwZqwPmwOO8AMmAlHwPHwHDgLzoeL4FJ4HVwD18OH4Bb4LHwV7oVl8Et4BAVQKigayghlh2KgAlHRqFRUJkqMWooqR1Wj6lFNqHZUF+oWSoZ6hfqExqKpaDraDu2NDkMnoDnofPRS9Bp0LfoAugV9Hn0L3YceRn/DkDF6GBuMF4aFScZkYRZgyjDVmH2Y45gLmF7MAOYDFoulYS2wHtgwbAo2G7sYuwa7HduM7cD2YPuxIzgcTgdng/PBRePYuAJcGW4r7hDuDO4mbgA3ilfBG+Kd8SH4VLwQX4Kvxh/En8bfxD/HjxHUCWYEL0I0gUtYRFhP2ENoJ1wnDBDGiBpEC6IPMZ6YTVxBrCE2ES8QHxHfqaioGKt4qsxSEagsV6lROaJySaVP5ROJQrImBZLSSFLSOtJ+UgfpPukdmUw2J/uTU8kF5HXkBvI58hPyqCpV1V6VpcpVXaZap9qielP1tRpBzUyNqTZXrUitWu2Y2nW1V+oEdXP1QHW2+lL1OvUT6nfVRzSoGk4a0Rp5Gms0Dmpc1hik4CjmlGAKl1JK2U05R+mnoqgm1EAqh7qSuod6gTqgidW00GRpZmtWaB7W7NYc1qJouWolai3UqtM6pSWjoWjmNBYtl7aedpR2h/Z5mv405jTetNXTmqbdnPZRe7q2vzZPu1y7WbtX+7MOXSdYJ0dno06rzmNdtK617izdBbo7dC/ovpquOd17Omd6+fSj0x/owXrWerF6i/V2613TG9E30A/VF+lv1T+n/8qAZuBvkG1QZXDaYMiQauhrKDCsMjxj+IKuRWfSc+k19PP0YSM9ozAjqdEuo26jMWML4wTjEuNm48cmRBOGSaZJlUmnybCpoWmUabFpo+kDM4IZw4xvtsWsy+yjuYV5kvkq81bzQQttC5ZFkUWjxSNLsqWfZb5lveVtK6wVwyrHarvVDWvY2s2ab11nfd0GtnG3Edhst+mxxdh62gpt623v2pHsmHaFdo12ffY0+0j7EvtW+9cOpg6pDhsduhy+Obo55jrucXzoRHEKdypxand662ztzHGuc77tQnYJcVnm0ubyxtXGlee6w/WeG9Utym2VW6fbV3cPd7F7k/uQh6lHusc2j7sMTUYMYw3jkifGM8BzmedJz09e7l4FXke9/vC2887xPug9OMNiBm/Gnhn9PsY+bJ9dPjJfum+67w++Mj8jP7Zfvd9TfxN/rv8+/+dMK2Y28xDzdYBjgDjgeMDHQK/AJYEdQaig0KDyoO5gSnBCcG3wkxDjkKyQxpDhULfQxaEdYZiwiLCNYXdZ+iwOq4E1HO4RviT8fAQpIi6iNuJppHWkOLI9Co4Kj9oU9Wim2UzhzNZoEM2K3hT9OMYiJj/m51nYWTGz6mY9i3WKLY7tiqPGzYs7GPchPiB+ffzDBMsEaUJnolpiWmJD4sekoKTKJFmyQ/KS5KspuimClLZUXGpi6r7UkdnBszfPHkhzSytLuzPHYs7COZfn6s7NnXtqnto89rxj6Zj0pPSD6V/Y0ex69kgGK2NbxjAnkLOF85Lrz63iDvF8eJW855k+mZWZg1k+WZuyhvh+/Gr+K0GgoFbwJjsse2f2x5zonP058tyk3OY8fF563gkhRZgjPD/fYP7C+T0iG1GZSJbvlb85f1gcId4ngSRzJG0FmsiQdE1qKf1O2lfoW1hXOLogccGxhRoLhQuvLbJetHrR86KQor2L0Ys5izuLjYpXFPctYS7ZtRRamrG0c5nJstJlA8tDlx9YQVyRs+KXEseSypL3K5NWtpfqly4v7f8u9LvGMtUycdndVd6rdn6P/l7wffdql9VbV38r55ZfqXCsqK74soaz5spap7U1a+XrMtd1r3dfv2MDdoNww52NfhsPVGpUFlX2b4ra1FJFryqver953ubL1a7VO7cQt0i3yGoia9q2mm7dsPVLLb+2ty6grnmb3rbV2z5u526/ucN/R9NO/Z0VOz//IPjh3q7QXS315vXVu7G7C3c/25O4p2svY2/DPt19Ffu+7hfulx2IPXC+waOh4aDewfWNcKO0cehQ2qEbh4MOtzXZNe1qpjVXHAFHpEde/Jj+452jEUc7jzGONf1k9tO249Tj5S1Qy6KW4VZ+q6wtpa3nRPiJznbv9uM/2/+8/6TRybpTWqfWnyaeLj0tP1N0ZqRD1PHqbNbZ/s55nQ/PJZ+7fX7W+e4LERcuXQy5eK6L2XXmks+lk5e9Lp+4wrjSetX9ass1t2vHf3H75Xi3e3fLdY/rbTc8b7T3zOg5fdPv5tlbQbcu3mbdvto7s7fnTsKde3fT7sruce8N3s+9/+ZB4YOxh8sfYR6VP1Z/XP1E70n9r1a/NsvcZaf6gvquPY17+rCf0//yN8lvXwZKn5GfVT83fN4w6Dx4cihk6MaL2S8GXopejr0q+13j922vLV//9If/H9eGk4cH3ojfyN+ueafzbv971/edIzEjTz7kfRj7WD6qM3rgE+NT1+ekz8/HFnzBfan5avW1/VvEt0fyPLlcxBazx0cBFLLgzEwA3u5HZuMUAKjIXE6cPTFbjws08X9gnMB/4on5e1zcAWhClGIsYnYAcBRZ5v4AqCJaMRLF+wPYxUW5/iWSTBfniVgkZLLEjMrl7/QBwLUD8FUsl49tl8u/7kGKvQ9AR/7ETK8QLDLLN7m4vN475z7FeBT8Qybm/b/0+E8NFBW4gn/qPwGCWBwMMHO6xgAAAIplWElmTU0AKgAAAAgABAEaAAUAAAABAAAAPgEbAAUAAAABAAAARgEoAAMAAAABAAIAAIdpAAQAAAABAAAATgAAAAAAAACQAAAAAQAAAJAAAAABAAOShgAHAAAAEgAAAHigAgAEAAAAAQAAASagAwAEAAAAAQAAADgAAAAAQVNDSUkAAABTY3JlZW5zaG90GBM3MAAAAAlwSFlzAAAWJQAAFiUBSVIk8AAAAdVpVFh0WE1MOmNvbS5hZG9iZS54bXAAAAAAADx4OnhtcG1ldGEgeG1sbnM6eD0iYWRvYmU6bnM6bWV0YS8iIHg6eG1wdGs9IlhNUCBDb3JlIDYuMC4wIj4KICAgPHJkZjpSREYgeG1sbnM6cmRmPSJodHRwOi8vd3d3LnczLm9yZy8xOTk5LzAyLzIyLXJkZi1zeW50YXgtbnMjIj4KICAgICAgPHJkZjpEZXNjcmlwdGlvbiByZGY6YWJvdXQ9IiIKICAgICAgICAgICAgeG1sbnM6ZXhpZj0iaHR0cDovL25zLmFkb2JlLmNvbS9leGlmLzEuMC8iPgogICAgICAgICA8ZXhpZjpQaXhlbFlEaW1lbnNpb24+NTY8L2V4aWY6UGl4ZWxZRGltZW5zaW9uPgogICAgICAgICA8ZXhpZjpQaXhlbFhEaW1lbnNpb24+Mjk0PC9leGlmOlBpeGVsWERpbWVuc2lvbj4KICAgICAgICAgPGV4aWY6VXNlckNvbW1lbnQ+U2NyZWVuc2hvdDwvZXhpZjpVc2VyQ29tbWVudD4KICAgICAgPC9yZGY6RGVzY3JpcHRpb24+CiAgIDwvcmRmOlJERj4KPC94OnhtcG1ldGE+CrWQNdEAAAAcaURPVAAAAAIAAAAAAAAAHAAAACgAAAAcAAAAHAAAPnauA0KrAAA+QklEQVR4AeydB5RUVbq23wqdaXKUIIKKigFzwoA6RszXMYMYQUFQDCBiAAkqRsyKGEa5juiY04wRB0VRRFBAJWcJ3U3nUFX/8+7TjTLO/dfcNd67/NfvgequqnPODl94v7C/fTqW4dDvx+8U+LUoUC9NmXSaFlOq43ONEqpOZ7R85Y8qKi5WWWW1YrG08nKzVZibp66dtlJBdkLJeILvY5tfv9aQflvtZJRRrdLKUjoTUxw6ZeqqlYrHVR1LqmhThdasW6+SklLVVFcrKyupgoJ8tWrZXFu1aa6smJSU7xM/OaAXzdBmSvFMyl/wmZfi9dPmpM9zUfStr8nw3ncno3fpOtUxjlQ8qfVlFVq6arWKi0tUV5tWPJGjgvwcdenYXq0L85WT8J3mrdt1i9HbOOP/NY/Y78D0a5Lz97aCpFpaM3W8TSkVS6i0TrrtgSf04adfq7IOhayr5IK0YghzXlaWdt+2g268ur+aN8pXIv7/ATBBmzRgbfCIp1OK8bkWUPr82x807r4ntGZjGediqq2t42dG2Vlx5edmaUCf/9CJh+8HpAFMAWggI/gQTED4HVMNH6qqa7V89TqlUoAQfkerVi3UsmmBEhngkL4SMXoOoJJUGv4IQKuBZ1/OX6Sx9zyidSVVqgGUMhgTg2debq4aZ6c1oO8pOvawnvQPCAZRp1OjIv9/B6ZAkN9//FYpEPxvhNzKlsngGSSytLy4UhcMHa01RXgGiaYIdTXDx3OIZaFVGbUrlB6//Rq1b1YIMP36Qv7bohXzxkPJAEzW6BhgoVhK5em4nnjhDT347F+VSTYKXo8VXgBXAu8yU1ejc08+REP6nAAwxMVX4bR/pGitCoD4YU2RJj/zkqZN/yKCDsDHoOM+9ui+ja7o31dd27dWTrpaCQht8EsDiJgI7pcem/qGHpvyNjwroHH8Mu7NxADPGABZU6RzTz1S/c8+VTl8NjAxCq6xB/Xr8+x3jwmi/taOfxZdO8T5f+Gw9TY4xQEmZWoID7I0b1Wx+g+foA1lzCGRx7kKX6V0PB8ljatTi4Sm3DFUTXOShA4owq8cFvy26AZxAjAlw7AM4CkAoAKQvmvSFE19exaBXq41nRf0skeVruFVp4F9euu8Ew/eDEz2eowKBqayVEwj7pisaTO4P50NruSC+fbJDDuAW7pCx/TaRyMGnqd8DEYSMHTIlyZ843aAKa4Jk1/Wc29M4zuAybBj4wIwxfCwslJFuvz8U3T6cb2UzXgNq5w0NHkIvzrPfgcmE/h/5YD7HLZS4Tcxvd9F3/KO/7ZA4Rzfbnm1z0fnop/hst/kD2cwDE4JhD/GKxXL1peLVuvS6+9VeW1OOJvIlPMbYEo0Uaouru3bZevPd12rbNyAWAJLbYXkCD8DIbactaOHn44tKfXT9/X3//yL+vfoWf3Bm4a2ft5Pw3eb+RB9ETIqXBd4WH9Nw6VRk9HPhqsbetnit1EbD6YhB2SvpDZVq4pErsY+8KRef3eWMvE8XtzlhgCkGOeTgMu1A8/RKYftxXvAm3YMCaaFW/uO/N1FgH9JOfkiAf7ZuXTjcIywCxAyL7p2aKbHJ4xQIW3lxA1MDMW0rkvhw2Zp1P1T9OqHszAm+WHI8XQt550LA5jqinT94D464dB98bhoL/TtAXLw69c2Jr8DU0Ta/4WfFh9yLk442tKkiPX9OZ3AQgJJiTRnYDAxf22KRKR9dYQ2O9zF9ShsknMWtgRJYh/permwDP9WDoOSD1t5MdYaPIHp3yzUlaMfQvjzwncxVCeEEVYxUKJHl5Z6ZPyVPhsdKI3VLY4Ox6CPvap0XfDFADPsf5JXCIGiVoBBkutxlVdUqaiomKQtVMbjyM/OVtOmTZST4+CHq+yE0HOa3I1pm5WkbegcT/A7ZVCBzngQAXjCJ4A1KKDDGoIvgy0t1NIXLdAeVxKK2qvwuNBwJRlXnO+EQof2MChbeLvGJfqOfA63mYZMGZXSxjX3PKaPP/mG+5xF4jpLCJ5QkjEm05W6bcQA9dprx+CtWDx8mFJ10HD63O80aPT9fMJbUo6nF4BHcYDNF0PHrVvl6+k7R6hZViLQIZMIBJagRyUGZMiYhzV99g+AkSWxgR4AHLmqZO0G3T5ykHrtuRNzhCqMt8FYcvGWc/QX/+bxOzD9mwT8l28PVjKFutn2sR5iycHyoB6qQAbWlJZrzcoNqigtjdQW5Stg1Wqbdu3Uslk+iobIOVGJEDdYp98yMMUBJidPa1DQdz+brWvGP6ZUVmMU2RTjh5UZ9TA1Dtyts+68vr/VyTDAy1plZbJqAxqZBG9pK1VN/iVL1SjK2nUbNHfuN1q5fIVWrlpJziShwsbN1aRpc+iT4C7grxqg2likTRXlyoWWHTtspa5dOmmnHbqpIC+Pe0LrXOl/BhoAqN4zjRSTJDXjtDGJezy11aHtapR8Q1WNVm0s1fo165mKw1LCIkLXTlu1U4eWzdTEyl8PSj+1SScBmAAj2rVfnAheTUbFfD9g7ER9PXcZY2EcYcZZYe6mVDJdqgfHX6t9tu8I1SIS0qspRd/Sm+SVrr/nT1xvjzNHqVroaCR2h1xnr2v37drooVuuUoFn63kGYMKjgp5lmWz1u/Z2zVuyLhi8iAz0nDFIkjSvLdID467W3jt0DjyLkYNyG6bb/8TxOzD9T1D1n7Vpwebl1RjeIVx4DXyuRune+OgL3T7pOZWXkUvgsyUvw3qwBbIwO0tjrrlIB/TYAcuJZ4WcNQj6bxmYYoQBTFC1ANPUd2do7H3PKA0w2YtyziKCIOYD2PQ+tIduuvxsINqrPVbWcGugUoo516H0BBUqBrS/mjVbc+bOAaiztWv37uradTu1a90ckDFhrEgxVVRUKgsPM4+ldufrqlGgispKLV+xQgsXLdaCBfPVtnUb7bnXnuq2TacAYjnZUa7FqhzAkfus+Gk8LxsTJ5ANtn7/Y0m5rrzlXn27bAPeBFebt/RvgIqlanRMz301enBfxsD8Ig3/SSIYpj0mr4a5/YTDIsa9gVWwPtfdpsXLisz8AAYZ+kojDw6pEukyPffwGHVr48UDyGi84fAoq6HpjK/na/CoBwDuPMbMvA0cUZzH/dA8U6ozex+qK1hZC6GYvSKPmTDPBrIc6p926SgtW8eKoOUstO1QMTvIYUEMYASYdt2mPaPCXwzAFF0XBvIr//gdmH5lgv6XzVl4kSbDjWXKwGQvoAI2j3/gab08bQ7yYUvp8IIrHMeQfIzX1urGQafrRBKXDk9ihBxeZvfxWwUmdJrhO1xitYj5Pf3Ku7r3yVcIwRoFYGXk1n5eKF2qUmcc11ND+53MzGuC0sVR9hiW39FVLZ5jeV2dpn8+S198OVs7d+uqg/bfS02orXEoXFlejqdD2UF+o3plj6usrEp5hG8NwFAHONAj/TkEJKCGD0uXLdO0aTNUW1mq4449Wu3bb4WHE1X2hPwN/ArQFJQc/8vhC8BUx7hmLViqwbfcp9K0Q9MIytB+MJdMDWPp2qaJnrtruLL/K2Cyp+zO6CEB6NhD+hFgOu3yUVpfhKfpUD/0D3jYi6Pd7FiFXnpsrDo1ZgmTI20Z4UgR9ht/Vq4r0WXX3a5VRZswALmM00En4SSFZDFySG1bJjR2+KUAy1Yh2Mu4ZoyhG5icHiiqTer4fteouIrGLF+heYMy7xljW2zKfWOu0g7tW4Bn9tMwoAawfwTeMKp//8evBkz/L68k/ftk/BdaCMBklbRAwlPcfitMBYI+csKj+tvMBXxLfgBBzxBiZBAYBxGxmhqNv7afjtxvl5BjCh5TaMHCGb2xavxWDgOArXkkvBEw3f/My3p86t+kHKTbMu0fjN0AlgUY9T+7ty446VDAjHICFC1O+OCwqpYLFhKqTXlhqnbeeQ8dsv8+apqXrWRdiZbMn6kfFnzN9TXKKWypXseegw6TqEVhysoqqb3JCTkke2juzHrmhHOUSkKh0PlaPqxatUovv/KyWrRsqRNP7K3c7BzSMgTYjM+KG3kfTjYbaF1vlKW/z16goWMeVHWiEVOp9xpC2o98Dsv6e+/UVY/edCmGBID5R8VlIAYCbgt0SIR2E1pbldaxFwxXJQsEvics1TOXGCGqAKZmLJRNmXijOlLr5bkE3gcaAp+0V4OX9dnXC/XSW+/qh1VrVVpBSQbgVJCVF8D8xGMP1O7dOrLeF6CGUwYW10MBqLxWlqV08oXXsDqXH3ljZg70Ct4TubWOLbL10NgrWUFtzD1mIhOgjV/MjzO/xvE7MEHF/w1QdR9BoPgRwgKvWMHcSkKdy0ferc/mL+c88bwtMF5ChloRJx3zSC7dOYJQbpdt+RqBtbNRL+z/XWD635inYQAVDklgg2gVcxz7wJ/0l3c/r88xYcGZuanh8SQBo2v6n6ozjtg/hBxAcbD2VTV1+vTzz/Xxxx/rggvOU/sWTZUuK9HCrz7R6gVfqFWjpJoUkpUCwBeuq9GBpwxUdh7aC6A5CZ6dY2ACNEKohAJawSMXIXgkXmkyOKZQ6iqAaNon0zVj5uc658yz1KFtWyXRvSSFjfZGvKweD4lvPFwMyTuffKkb73pSddT7ODlvxnrxwhlne0BHHri3xg0+czMwbUF3rvWRxiN2nZeBKV2X0GqA6eg+11Dn1cTDMhVoFlnAe4lBo45tG2nyrcPUFk/QX5v3YWyASsht02414JRmrGWVeGGAoqfo3GQu9zg3n01fWWFhgXSCkZlenHyvY9yLN1To7ME3q7QaGTRo+Wbai4CpStu1b6IHbhmC55Rbb3RoOIAbv/8Hjl8Ck8djytQf9R6j51B/cME/Obyy8I9HgwL94/fhs5XMHK0/onebO4EZW55x//94TWA4X0Z3RW/casM39ScaGtry98/a30JwgtI79m4Yy89HuWUT/hSNc3NjW15Q34bPRi9COd7YGjr5nUK6SgGjvgNH6Yf1pcgCQgHxLXRxm2wSlnmsHD1wy6XavSuhBu2Eit/6dhuAKZrzlmMJPAzDCj+icfltw7R4E3Rz8+efzvmrn+6KLviJH26Ks/X3GWZ81H/EHtcDEwrv7yoR7mtvfVDvz/yeUM6K7DscJvlKFD5Vrpuv6KsTDtyV984lScVsxXjh1dc4m9Hpp5yoAia+ct6nWvLlB2qdG1frvISyAYA04FVDP3PXVmuHY85XYfNWodK8sqoWYMqqBwa8EwMGyehsVumSeFUJ8k/OCwUeYwgMpC75XLJsuZ55dopOO+lk7bjt9soxsNG3abk5NHXO7K8zNOGR58h9sazusJN7uQDPBUDAYzq99+Ea3q83IMAM4VWQL/PMBPfBb9sfG58E5QAkhvTtqjKdfvloFs/wwjgfaOR7TSPgfYeubfTgzUPUykjDfwNbUDnmYZnwIGpZ6bXwxMlLJQJoMCanBAApA37S/QFOLmxN8fLInXw3BH61eLUuvOZW6JDPnAEmNw7vDD6ZVIV22baV7h81RM1zIzDzIOx1GcSCrEUz2/zTI9/yiL4JtNryxD/99AtggoemNWOyU0zjZPfDrEFuI6uRNzAg9MDU4JzdYy9AcoJBRiIX9gEFrvI1BEgz2dCSJZxJh7J4yBUKyCBctPpRb9WYaRbMybBEHMccOFkYIznpFWMnQcPyrqlhJtC5cw0WaXsiEYqzmsGo42aiR1+vyOEDPxrkIyz10rbbD6OEyPZibK3itji8t3oFAWD+tpwhFOBqt+xlYVuciO32Akwpx+5c65vCPbzn25A3op8U1tl1I85/1MH49dTxnDdkPNXRpaFVGMJvt8NvPKZmTRrpwdGXacf2jcM8wzYBvIKQh0CoXZDofVfmgPO/GUIbElGECglCRa8muRjBIzCp4R+eg3mToW8LoD0H/7OFNZncv6+NhM3XMbsQ2thyuwOu8UYtOnMbkXA21NW4zMEjt8AbYkRSNVuX3XiXZn67HKUjTLEiMtZwH7TL5opbh1+sQ3bfAf7GVF2T0qTJz6hdu1bqfdxhahSr1qyP/qb4ynlqX0jn8CbN3rIMSpjF+LOY47JNUuM9j1Hnnfcm1MpRZZVDuWxoDD/NB+heW1sV9oNVVmEUEtlqXMBYvJRuL5V/3ivGF2wHYfXp4cd05LHH6oBdu3Mtq4GM09m/WA20SCY1iZzZw1NeYySACMQyb+39JC3btVS5n3mKBp7aCxIhlz7HRZZQSIxMVyKizB8e+rM9Orii6fNW6DI8Z4NdkFdPle8dZiXIRO61a0fdc93lamKemfZ2kxz2+powdsTN3pdlljnHAV8zi7OMjXCNudnjjuSHazjveSfgqef+8ZzvQklHVX1xp42nJ5ehWNNgtnu3Fpo4+goVJpA5xuzVOuuHsctelefnIVtGkE5PlLP1bbhfwNJ6Yb0yToSLuadhhZlbtzhox9L200F7If5N4fIlORXz4oo7RQEq+eyu6hDU0k3REqw3+FlJsxC4LDMBojvedZIxze+iolIt+GGJftxUygZOlsIRqGaN89WlU3t169qZJfGkEiiMMcyKEhTEimNQ4nedlYyJ1dDe/EXL9f2SVdpIm0kK0nKzYyhunrp3214dWuMCs8Ljlas4L6asBN6Gj18Ck6fMrAKBsBe0bRGtQTFcUOaNp1bYZctXsaFyo1av3aByVnU8SIN2Fitlhfl5atG4kbp16cpyfl6wjrY+WRC+jrqQLJtL082C5N/8S2NNLYRp+knQFmlOrSqr04Brb9Pa4rLQfrCUIc8C25l302ZN9NjtV6t9U6+OQAuPFSZzawiXklYIlMUKFoAJpfUicgWCb28lBZJWkm9w6UEOXoOVx7kPLxGHPAbXmbYpBLUcD+Tbb79n3mtUXU1FMnyOQ8PWLZtqO1avOrRrKRwW5uh5RgpntbFwRXu3IqNk6rrmx7+LSehfMuIufUORpWlrYHLIasW0UubHy3XvLVeqx7Ydw0bfxx9/Vu1ZMevV6wAV5iVVvPoHffX+W+reRCpkybyiqkwJNvwa2MO+OjopqsnRmtxO2ve4M1RLZXlFZQU1TE5+oyLQ2nVNrCKgQBQf2sPBQ6koQ35zyME0omHaMN0Drbi2qLJK9z78uE474Sjt0r1boDkcswNL+3E99Nw7mvLiW7RH8pu5M3lkCMME+DlUuvSCP+rMYw4CdE2ByLbboHnzRzYJ9DjXx6FFAv5aBl0++daMuRp+66PwAa/SbVoWfQc0yo6V6+B9uur2qy9Tng1FPTAl3ChTs84Z7sNHbt1UQcEm8ppDvqxJPgDtltCjLAyv200ZQOGrf9mhAib0NuHp8AlPKJXNIkLQiwhU5HwfPDtkr84aN4ySDvJdwVgx/io6XLriRy1YuEhr1kfya9NekJtAXjpqlx26hDwfQ6Ifz9ngbAPnHn38t4EJQUX4DEx2r21hMRaa8tY0/eXND7QeJQpZf4SvEOb2PvJgXfTH48IGwVomDzxo7sLlevGVv+nLr+aprKImTCIMxEht5YC49gaOP+pQnX7MwWqEsGWDglnE6lbcOixfNRPfWF2j9/7+GW29qXXEwZWsGqQzuZEiJipgYkVw23dGgM774wnatUsH5SIkIQ3KPi33+Y/AFLhpWAh8NUAApsxzPas5n82aq+lfzGfcc1WD9TYQ1FqwTVCUyWw041zwl0sew8Vv7Vo3U69D99PRB+2jjk3zlY2nZqviAjw6R4ANRl4NqtPXC1fr3kefVSk77LkglAusWLMBYXFVNERGiPwzDYBzKwCXpXbUxeTEvGJlNxzBYqk8A2h037azrr7kNDWBBzHUwN2l0B58Jv0ZPr3w9ofaWFIRlBETqiYFuTrl6IN01gmHYRftYXorQkLLAd9nX3lHH86Yo00kQe3HpNgNmoRXdYB9drb5VaftCCfPOq239t95e3wFeEVYZPWxEfAIEL8g5J5DCBn4bi1KcuHwO7V4dREKlM3EDGg2GPARRW7eKKYHb71GnaHhy6+9Rh1Xuc494wwEmMR5ZRmhbFrL5sxS6YK/q2V2pQrIv9kTMUhzEZ44spndVLNWkNvpO1gZEuylKGUETFh0LyZw6cZNKzRz9vvq0WM3NW/SnhEUqArAriIiaNqUPXqMpxpZs1ceh68/srp198P36YK+fTF6bXXP/Y9o7tLVqsxqpB/XV6mi3MGf+Wuv0UBCJ1h1R+BNGheocRMKYuGEvfI6wiYrcxPCoIvPPU377bgNxgFgDUrqDbRx/fm9zzSeyus0K5eBlFwf0QkxSW3SsYfurJsGXag8A4stEJS2sttS2jddur5Ijz73tr6Y/Q0JdMJc5uEWvDLYrUtH9T/raO3cpTPjY6yWyRD6QEuus2F64W8fasxDU6OSDguG58MRcatGxx68B9tZ+gYnohQD9s4nX+nlN9/XkqUroZmjIVZRmatlPoPMZMGn1i0b6+hD99dpvY9QMxwY/IhA56B4bpzP/7rHxEAtmmkDkydn5GYyK3kMwsAb79bCVSUoBrE1SmpFiVN4tVWzbP3nwxMAlUzYGf3MS++wOjAN8ELAEfLAPEYRLAFtOaSwtYbEtF+j7ixhXnXpWdplmzZMnHRpMhsrGNO0mXP12HNvEvuv4jsSnaC08zB2Cy1wsThuMZbQ7qvROA8qn3PSYTrvhMNVaHBAGcP8reEcDQAVQjdA1TvfvZz9zeK1mvr6e5pOIaAfO5HILQxCkXLMTtumoAEh2ioB02CklTENOKAa6Id/16ox7sSFpx2jE48+RPkwPhsa+m5u5BYqhmn1xrsm6/WP55JWAFztDQYPwmNzxa5FCZlAqqJNlv6e7mzlnb8Iymjlt7fBNeRn/jJpjLZu7k2XBglHiWltYlx9B9+kFRsqAVZAkYI7K0Yca7dj5xbkrK4gVyAtZ1Pt86/+TS+//Z5KQTPzNU2ZYwxv1GFkBkWLQjwMFGfY6oky1elUwO1i5tkIL8zbSByWO6S39+Qrg3WEvp790qJytkrcodVFFYF//DBB4J9FuUatUOCn7h+thd/M0Ucff6BBlwzA2GGUavAj8PBqK0qVIOc056MXlCxfqXaEYDmWEehhx9FVz7XZhZq1qEy9zhmkWKNWeAxVAFMSeSS8xTiZ33+f+Re13zqpVT8uJzfVSLtsfwjJ8w7kZeKATAXeJCGLPQoAI0kuymo5a9FCvf7qG7ry/AuhZbEuGjmWwDMHvuPVQGfFASfuCQAC46zPuJkhvHbEYfD0PD1Thzjer3bGib10ZZ+TAIjIa+YCPMWYHnvpr3rgT69jiQAm7kDgonb5FK8tZgNvLw05lxokPju/5GtsnOKEspXIwpQ3PtDdT73BamMOMgAXgreIXFrP0lU6/6R9WP08U3kWKA/UwmJeIFt1tPfYi2/r/mffJFStDyWNbD7QL2+6PvOEI3XhH3tr9uzvdN/k/9RCCkvFil+GVERUKR7x1QY16cUbgM2ZxGzu32mb1ho2oI926NTOaGBM5QzyZA/K3uE/OX4ZykFIb4cISGn61NEJqLv4x/Xqf/0dWlNMkRkC7AIuA1MSNN9u65a6e9xw/fDDYt394BNatGJjcEkzcQTczKa1YLa4I1JSKzavenCykG3XsYVuvW6A2rVogmBVA0iv6eV3/o5FK6AvPB+vJhiNPaEwMzOHZhmHldKUTgByeRSSDTnvP4LyZAMODZGqQamBCGF5FcGvw+L/+Y2P9eiUN1VC+XUgsAUtlPG7L3MvOhpAzVS1oWIwYVqeB9xFMQExKoNzufeME4/U+af3BhydcPR4UVoErZJLLyBsm7OUWhPnW3wfChzRx23W94eS+4hmyLfca1rRAfNlfAYhPKNE7SY9PfFm7bp1cy6KvDnnaTby2ItTLr5BxRWmN+MN9AHIyT/t1LWlHhhzhdYsX6Yb7ntRC/ECNoeboV/3TX+xKnfMe+ez4CHtWrn8chXysb121+CLz1EjjFEeLxsB8yLMFhlyvqOO9has3qAB192jdZsq2b+FUnsVC6G17MTItwy86Ez9Yf/ueuzhR3XxBefgnbSGj3CYrh1y1FRUqKZkkxrl1+mLj15Rs9pyNSfvlIOSg0541TWqRNyXrEurze691G7HfVlZqguPCfFSuPlfWbtOs+a9qr0OaE+7XF+cq8Xf15Dg7qnWrbdWZWUNoV0FHnyzkBwP+sq9+ON6562/Kka4fcwpx2ji82/rWQCkrs4eO+RJOJ/HfEyfIA+mV8Q109SCEvTfNGTOyXS5evfaTaMGnRs8B/SSa5gDdLrn6Zf01MsfQWbkAp6ZBwY0iAqfizSo7/Hqd9JRIffqHJO7sUqYTlXo58SnpurpVz8NPAhgaZmJkBJe1OiyM3qp7yknQDcbUoOq++YHwFKNXt3z9FQ99co0ZbId2nKe8dIC4wGYoPfZp5+qBNXuU59/BXrDZ+/FY+42kNEskS/mw5R9V6BCBqNg3Y7XlqlN46TuHzdCHVs1I+3DGCCP850/6RXj+dnxS2BiUCksuVsOAgKipohHv1u5Shdfd2ekwBDPg/EE46Dx7j120jFHHaSJEx/WJpteVl9SeDZcEIgTNhJyh61pIBr3RkxzP9hZV91Wl+oUdi73Oe1Y3XbXI5o+az5eBfFu2tae++BCzJxAoA1yETiB1o6gAzjRl4lQV6HWLGneM5pisA7NCUFQGKjVAEqeu4lXjc8+f9mPGjLyTq0rpzVyEwZNOELbdtMtHFz4syMSMn/hd762/noz2jTjc4ZiQD+75vrB5+nw/XYL8X1YaePsRsK3fleN15L1DhkQOATK87cAoKVc0XBEbXucPgIgeN5mOBbGnolBOBuP6cVJ4/GY6q0c47U7vQqQ7X3uVVRdF0J/xsW87DGZPrvvuo2OP3xfTXrkSa2pahpCcntGYQjMIwAgHcfiDghRDkDN2xysfA3AlHbtULJWl19wqk75wwGsmqF08NrXNgCTQddV27MBvgHD7wEs4AEeUApD5zxEFgDeqU0z3T/hWr358utq06KZjjr8IObF7ExKaFNKrsgsKMjOUzVhXQoFnf3eK2qXVaUCDGKmhlwj2mDvsyq7mVYm2mjfo0/Xpiq2sZJjigxTSt8vna7iym/UpjMcshdV11YL5lSo+3YHk8dqhkjiLaFEZaUVbGvhuUW2+MzEnoxB6/6JD+rMc89UJq+RBl1/F14XhgXNihTRoORXw+HBM2zTK8iPlRtDgszaiJ994kEa2tfFpJEiWxhd0zj6gWf08vtfQkN7zvWKbYOCZ5asK9WIy87UfxxxAPdZBiAK/2PoppPaldB+9H2T9NqH3/J1w3gapNUcqdEISjJOObwnOS74gEyERSqPEY+xmltG3/e4XvmAurAkMuPG4YN/hb2E8LdZk6batLE4+toGyMhisbVX7fn64nAEaQ6fInDmMzLuerXdtm+n8cMuxVuHBxAv5EZNxH9y/BKYLFD8c8sGpgzJy2o8j7mLFwNM92KhUOCo2zCBFIne5li5yooScjJ2bSnh8looh70Iu//RmBFwiGaUbTgixqFMKJ1zCoUUz7Vs1kLLlq7ATcwPBXCuJXECMEiBb2RMZmb0HBjnXOrP+WvCIgOQUfyUIw/Qdf14ds3PUDmEkjRhElaQN3pj2kyNuecJ6mvY5W7rxJngxQXvhC6jgfO9D99l8jcw3qBIp6ZrACXCXwTJSU1VrVfP3TrrtpFXqMD9c4lhbh15iYuuHqdl6ysAbsbpMwBGsIxY3wYehRUzgx5dBkDxG/MEGhmEHVonMAitChN65t6RatuI/FKwjqzK0NGiDTUUy11HIhNPivss6AZAh9AuJEzX1WpTUQkC7nI7BJXkuVeVfEQLAu7PPDS/+O0JBGNgftIHSV+Pvh3G9d5RV2i7toUABJcEj8n5NSuDcytxzViwRJcOZ7UJDzEAJEOxBY+zBH3VwD7an9W4Jx59XEOHDCI0ZIkfg2EArGGhoJS9bo0asxppBaTHKqq0a0pW6Ku/PaeOebVqRW4tiWwwNVXnNtGXa1M6ut+VKq8G3EIozaAA249nTlXn7XOVX1ihsqpqrVqcJoTcU+1b7hy47hKCOOBUjVHxil4hizNpgB8hZNxUes/7Vp98OkMXnNtPU175qx76z5eICBzu8rI8wEN+mHi8tQFBMvAMTQOoC539nhnUbtTVpCzOOqIneTK479t4+SEwV427Xx/NWsT1yI/lj5PBKBCuZaVKNWF4fx22V3fmxWTpx+x2NGOAKOf+4bffpw9mLuUd95t3ZqHbD/ynSPeq83XEPjsrB9oamFw5bgPnlIjzx9eOn0hJx0LmRXW+/1nnwkFAyvuwkMR1jjY8X/cf5uc3dOb3/h10gk9+7+SF85VpR060kZ3ZpCvOP0mnHr638rOo3A/55jDI0NPPf/wSmCCKi7TcT9i4SCe1KNFn3y7UgJvui5YzTTgmGJQGxXOYYsUIXVg4LZhISwzhywrLenbrsabOEZHvCMQzuLgTKxyuacgZOW8EiocEr4lhT4otCxbkKJRhfs4xMdHwQjnjdqfdTP1Bsww8pq3bNtHjoy+nEI8NsMGjqVcyLvY11LORIJ6meya/SAIY19wAQg7GBX/JOpKy7Epv1661tu3aRU2aNFZhAYJLiLBiXbFmfzNfK1euhS71RDcYYjlC2GjrSDuNsmso4b+SLQCdaBOaQqNSQHXAsDH6dtFKvAfoQS4gA5Dbu7T+h9IIj8/qwhehOBAvJ2CSiUvoEpaJoW+S7w/eu4duvuZ8NoxaCAwGrklBkRatU78rx5AIbhZ4GXb6B57RLolzy5wBPLTF9zF2rju0yobeoSoZK21lr8tghEgmB8DHwLhaPShMffI9AX8vPfs49Tv5D8olOW66Gpw8VPPfq00ffvW9rrh5IklVh/+WK4ArVaYuoNrE8cP01uvvaHsWLPbfc3erCWOhEfouLt+o3MK8EFol60isktN0iqG6aK1KVn+vFV9+pK6NWXGq3oRXjNeBkH+xplJH9RuqstosVqTyWbVNamPxSs2c/7x226sN867UutWoS2kndWyzixrxyNpcvLG4F0kYm8OKkk20lx2HFoAVfKllyNUo8m0T7lCfPudjxLI1cMStWsfD7+zNM6kwpwBAzDkLecyQA4P4QSJ9OmA7QNcoK6U7Rg3TXtshE8zVps1cq+CCi6+boK++W83FKDE88X3O45pZrnR/kO0g++7Y2aIdjlB9jRxYp4rYzmJgm/HNGu41UNqYQETrJHLp3OLDtwzSnt1YJWOMmxcOmK/BqZLOLrl6tOYuKYJneSZF4B8DoC8rlMcTYIhzlktGTfOJjLf+1KqqCgxI5CNByK67Znah+3CfgZnP8CdVWUw+uRlzuVbNWXENez/d2T85fgFMJkp43CYXRzUnJBeZ7PuffauhbJ1Is0nQga2BMkCLqR7ogFihaHbhE7jprUjI/qHn3urWoTUxeR3W4GvCs7msztk6m2kWYE8aK8wsHC5k0nwXgM3L7VjcGlKNANt+u3fXPrvvrCbU5S9dtUFvfzhTK7zK43IADwQihabCLwjP935MxOTbhmmXrdsQ06LceGq2LvTELWx8xNq8zErImHsnI2xRKNQ4P649dt5WR+7fQ7vuuJ2aU21sl9MvextJEuqV9FXEloeXSJY/+fwbqqFS1/mdkCuy8tv9pv04+YRbR/TXETwmIo71t2Wtw4rP+Po7zZgzLzDR5RGfz1mo71mpS1MvEiEQ8wkJW8AeYd59p63DaoqtWBoFsYcIi8llxXX4gftSdtE2JBit1HSOYGXpQx5dccVNE3HLeRIifcQRICNNhtRpxqt/jC+M14ILuLRvU6jDe+6lXXfaFkXN0jrKMT6a9ommffEd+YemKBbzQ6l9T/DYaCnkKVj92alzW3JWQ9QyD24a8YKSG6i92pTUa9Nm68Y7HweYnCukP0KVOE9DPL13T11y7qm6ceRojR91PVsnDJSAJHQuXr+O3GKpWm7VhilRwZ3KB5gIObziiBeVj7KtXTRH61hl26qRSw7YKpLmgXQlhIf7kdtrvT3AnwvwJPXV3PdU0GalWrZKqITVtPWrCwkpTkJWCS4YRyF5pRjKHYAauvhxtBs3biT31BqeMCf0xq/pMz/TnO8X6lRWDG+/9wn9bRrPLSLRbAU0b0NKATlrXJDW8UfiESHLvi94JnjyeYRfXTu006EH7AVAsYvNtIAnDsUogNCZA2/W4rX2fZADxsFJ7gfE6SA7U6bHbrtGu3buEKDCPYYcHe0asNfxDKbLbvSmYgq66qMVmM684AfJ6ASrn89NvE5deHqlN0ojhvThS9FW948u9Bl4Pf1X0Z4XZTgZxmDFxuRB9yQP8UtjsG3kvIK+3x676mBSFS2b5mKwM/py3kq9+t5HKmKjdSyGx4kxCfVu9Gc0TUGMJOF5vHq9Jlw/SIfuvhNyS/P/FjChbC+9+6lGPejlTAOT6RYhKLrAB+aB9fB32TwErPcRe7M6doQ6tyoMqw9ebS/lnpffn66Jj09FKZ2janA5EUYrDQRw/sQU8+TjJDe3IlE2qO8ZOmCPbmH51+dca7ORkOi60fdowcr1gZAmcvTiDUSwHTIwjRt6ASCzWyjFNysNTPZHrKRpwoMv5qHAI29VNo/L6ImS92ZbxHasHOTCubCyFBhoJXT7USewmRAzrUpA+Iqb7tHXP6wJiWz8au4xwNr60hteweB+J+nc4w8DGB1OeVQk3INHiHhgdbzOdvujz+hVaJsSdVgWxkBch69YXwBl8IUn6/SjDqHXSOY8CrcVI4ROerqAcBxPKgImP/g/Sy++/5lu8SMwSGRab7ylIfRvUArJWpLPAE0+XtBRbA7u88cT1ZY9UMhbOOzdlZBbefqld/Xk1Hcxwg7fHcYZ3BBQaOH3TnXk8jTKZ+6/WV2oI/MjYHE/grAZmKoBpmde+5AnM76IEnslFzJCtzxWU+8aNZiCxUrN/3aBzjntJB5c5pxODbSv1ZvPPc7jS/Ai8WZ22u1gVs86IdgACxt2GzVlvx2GsbpotVbM/0A1K79mm4YFnm0dNbmqab69ttvrDyRnWZzJqtBb7z6unkdshX4mteT7EvXY6UhWElvh2RRAY+q9qiooF2gaTZyfpnsl5QbmREFBobuCV3WEhzUac/sEDR85Up98Pkcjb5/EBmMMWuC5CRd53F06NNajd41QI4syVEL0g+i4fsxPEmDJDOzG0+OzacgnbQJMTjjvKm2scrQBP4MccKNlGWBpmpcCmK7mgXqtIKGF0aS0pwsg8241T6Xoz8rn4nXwOQAT99UDk5/7FQeY3pg8Xm15fI5l1N410+OaCJg2AGx9Bo5k5Z0w3cDkk37ZICMzCXv3OAlxHha3bceWuuKis7TXjl0gFnLk1XIA3N7SnB9WaPSdD2n5Wmr+vLUmjkFknMFTJlR22ieHRZW+pxyhS884LtTE/cvAFArFgvAyeZTNNTvVWLlnWFa+ix3iGZgRwq5AIIs9LwTSoJQDMS468zjqkiiOS6LC3GurEwfVaxHSMoTyKnZlfz5vUUg2W8gty156DXUVIX52ArtcO2CJrxt0sXbEymTDKFcwe/nez5B2iPDFN9/r0hvuQgDrhcqERmHigIqtXjYrCYPO6a0+J/4hFLUFT6wemOwGp6lf8XOOl67dqDxyCoUFBSylIiYwO3ogPpKFDESYBDMNnMyH2QRBc/3PQ6wcTn7xPeJye1worseA5fZNBqYhANPZvXsR1wfx5HtibqxTLGVBJiWJBRk58THKB77ihmb1AmmCOIZnqZXcwmhyA0fv1wNawmArNm0b1EKOgja8rSWGJ4dIIxquNwMMXmfpePIrIexmSIF2VrQMIZj7deiWZHyXn30yCw6HEe87ZwVVaQeGhf4rEXACZV056kHNxKvzKqLH5T5s5EKRKIYkTmL25qHn6bgDezBnBDUAk6/yUxGTenDK65r053cwaN58yr1835EHlt0/dqjefOV19Txgfx490iHQvQ5hqNm0VJ+/M1n77rGNylg5XbyyHDCnwLPbnmrRdhtCy2YhdxW2UhQv11fTXlXjih/VBrJXkuxfUpavfY7ro3hhrn4s/kaLl3+oLts30ZxZG9Rj5xPUtFEb6swAPQA8Bq/KyFt53vn5jA+aN7w2Fm3EY27JmC1X0AQAeWTyEzr4MOSJv+xyybAJ+rHS8/E90I13zpsd0KOz7rphIF6dy2c5a+W22TBA8M7AkoYPlgB/9rfggY45ewghXSNXaSAH7s8X+D529gPSj467Up0pdI3+iIDvtUFPIcOU8pRU8Ez1W7XWNY6bgYn7LZP2dii6ff+5u6l3A6yDLFqOLUseW0wriqt00VVjeL4UekGqxTwKgMI762gojKzbpN132Eo3XXmxOrDYEsp6wAmehYm+WCeorod+b06fpZvvncJzuPBEMX5eSWbQ9bLnRZtK7bFjJ91/40Dyr5Ylj+SXxy9COaeineC1kjk+tZJXg4r3PPFnHl8xjQjMdRYQzOe50s91dlGVq1MH9jtNJx95EJYYu8133ihI5oJrcFABpRREe/K193Xvsy+hlA4pWIHwgpCbMW+pecjKqguPAB1/zWXaqrBAuRYixh72KtGQw8waQKGS8PD0gaO1sshhEkfD/GjLRxJLftk5R+u8k49hidQJSYhnwKWzkK/CFLqiPDwXh3tt+VwUGLwerrYH5yYtqE6aGwzCyh79+jsXgE59/1ONe/B5vAHH5QhTkCfyAhxbAFM4YYFEcb1cjrdmAKgir3XxDbdr1sJ1CKBXY0x7/wMoYHRuqlh3jrxcB/YgNLFywMhgfUx5CBbGF35yymEW7yvrAfOx598Nq5r2Dq0APud3FvosvNpLzztZZx7dK3iHTlxHyc5IIdyuvSL/5Y6/fjpX141/QHUsEITKbThq5gePF/pZGS/4j0N08R+PR0ShYT2tmBrLygmNe+gZvfjWDNKKhJXwxmHlAXtuq1uu7a9bR48jlLsWg4aXQLjrPMQn7z+jbVuuVdMCnguEDFVTmlJF2PXt3NVs0u2kbbv3VFNCtRQeegJeFK9Zqe9mvKUO2et4UmW+5pNn2u+Efq5y1CdfvKjuOzfmEScrqdInhMrZXi1b8OwmVhS9NhgjfK5FaUs2lfCXRFoFvpp3lvmSkhI1Js/oJW0fBuL3PvyY0gOqoA87hJXGCZq9uCjIZghvmVxWplJ/2Gc73XIVhZDOrSJv1qUQDQQOWDiRYXhkj9yJBdfSLdtYrtMGjIBerrq2LEZKEelhHcWnjfQo+cp27HIwuy0DlldztAqdWrJ+k/rwyJTy8BgWxksbYeUO5XKhbysM7yuP3UxtHfznPuu4owDniO0df0vkcRke14YKRkR0FEAPI206hI3QLPfvyR8zuGHIhWrfvBHjtn+EPlme4DcIxFhcsMwzs2qydQFba+YtLsH4GeAMTB6zoyRklnzXdh1aaNLYIWpB0eW/DEx2Lg08AZhQaANGKT9G3/uo3vr7fM5SVMV5n7AihTCBUOGPvQ/Q4HNPirwbiJGFu+pEbK0VHGLkYjGc9Hb+Y/DYe1RLcRaJB2MRTUGlABi1hGxpTcIV7tSskbKJabNynZuwn4L3ZcmGkd4yYnS+ctwkffLVosAsMywcnGOAARiuuOhknXUsygejLYjRimCkojTHf1/I9b6X9tCD8NvwECSOfn0yMMHnfNh95XsXZv7l/U+o1p0aVmiClWGeUT1R1L9DuXPsMdGTk4amrG2sk4c+ivEULxpxj+YtKwkufng2jvtjjnbB89ObcOGHaSeSw2EbA/1GwBSmGH6E9jxC84o+nMa+bdILev7NvzMuP/jfQmMgsYLxonbopKP31eC+J/Hw/2hbRBhMmDK08W++iP6SB0/WLKvWaZeMwKrDd9zxwG9ogCmCbygYCxBHH7wrtTnn4BlGnpxzF+6xivEMv/1hvTt9Hqk3ilYN7tRAnUkR7LmnHKk/PT5ZgwYOwL03sNIm97/83K068oACDMuPgd/21KqoD0skGrNSVwjIlBBKN1f7TrupsOnWrKC1VHnRKs1670/q1DJfy9cUq8u+x6mwYxfyQi/zpADGkm6trlvzZ48SLcOqWxO295gf3m7hMRXhHTVrhscaLD8jRxZqeNyMQauwkCdkY1TN16UrV+nVt97Wef3O022P/FmvvPsFNLDBc1rCK4SVOvWwHhrW/0wSu5EeWcAalC8K0y13SCNNGiSc4/l2+TqdP3QMj7dF1k39sELKBfDLRrQbNX4Ps7O/pfcD8d95KVOYwQMHbABeuVH9Lr+J7TI4DXjjlok0BihBnjZNTq5Dq+Z68YHrMUIeC7JHm5uBCcCdyWLMoOvv5rlXPGSOeYaEOeMPe+6YU/vmebp71FXati01SGi1DZwfAOh5eXeIPV1HA442qDDThGfe1JRXP0KGyScamCxUyE7wstHFVk2y9NStQ9WBHG4DbYIM/uzHLzymzcDkvpiAP+PsImAT9dFMQjATj7DMSTHHuK75iWMpxl59gY5gOZMLQrY91OjQUdjgyMADCBDnz/xuJV7CeKVyACYS4S6eTTu5YaEmmbojIdzDtw2hUNJCTNtU4YbHMLgFJmiEt5x468B1d/5J789YYIxkPPWz4pzpYI/l+iv76PiD9qItKycXofAGIIuGidsgKAF/HCP5xeFZR+0ZDoMIWAyw0gAAlxhX/KCvSVPf0aT/fDe45qaVwSkCv6j/YZeewcPj9yOn4pui5kMCGOb6mdXrK/hbXSPv1fylZbRr8DKVbEcZK9amkIeDPf/QKJa1XY9keGyYZqCmh0qj0bcGIIMWdeu6nmTzXz/9Jnh1m4EpKCGOOUbk5ivOJfTqjqJG9wZliBqLpu33JgG0KiGndwHWdN5KPBjCaCf1zXdMDf1ZiKt1VM9dNOryc9nkgcDTApwMilGKbg4de59mzF4CjQh3mV08VaKhA85ib9xW+nTaNJ1z1lkkQZEZaCLk6LWp43XofuQmkboU8pFgWb6G6u8kqzgGhzgrqJWVCfZoVWpjRZ46dttLnbrsrA0rlmvuBy+osBGjaLatEs1d1b0WNSnRrrscz99mI0xiPuVlbHNhn6OfPmBRiEG/akoIvEBTQDjfoCjONW3aFAGW93xadtZs2KCnn3teFw/orydfeFuPP8t+Obw8hz8+nyR06XPCgaQQjg8rwZZbt2868oPZm0f21KN9jfaa7LVPn7tIg8lXVqFboaRlMzD5Xv70UrcOeuBmyinYlgR6QltDD23y38D02ferNODqWwhLWIgJaQKLhQ050Qz3d992G00ee3nwjmFeGIc5z2BQO3ZYsOJ+xU0PkLIhp0Z7XkLxQkfYOYEO7rhNW55eOVSNkbEkABSMrFdmmZuzLzUkOy27iVqKr5nblHc/0e3kklMp10RZL5AX44X5Rw1c45y0nppwtbq2a7OZ3h7Oz49fAhMTMei4lN7hky3KRlzPK8bdry++Xsq9MCEoNddwbcJuHLmQ+0ZfqYO6d2EQHEzWv0My1wqDK2IgSQNoM+YvYQXhjrBZ0PFwjKXONDG+74hjGffZuYvuvLE/TOB+kqExkrv2BHx4ks4z2f2tRtGG3/EU+7soKrPihwv4HYiNb4ZSj7v2Ah20R3flQzQX4rkFKyH8DJbKAhO8JOZqiHV47rbKGNOSFWu1DAu5du069o9VkiSt4QFkZVhRYANPwfNZyt/xWrR8PV2iNNDC42PSoZ8k4dLYay7WYXvugBdpOtljCT3z27kFHuVBbH/hsDu0aoPv4wu+D8DEHAybTdgL+Mrk28LSqke9uSSjXtCjO8KgI17xhTfvDh51rz6du4Ix2mLZcoe7Q5sJtjfcecNgHbzbNgBTRA8LWvDEaDcMwyNhqE5Us11Q106YpHfxTNNYvTj7oFzNmybv6Hn74W5HHNBd467sS7jOooWniHD7QWgboePQWx6gDmgFM3OoanqXagx8acrGqaWLFuuUEwANhN15jNKSpfps2hPafzfqogj5MmkS5shMNcvMBQUGPGQN2ljAyyqgdrwxeaQarS1io3GbnTFAFZpOuJXdYmulCprTW6VOPu5o7ttKpWWbKBJkdQ8vyCusBaQJgnojqzY0Dt0akuD2nAxUpaXFwZNi1EGxNlKB/tDjT+iyywfhLf1ddz04FXnh+dqBFjgFztudewx/YulICk4tD/X/Ak3oxPyFwNFTH2x4o1W1dz6bp+G3PQrIFEAHe2wO5SzzyAH07tljW90x4tLwZ5eihwiiLzaEtFuDHrw7+3tdM/o+9Mj1QqY/9zIHf4gRdfTcp4fuvgb++CuoEr73QOC3R/nOF/M0bOxjeFwsCCC/wUgyNueGU9Bhvz220+3D4Fn4DuOD/Hs1cDMw2f1jMF7kcWHpG2ztGnH3E6yUAkyM07oRPHbm5EevFGTV6Mlbr+YZT21oKwzKA9vi+AUwGZeCgtKgVxHSSNg6Qo7+Nz+o775fGUgdOgIZQ2wNo7Mo8Zpy383aaauf3GH30mB9LOUGOCfqPmBTrxPgaSp1rQRhDxhuofd4JbAIh+y7k269+vzgMfmRDHZRohgdgjkk4+XyhTIGOWTMJBKz35t/HFZlK78FjUADIX2Mv7yxI7vWvVTruNiXRZ5SJHgO74iSUb601vAnmT/6/CuK8b7U1/OX8jQBkoaEo04u2wuyygbMCX24nyAB4fsA5O7ZkgLzPAZ7bPcC1gd274yS0XeDoFnomJfzZIvIDVw07Hat38R3YZnWDPTtCB5Jy2Y5VXrz6bsBVquG2/cYwmR9VTjCKGjPzwHyBDdhyc7Hei5YQnUyZRkGy1D+AR29XTmrrpiH2g/jwfSd4Jtvidr8ebseg59hBJ6yMx+v59ZH9P5cF98RGoLINhje0R4So9TsHLHfjhoHz1yWYXuLtqJ8YgNvjQbeMFHfL9vItaYZMsVKzZ0jLmR7Q6V+pJL4JOe5CIztRSxfNluL5r6ivbvzMDK8jziFnA4tqmtKwvO7TRz7HRBBZeVUf+fhIRDqVVC3tK6EXIkNZ6KFvvp2hXKat9NBhx6j775bohWEd/xlAl12ybk82SJPm4rXq2lzb+OBt/DXslNUVKTm/o7DtLDH5BCveYsWwdOyDPgJEw9PmqxL+l/CJtZZ/NXaZznnmjp0AflKkBO8Ac/xpIP3D8DU0NY/0tYSkuWcIKDjwtOp732hMfc9h7Lbq/RZCE+b4ajZpOMP3VM3DDoPOqHkeLkGj/CscHIatQDEix/N0pgHGIvlxtcwHxsC63ISL9R/T27sZacDClGT/ulw1S/Lz5/f+4pnsj8Vas3sCLAEh/xZCjAmyMFxh++ukQNOI7Vgb4lGPF/TjvvNDvPa+mXvrJYc6ttfkpfkb9zVpQHaACieEblmxhdnVa4xq4xP8DTM/xsw/R8AAAD//zuVL6oAADzxSURBVO2dB5hV1dnv/6dMH4beRYqioGKNJSpGjSZiIxp7Q7EQO4oKWBE7iEqxV7DH2LtiwaBGJYoFFUFFpdcZps+ccn//tc8BVPJ9ee797mPuc904M+fsvddab/2/73rX2ttYlkPrHNmMlIlL2WxaiXRKWSW1oL5RJ10yQfPnV/oCd2c4X6BsLKlYtlnx5io9N2WcNqwoUjwe55aoy1gsFvWcyYZzjYrpqTff05WTHlA62TJci2WaFYslREPFM43ad49tdPGpR6mEMeJ0EzMt/MrSNp5NMV5KTZmEarMxDTpvnL6ev5ybPE6MMbg599k0PXnHaHXt0EaF9JWgHbf4U7g3nm5UczahhZW1euS5V/XiGzO0YnUTYxVCSzbwkUqbjxg0eHz3Hf7jHPzDYxYazG/+rGUmBJhIJFSQrdVt156rrXt1Q1K+n7ugLcY9Mb6k40l99v1inTz8etWmi+kfumhLl75RlkuvDiV6eNIoZBFGj9oH/rgnd6Cu0C6WSoe2NfR72GkX6odl6C5bCMn0GU9wDVrVSF+1unPMcG3Wo6uSpsn/PN46/ZrrdJB1XA3NWV0w5m698fFcZRNFiqVNf3PUJzQn0g3ap38/jR46SEW0CTpjpDT9zV9dq8Hnj9Gilc0MlITOlAoL07rxopPUtGqFVlTVau/+O6hY9UohpUXffKoV37+pLXtjXbEqaE4qw09jQ60KCrGtWAFjx4MO6+qbVVjaWo0Ya2VNo2rrs6pc1qhPPl+qR5+drp6b7aR+/X4LJUUqLI/RX1oHHThA5SWFWrViqdq2bQtNed3FtGLFCrVp0yan10j/K1cuV6s2bZE+B3JtaE7pnslTNGTIEL39yWyNGnefUuguEy/gOhxkVmvsiL9oz223UCIWNLNe2dqrCpBFFh03xYt039PTNGnK89hEKaaFl0BWxrzCaby5VkcesJvOPeEQFWWw4QT8W5cZ9IB9NiOfu555XTc/+GLQie3LvpLF6m2jiUydDjtgV114wp/x5LVHZL9ZRpAmP/+Obrr3SXzSdgjvyMp9u48Y+j38wN007PgDVJJpgh/7ajLYk43abKaDa6QYK6OmbFKvfjhLF904WY3N2As2HUOAGUaPJ6ApXaOWJWndP/YC9erUPuc/a+nKf8JH7DJrj58CkxDQPAxs0AVjtaISwTA4FhYMRhAZw8ELMjV67dHxalMAuKwHmLIAU4af5nhM9z35siY98NwaYIpj5BmAJo7As03VOu7QPXT6UQNVBiv283gSIeeAKYAYCrURVyO4Q067QksqG3PEG5jMShzFJlQSq9Nfb7lUndq0wggAWbkzAwyfuC+TSmnGF3N1030P6av5qwApuz8/GQQYN48oxyDhPqP/+GJkwsmgIPAO/wZD3+abssgmztgmvKIopVuuGaYtunUMgJpBYcawONesrBRynTHne50yfKyaE+W5/jwuB4pXqlFb9mqnu667AIeHfmTwUwDxraGFlZ/OoBOcFGQ7YNBZqmrAyAAmW07WxmRm0vVq3yKu2689Txt3bIukOO1/XPsxMAGcdgJkVZPK6KzLb9WMLxfggIWBlzwwWdaJdJ0GHby7Tj0Kw2WsGOP7Jw2z362s1FFnXqHqJgzSboHuEvFm3XjhYByuXkuXV+pP++yBwwFMyGP597P19SfPaeu+BchqFcMb0ovVVJdSsrhMTamsaqvqtbq6UUuWVStZDmhwPllQofq6pD76YKbaduyi5TV1aC+hbbbop1126A8wtQrsW/u23+rqarVu3Tpwn7GDw/+qVasCMHEyHGkAuLJylVoDYBlswOBeW1+vO+6+V6cMOUVT3/tUo2+YjN22wHasPsAGYLrlinO1Q+8e8MlJjp/L1paFNAIwpdWITCc99LLu+9tU5FtMC+wUVYWgz+d4qlZ/OXKATj50gApSTVLSYL0OMGErYx94Sg89+3bUBlsxMGWwY6s8ARCcfNQAnX7oPkhk7bEuMI1/6EXd87dXFCtqEezJ+o05mQCYEtkGnXTkH3XKn/dCTz8GJt+DcJRJ2IpIGrDBNIH9mXdn6rIJD2JD2J8BhSPon7vi2Xpt0L5U92KDnVqWo2db4c+PnwMTcgkZk1WL0mycc5ZV6ahzr1JdIwNZagYNR2E+JyC2bSmZ0N1XqVUycp78MHljzwuhPhPThMmP6OEX3sEZK0wtRhwBkzG+IFav047dT4MGIgQ7G2NnDck4nNmL4ywWQBpgWtWQ1r4njCTbAJXDgAgyAJOdTGpdIj0y8SK1rSgPGYuITgaTZmhIQfvMr+fr0msnYcT1OFERbXGcNABJbxnGzsJ7EmNTuklpspFEgut2ZWhMoIgUYJrFqEIm4PNBAW6LCqC5Q8ukbr/mPPVqj1NYXr7HPWCQZtzg+uZHX+rcKyYplawIBhyQ2OHF2QXAtPNWPTX+ktNUTJ95A8/LNHTGr7XARJ/IaUFtgw49+TzVpUrhiUhOf3lgimcb1aV1oe7AKLq1buFLa/p1f2v7diAhANDfisa0Bp19leYvc5bkKI5zOGMCSCzneHO1hp9+lP685w6YMU6OzhIYWyOO/c2KKh156mVkBS3g2Nk1jhZv0pgLjlMLHHfuvIU6+qB9QlaQIZpWV/6gj955Wlv2NZDUaDF2t3JVRlUrmlRQVKoWgElZizbq2LE7mUKRKtp31fdLV2jWrDlavGCltttqc7VrX6FXXn9GfTburm9nzlTfHhtru90GqKQMGaP3xkb4IqhVtKxQqplAgrcahFavXr0mY7KzNDc3q6ZmtVq2aq2UbREAWFm1OmRMp516qp5+412Nu5MsI1Nk+OA69pKpJMO9Un06tkYO65ctIg82kreDOuR47e1/0+MvvCsVlMC3AQERI3vgnT5rdf4ph+uwvXdSATOYANaYUhyAjfHTRPtRtz+ip1+bgX6codhHaIl9JkgEEulqDT3lEB23T/81wGQ/ybg9CkQUuvy2h/XM6/9UtqAcWdjv8BX7EiATQ78jTjtEh+y9K8DE7Mh+74AMg3lgypJU2MZpTAZboAde+bvG3f0k7lZGP8YQ80Qb+iyMNWmzXu11+5XD1CKXyHDDz45/CUw2eQOBM4IvlqzS4adfCjK28RiWSgAmSAPRG9S9XakeuvlSVRg5YXatgUfjRcAkJhLSNbfdryemvr8mY3IWJKeMVgLTn+GnHaE//35HFVowTLXWBSZPx3xfM0JfVpPSvoNHoBiyjUiVQTgeyyC3YYcWmnz9eaooLQECEAwAk/E0AANbuLJaZ117t77+dr7ihSVKkRUkEa6aG7kPpwOUysoL1aa8WDtus7l6duui1qT5FRUtUYwNTmpAOZdedatq6qPsiUE5UA/AlwB2enQsBZiGqXNFCWbL1CbcgHpyimrGUZ+f/pEuu+neAEw05A73ZeoBSEBkQP9tNPqsY1SYM6L1yta8GxQZtxlj/mrZKp0w9LIQRBzxAjA5A7NeMg3apGsr3XblOWpf5miGKmHI/Qa5mbFwWF7NaqS/r1fU6OghF5Oio3sDJsAcTxAZGdJ3J1JkCdcM12826RoCQJx73F8TNH/6/TINPne0UomW6DEHTGScFw45WNtt2ksvTZ2uk489GOBtAASdCdRpyp3j1aNLO5VSFmjbsas6duqtdEORWgJKWZzW5QBgSu/N/JSsiWk8HlJUFNcO22ymNq0qtHz5Un0w8121RK+79tlGUx9/SgmmDjvtvoc6dOmh2oaUSspb4jTYHPzZcRobG7GBlMrLy4McLAJ/r62tjqZyyMn6W7ZypSY/8KDOOutM3f/sa7r1/hdCVuDyQAyHS2Yr9eqDk9S+0EFs/bKlqwiY0LWDSh12MPzaezTtvS/IhjyVchBDskZM7D1JxnPNBSfpD7/pG+zY2XSYOiFfvEP1+Mh5N0zRmx/Mot88MHkMslm6MTBddt6JOnDnrbg/OgxK+QPT1wXj7tJrjJ9JlmFKHt1+hg0ATAmywMuHHqP9d90+TD9j6Clt0EQXMScuMJQxrQEvrJ+ELp70oF6Y/gl9RdNRX7P+g601VWn3Hfpo7PBTVRx8KW9zeYqiv/81MNlJYXzGt4s1ePjVEGBgstBIF+3IkO+UfMtenZgenKvy3EDrAyZnEgamkdfdrKnvf6lMoTMJDsbIkKlY9UmEMO7SM7TndigBZ/P0B+75iTKmAEwYUjPnv164UoeecYXShdSqrG2YN2gFJ+Vb354dddsVZ6qiGGUxRiz0Q70CTTyFQ1x7zxPc7Xm4DRToAoTjOE0cs2/bokDHHba/9t5tJ7XG6IvRcDrMuVG2oykyqCLaHnLicFU2oEAyJ9dwgqtyLUa207dHG91x3XlqXehoEtVcjLUGJisdMyZzfFPX3/k3eCCaB0A1MMEJRhUnEz3ywN9p2KADmSIQkwHCfwVMnhpmASYDyT+//l5nXzxOdU2uexQF+WUNTHQcYyq3Ra+Ounn0OWrj5JdjXWCKzvh3BEwN9PfM2//U1eMfJsvw1Ac9Jeq5ivkVUFtpalJJolEP3zqaDKyMaEg77kkgC4eb6Z/M0dmX3ah0QSvOG5jQJeB48p/76+g/7aubb5uikUNPBHgjYGrCERsrqUG0IJumzpFmGp9GnvXVKZUW4CRFCc1dskT/+OIzFZWXqa6qSr27dlOf7huoDHYRrj788lMytIyWL1mhgbsO0NLZc/T1By8CegVq13MT9ei7NZlWJxjHwdBpHFormcYZlAoLI6EYpOvq6pC3VFrmogJABR3zvv9BU994U4MGHatrbplC1jSTeEIb+orFG3G0Wr00ZYLaGRFo7NrkT0H/x8AUUx0O+5cLb9KnXy3BHhPontFC9DNoum5Vq5su+Yv69+sNSAAYAGoAJu6Lk6HUItfTr7xV7302j7HIuGiDsDmwMjKsJMA0gcDRf/Pu1l44DEzWuzNFe82JF43RR3OWAjjF9AHNZMTuxDIrYoTrLzxJu229GcCI7YYAYt9HdtDj2VyzgQn/ihOtakioBw2/Tl8trCa4RsDk5MJ2YbtPMDU98Yh9NeSwP6o4iIlf6zl+BkwZOyApYBbGDQRpnOT1mXN07lUTEQgOhJNBOUSD1zCYpD6w67abQPwQleUG+ikw0VlIGWvpc+jlExDidwGdoZP+EIKnHIyVSK/WbdcN146bdCP65ICJoqKnYBkMw4oxgDnbmDnnB504AqNPtuCcTSdoI3y2wHbot5FuumiIipM4isGA/h1jarn1lGGX6bMF1YAJjus4hFPbCF30K0imNfqc49R/u81U4lQ420Qr980N/oN8MskifbuyQceddbGqmqANY/ER8Y18muu0zaZddNvVw5CJo4+ByYbGGM6KkIdT8Lsee0G3PfwiM0jLNReluMMxK07R8sRDf68zDt8P44JoCupWLL+iH+uBr+Y8gBoW0oSxvfnxl7rgqpvVlC7FMeytGIWByY5CIXOr3gDTlQQRuwF6NNiE4j40+bAcAtAh/yrGveimO/X39+aSGXixgjEBItdlnNLHyOq27N1FE0edqZbIOcb0zHpKIrdG/r707ke6dOwd6KgCWWOkHoMMeZ8dN9Klw4ZozNiJGnHuadSmbPBIgDbVq2pVAejEzG+BbZEpKtOvxuoapnEtAKaFeu/zT0guCrVd336hbeeW7bCIQqbo9Xr5valq07OD5nw5V/v/dl+1iZdo7ozXtWjOl+gupaJ27bTtnvsoVtaOvlliaWYaV1mp9u0AT+wkDu1pikarV9eoFRmY5d6EfWAcenPaNKQm9d/tdxp66fV674uFSBdnDtlNIzUT6fFbKWkAkBQmAk+WZ1AUf0MmxAn7lmurnt7XIJcjz7hc3y+pQ3ZYGtesL5dKDBDlyQZNGHWGfsPUNOHZBSWFDLTE7R/YYjUoddJFN+qL75bR1m1sEejJOuf+ZHOlJk8crX7dqCl6bAzIU0BTY9CvbmzWqaMm6NM5C5G3a6wm2PqgOb5fkqzXDRefpp0224ippKdy1P3o3jQwIB+gN3wE4uBlxhff6vTLblJjshV1XFu+0xEDE/RAW2miQWMvOl279NsYCUGmQXg9x8+BKRgoxJtBBJMGIZ/8+4e6/MZ7MTAjKugIwRa8CUtka/TH322lUWeeQMEatuHop8DkqRGsqhJBnnzheM3+dglduD3MGOFxDqRMxK3XA6xC9enUOgCTmcmSxdBhEHpYicCZ6pHMtH9+pvOvgyZWMuzUdqtQA3E0IDP4/fab6urhQ+gzHrIvr4C4OLyoPq2DTxym2lQFwjXSIzwiXKa5IQDxFn166raLT1bLIuizwJ3aogQ+8gVQbKIf6P14UaWGjLgasbtozr0OHTZb98e0cZete+nGi09XqYGXxtEqCx+RacgeSZMnTH5MDz/3dpiOxgBAT10tiwzjJLVapxy6t/5y8H4qgD7TYAVnDCaBmEgPhjPrKonTNWO0T02fodETWfXMlnPeN9q5Iz694lNR1KyRpx2lvXfaNqyi2XQ8/TT1CbLgDMbnNo3oec7CJRoy8mqtrqfo7Skz3WXJRmJ2IKJtIrZaxw7cXUOPOpjIDnUF1oT1yBQFG3mMWsMN1D8yCWQEv+YvA52b9WilSVcO1eOPPaE9dt9NvTfoTFCisAqdTdTzamvrcsVpyx5bAyCrVpDVVLRgypfR4hXL1aYdK2gAVgE8NtU2q4xrjQU1evbdJ9Rry976ds58/a7PnupQ2EH1jdWa+dyjap9eqpIWMX3FKl6/PQ9XRbtN1FDfpOLiJP7urBSeoCFGRr5quQvkTEEZv5EfA9J9996jP+z9B5UChIPPHq0FZHLZULBm6s0i0AatM3r05tGUNFyAdr0IkTlTtw4sOwenEKAYB7t3maQS2zn4Lxdq6SocGLu2eh3ovNJnp26Dvm65Yqg2Jyt0XSoTFmbIqPE9rwqvbMroiNOv1KIqVpTtZXZbACLrmiiBowhgeuyWa9SzE/aAL4eMyMBEX54fLGVhYcjFEzRv/tJAm/t0IsAv+iPIZFdrz50206Vn4RPYn2XkDKiJInwzNl+MvWbhPZEsxKfiGj3hPr3y7peUJ1xXRKZM04OPEwTSzU3q2jqh+64fqc4tyxgd6/v3gcmCtLEjIYhvQHiTn57KcuRzZAoYmC04B0wGIC/LH7Lfjjr/JJb4ufhfAdMqplGHnjpKS6sw/hww2dmtLEcAz6cfu+tK9cQgiAswBtNkHL5uJRqY7Jz1XH32jX/oipv/hhKLYTCarwuFZqkNJJgaDNxja11y5iAEy9TdSiSLSqOsGd8u0snDruQzEdIKgAdHyiTO7+nTXrtvrytPPYTpBQ25FvFjnvnhyOA4njK9Q2QYfs0taki7goXCc1EIzVF3a2QJfUuW0I9DJhGwGpiihZoImBpw1MtvvEsvTv+U2hBKMp85YMraQQD8Yw7cXecccxBOj04wBkQAzaYJ5wnEEN39YQ0wFej+l6bppsnPUiNhhSeAKtdxtnwxNda8Wq2Lsxp31Qht2aMTgOD8M+qDQejP4BLX6hQ1tHG36N2Pv+IcRpb2XXYw6ADI6FFFiVrdMOps7bJJTzJnpgWONdBjPuuh8XYywnsfISMMzstFmyLXS+M1mnj1eVJTgz79eJaOOuTAkPnYtiz2KqZoXjVbY7ScS7NUX726SiUUrZvRV2MTIQFnKLSzIYSqulqtaJqv976erg0376kF3y5Tt6Lu6tt+M2pQRYDwar3zzBR1JK33CvD8VfXq0mdrdd1kO5W1boPD56fbZHssINCrSikDOHh50aaB+uPECRN07rBh+nDWXF3AokWdg5Kny/BlYGpb0qyn7r1WLTCrBLoMARp+kVr4Z0yyjD1ds7xs3/NrmnX0OaO1oho7Ifux33n1MwALgaRTRVZ3XXOBurdtQ+BAxiAXHET3GZhYBNr/+BGqTqEfBL8GmAAOB7s2RU16ZPxl6uzVIHMFEVFtyMCU1A+ranTKReMB++rAh3UQARN/zRcZcjxbrWP+vJ+O/9MAtcRPvP3GAdv/0tQbM4BrI8b5zodf6LLr72RBikkfPMBp+HGwTcNbElDda4eNddU5xzAbsS3Q/78PTHb+iHF3DN7p5oef1z2Pv4awrARTjlm6/gMX8VRlWI4ccth+KH/9wGTHYaVXK0mb9x90AdGUFDp4mZHbwISho8A2JXFNGT9SG1SUolhnB4xhhIaGICRHGZy0HqeewraDife/HFYy1gATUyw8EprqdNyfdtfZxx6AMBzNGByFNgVAmaczLhyrrKeAOI/TaXfvmJhlObb/rltrzNCjyXS4EjIl82uukQZ0Okr8sLxGY257UP/4eDYyscLpI0QhQMPAxBL6IfvurPNP/DOma2C1JCNgChkTvTXCw0VjbtGr782mOMwKGWYSI2JG9DgyUbvbuKsmXnGevIjryJsyvfTllDyBrA241haDA8ZppnKFuv3J13T7w2zHYLUItQfeAgBjAM5WCphmmL62LYo1moxy6017qNTTTQDKY9eh12rqZ5Mfe5X9QC+rHoNKFBiY4I1xKKAxHjIF6Ptt0lk3XnIqxV5vI8CxbBLIGNWpnqnE2Hv+qseffxtHAyShnQEQFbSnqnTKsQPZX7OXbhxzI9O5M1XCCk2AW3jyilgT9auKCqaAfPdPHCesb6gno4JOpo1FRYASgca6dZTP4CAzZr+tVYklKu/M9oEqJLMkqT23/D0rSwQfMo+GqgWa8cxj6lGcwC6ayDIonnfaQlv031uFLdqrgWBpGVRXVqkdGZhXvrJsWfCiwnszZmjBggU6cOBATbrvCT3M3qF0AitB5hZyjIyvkGAy4drh2naTbqxg2eYimzHbzj+8WmsN2xyT9O1vc5ZWavDIsaqshQ8A0KDhzD9kTGQ83dokde/YC9WeRZxk0j5BZ/iO+/O0eUVDs/Y+6hzqeGR3+FJY5nfGBDCJMku3VvjKuJFsE3Fg8PSStmS7WfTVzH3fLF6hE0eOB9itVwfpiO5g05wx2HnZil1cOvLP++j4g5geI/8C1O3xwKCQXX80Z4GuuWmy5i1YRmnT2x44GMOziahkQhvKE+MuGqzfbUEgC0kZdvTvAlPWzm8TMT2IDrzU1Xc+oidenYFQrARfQOCO7gjRezfOPuFgHXPAni4lw7glFx35z57KuX6wlPnsPkcOhRkMLmRMCBIrDtMUHKN7h5a6e8x56lhqp1oLTBaS0dngYf9vRKCT7n9OU56aFtJeO7sd1n06xVVTjYae8CcNpnjsbCssaxqYUOg/Zn+nsy66HqPyFAzlBZA17NCOfjpCw11XnqWubdhjEUzHhm8jYhqCc838+geNv/NRfT73O4CCbQYhYjIM92SxOE9HXB86hb0np1AjKsK4PE6aew0mEYhmyUQLdM3Nk9lwOpPaCDUVRoimXpABGMdwnEIWGYYcfagO3P03Ki2hDNmU0txvv9Pcr+aSXm+nDdqSVXifF/K1U9uxxk5+Sg8/O432FP2x4mhpF51YL1YNgOKobFm2a1Okgwbspt/vuI06t29DVpDRnPmLAKTX9c47HwGp0O0pAZoNMwimw3FS0BTZQzEGO/SkQ1lG3oUMiJTdwB50DycoqZ7s9ZIJD+iVaSxDB/BmcCOWwZ6p9mYbd9H1o87Smy++rE7t22nXXXYOK7HBHujHWZML0jbcYEc2O45lK5apqLhYLag32Ymc2RgDGvj3xvsvqOPmbVSXZG9dtlSLPl6uA3fan6yeiE69Ks4eqlWzP9OCN55TpzLyhdKUVqi1FtfFtd3eZG1turHnCq7JxIrJqhwALFmXAK4de71OPvkkssJinX3JjWzsXcV5lxqQj0WL38RT1dp+m0112vGHaaPOHdCotJSNm198MQfgjWmvXXaAXjJ37MjAZN18/N1iDbnkBlU3wCdBIdgyegyrmGT+G3cq0eSbLlOF5eYgbUfOAVMaxuetrNXAE84nDW3PeXTLoO7XNaAEK4W9O5brrqvPV+sy2gES9iUHlTRBOFtYrM/ZsnHCiPFk/pakbT3yYf4EuQewZMws+48KkOv22/Yhk98PujqprIRtOzXVeosVwQefeE3zl6xmh4H3zzlcWnIunwBSBKYMNrM19cjbrz5DZYB4AmRyEPu3gYmUIziSgcm1Dk9bRt5wn15993ME7fQsshAz788FZEyXnnWsDtgNodPIAwXUhbQ8MDkrSiHMb1l6PvikC34ETHZ+LwMbxfts2EG3XTVU7QrpG09Ih+mPr9vBImdyHdjToDG3PaknXnkPYLJCgW8UEeo4KNwZ0yXQdOju25oIrltQUcbxzfI6HXnKCDUyBQy1IRQVlGW/QbEZnGaXfj109ilHq0uHtqFA7DrHMlLe5156TX97aboq60wTfEJHmCLZ4WyGjtykhkmS/GF/OUxH7rMTqxoNyNHJbxHnDYCWLxkFwD75yVd0Czt2U3HP/7kWROu+6YsMwCuWhugOFQUqYUWqnm0Sqyqr1VxbqUvOOU377rKNopVp9xsHDAp02c0P6vk3/gnfRMccMFkGQcYGJu40nT6yGH4C2bVmS0N5STE7dZkuEYFr6gAg9BX2qiFfG6cDZ5ZsJW4HjzWyK72VbrrsPHVtWaoCCkxRl9aF+2V1hozpvGvv1fQZnwNM1CbNNXqAFN8Ae3V64ObLwxaTB6ZM1qlnnEmhl3ogerT9OGuqZ0NjHpwy2EctK2XF0OlphD+XlZYCIkjVXZNNPPryfeqz80ZqKGwGmMo0+62vdPTeRyMHXISAkWbcWE2lvvvHVKUWzoJvGuKswKwWsSrSdYvt1WaD3iprA6gYdLjqzH7Wl1/pg/ff19GDjtNUNg+OuuEeyhpRNufAFjGNIzqbxH5alrO9oRj5A3CrvSu9qlKbdm+vu8dfSbmigSaFualcUtM//1pnMy1sIMPFmEMfYWHJts+9W/ZspTvGXkQGj+yCr4RUw1q0xenDrxdq8HnXhIwJKcArVOObTkkS6Gmrnu11y2VnqayQa+YJfuJkzrb1FDOMD2d/o5NGTmBoaoj0GNQT7Dny5RQ12YRLJASfWIIEgEBbjH+2ZIGitLBAdbU1qlzdyGILSYuL50HTpswVLJctaMtMoCTRpKvZtvD77ftyyeCPj9t3g0Fw+0+OnxW/3WEuJ2cQlk1h9PRRE0mTFzM9oDOsIBghirahFjSvYvXpPG3ftxfpMS7+r4AJ4/7I2w6GXcFWAcpojjQYagRMCATD257K//iLh2CsFiKpKtE6RAAo8upMtLLGEivMXjzmfr3+HmDpwnAOmFwydsZkYBpz4aka8JtNUBKi5rpjn5f568hUjh96lb5aXImQHUHgAx4TGHiaGhNshWlRAcDYjk2IHckkvPlu4dJVCJ/6g4s6OJ033GVAyVAYt8HTf8bTHgM2WeSoYSdo//6bU6tiFYtsyXtMPPXKA5NX5V59f5ZGXHM70wxWMMh6QraHTMxr1lMuaE/x6EWRRQWl3t5gkEykajTi1KP1p91+g5FYOM6CEqoj0p511S16Z+ZXjGNgQrqcsyw9BYsChg0bnpG8aeFk+HGKH67bMrka6hAGiQBMsGxwop8U9bOCRJ0mXnmBdujVQ4WOfkzBU9wbQ55xZGk9rUIXQ6hdzJq7iD6g2+OQcQWAQvdxphm3XHuBtu7eTq+89KoKyiv0h9/tSpbIVAdb8GM9NTU1gaZiMqQmCqdFfiwF/hFm2GdUx9TOcikjs0oh56ff/Kv67LIxK121KmVVaNYbX+roPx6FXgiMrC00sVnUZteiOKVP33pOyRUL1Jbpl/lNJ0s1b3mtyrpvrk123INd5azaYX/17HGadMttGnTscWpJneeSMbfp9X/OjRZdzFM4+IuheuEgnrNTizHa7oKtIKO+PdrqnhsuVDEycGbvfXpe8X7p/U80Ir9yySqWd8Y7W3J4SwBy/bfuqesvOYOldWg3YBh00F2gmWHf+vgLnT36VnbAs0MdwPGjJLb5kFmx1aA/m3Rv9J6hAtq7XwMTGZN9z+vN7346V2ews9+r2wY+24M316LO4DquZ2ZCiYHvDGt7DxkRtuBFCQdE110L2M6RyvmDV/VdeshS4/JjKHHkckD/rTRyyOGUNhgC/r1J2a75bwNTlIY58kEgDf3ox/Eg8pyFbPMPdQY6Dj36HoCpaZXuvf5C9eu1AUL918DUROH77599o6GjxgdgcqIXdgKbATOMUPtv3UfjRpxEdEDAOWAKRJgZ7rMjOYLV4HRnXXqrPvriB5zVxkFGhMF6zm6hJ1kJuOWqc7XzphtGjAdgwjERch17pp549R+67s7H+Q6a49BhbwbtLPgwlQU00kTsYrKUNBtIbQxp7osXENXg3UL3Iy1FzKWbG7F4aAiAgwLNTGG8Ttey92OP7XoDTGzsZBxnmwkcKkx5aOFnnL4nCzuNPSwLltUGNm3M/iFXxIHoi2+h7oRjpa0MVkW9cqYGstSzj9ZBu22D+eLsbsS9dYxz0sgx+mTuEr7DFz+OvoE+VjcNnt4P5Wm4f2LQZpCle/oAVAyInq553hamGu4GELN4sQc7RoIpyZGH7KHTDtlHxUx74tyfoGbjjMRTkfC0AA1W0f+x51yteYurA/+2p7A6Q5emhx1lenDSZSx0lFPI5vGdux/WsUccqE5MT515G8AMwrUUtevq61i6b8NUgimO7RIHMGg74nojZE1trRYtWaB3Pp6m8i5MG9ggQxVKS75cpj/twRStrFhl1INKiisYFVkyxVH9Sn304vPqoaWARS3YzvnCFlqaKdWygg7a9YDDmS0kNfX114MsBvxhL1uZbn3oWd3/9HSm8ay6BdtDVoEjaMIhg1Mji+DMtPfhRZVNu7XU5BtGqgR7cv3H0JNGXs+w4n3pjfewY8bBiXvDKrQDBxkPwLTPzlto9LknqMjAhGWEKV7oFRbwzef+/oFGj38wZExBZibHhozjZ1mYGrDLZrry7JOwSfzHthAwNMraXaZ5YdoMjZr4CFN2dmlzMbi2QYcAtNtuO+vTWbO0anUddpGzJ4J7uIf+DfihZuVOCaweHwphAmxAFs6sMwSUTXt2ZUPlKerWAr6hIcsiGjebRNoH481xtPYP9oKm1zkMuOF5LkDAQ1WxBOhd3wtWUCthqkCv/GAgtMFsVNi8XI/ffp02JLPwFvj1ZUwGuyac8omp7+maW/8alhK9KpdhJSNuJzeqkgXst2s/jTrrBJVyv4EpTCUMXDg7X2He83PAErUOGnYNhbZKHNZKgKbgGJhOUy3z+TT7oS7QNt27BAMO2qC5WTWqV7JEfO5192jmrK9pW8Y5jIA+vDs8OA+CNVhaeFARHCRN4T6JY6QwrMLCjDbutaF69NxQrzKdDKAF72nANUF6U8oO9hsuPVM79e0BpZERhKmvlZpLk7lTNQj7wSem6u6HnlJzgZN1Zy0YgA2LwQ3cIdMIZoyx21gBj0S6iv6HaLd+ZKnIx5owbHuz3lGnXaJvl2L8AE50YAhB+c2k3imWu/fQ1FffUEMjjhEiIcaKLsKBjG38pjFM/Qz2lj0X40S/JGn8kYfsy3NbfyCrtWFBZ4ji3BDGsMBcB8xoBYn3wUyZV9ZhrtS7OE0/DACYQCmpfZ0enng1GzNZ9kcnn835WtOnv63BxxxBtkNWSNblYNTQyFTY+kB2JUV2nujwFM5GbZ2mcQqPv5pHSFZWruRZumqyq0K15nGSdq3Z40R726Wju6dz1pPrcvWs8n30zN3qUdoMYNTxFECpFrLLPLnRttp0572Y5nyvadPe0UnHHqiyIqaX6GbuomoNu2wSz2iS2dj57T6Bdxso8gg0+bzlyikH71gDGxQ30Zjhf1GxbZ5sOIUevQDytxff0bhbHydYe/sKNAJABjdnYAWA/mF/7K9hgw9isolAPR6deopky6yjLvTIi2/phrufYWpJOQBbo3BEW7J5MsgCtnMcRjlh2OCjsCADheGOUI4MUvix7e+pF6fpxvt4gJg6oMHEz5EaYNVYpeGnHsHu+04aPe5O1bH658zfda0E+jFwJb0Blu8IAnoMpuYbe2QcbytIZqqpJXbTiNNPUG9283u/mqk3FZaTx/tXx38DTCwbgwT7HX2GVjcT9QGQwLinQPQZwwFbl6R0P8uRXVjG9X6b9QGTmW2AgccQwvU8F5RhBSGGk2dgLhT0EFaBjX7Arjpn8BHEOkMiTNogc8AEN+iKeTF91eJ0Bw0+T8u88kL9ImRKGKofoyggGpYR1W8fyxP0ndvlgCli30Zkp0F9TOWWaeyku/Xx7AUolQcxAae4p442LO6xyPAFfjk628ZwWbKo0oJG/Z609NgjD9ELU9/SFFavUiz3Gxh9XwZgbE+hcaL3nvToEhkC512LcoeGEO7CAGxePFpTXasx4yfrjX9+TkbkSOKNEpHi0LKlEGTt6SbiIC2u5zm8It06ZqQ2bNcC5XsaR4/Qvbw+wzR1tObzNH8ETIZVAMpGgHwrSjO66ZoRWrZ4icbeeJ9W8jiNo7Z3cfuxnAgQbWj8+KBdhjlQkmlga5bZT2Dl9aA/7kr24VpQ5OzBMcOtFhZ0IDvTsoyFjn2PPBPnY3ebC/GWKDzYhhI8etKe+s59Yy9hBRbZERAccF5hC8jCRYs16JjDQ3G2uQEAK0Ym0ENCo4aGhjU1J+spb2v+bMAJouJzDXUPT/s8HfTh3foBmLhm+vI011avVuW8T/TNB6+rZ8eW2FONkp03UZ/d9td3S6o05eGndBx67tG5LbaHrRKYXQp47vX3NfHuR8XLKHCuyCHzU6woCJgUwIOxrOUCQP0M3g5w1H6/i543YynLvgxms4L6PCug1LyYSsbJ0DNkj27tzaoxtlOcfPhAnXL4XgQjQhn+BQv0Gd3TSBZ+11+f052PvsIoXjHnooEpBCUy30yVTiCIDDliIFNHTq8BJlPHc4PY4x2T/6opz70LKNqPGBMf8FQ6zqNGV484Vbttv4VmfvaVbrj1PmRC9ouv2HadzZqWAER2FJtMsFcURe+uff52y4102uBD1Z0HxguxUx6CoI0DLPqgsfX2r471ABMOgJJRNf/IidD3kGGXa84Py8KqllN+Z01Rn4367Ta9STWHqBURynaQNxYPmB/YqIqr6BXSzusm3U/dCuZhxjuPM0SFJLu78TUNP+Nk7ckKkV3TCGxPJB7y4798JexaaPXQcPrIazSLJUr3E2fsFIpzlpWkv+223Iwaz0nqVM5zaj9hPjgOfTaRXleRNTzx8ltErWkUtx0x2cZg+8ZLokwlyh4YNOwg79d3Ex1/yJ7snu6mJJL3cvqtDzzDNMbAxKMC7K0pJ4r0wMhvuvJ8nI9tD46AgFIAJrhwNuKsxM6RYnrmR+3YI8cK42t6+oXXVVXryYazHPiH9ihjMx0YJgZeQbY26LA/8SqKAeJpmQDW3tEMuuiHlTU68fzrtHS161S0D61zwEShu3OrBM+1jVRHameLlizXuClPacaHn5KVsI2gmE0JFnswbqQdAJkJKM133n5LnXj4vurdyW9q4Fk56IuT4a1P125n0/T+mhOHXhK2VtiQbbTevIgk6bNB/X+zqS49czD7Ypwd0wZUb6IA/NjjT4dd3XvttYfKASUus1cJa0QH/ueCuI8yHhUpKCC4RURHcuI+v8WilqldCUXyJE7m66YzD0yhH/ryGwZKqV15M+g3s/+pD9+fpj5bbaPuW+zEA+IJ3XHn/Tri8IPUm42NCVDR21ectXkbo/cyf/jV97r70ec1e/ZcghpaIqBEmYB1h74A3yR6TzLWdpv31vCzBqtz23IkR6khRc0NWhtR0VOvTtf4u/4atrKkmMaxXucog4VkeD1IkS7GJ36HrJwZBx9wFHL6ydHAfc9OfVs33PEQpQHXMTmJb9lfYvhUBc+IXXTmiZRINidgW7NQiD3a9rxxmvmBHn/mRU2c8jSyR0bQ46m/A1Tr0iR7zUaoVzueNSUQLaxs0u0PPKGp73wStpC4POHhQrE9/IU+bKwEgXZo11KDjj6YR8uosaLXIqaRAY4CQETAhAWFQE7T9R4/AybvSrZTWjRm3wWyGpaRv2MX8LKVK4huvo7jouwOndqpB+9UKeNO/BHnNFNrUTD/2eDj2Wcj89SlVXWaR191da7dwBopdWu2/nfv3EmtSgsDE5DMNQvYfSFIBGV3jl4ZQtbEtZUNGS1YvFwreGdOcyi6GcGz6swjB92gqZQMyoXUnwJTFC1RO44O1aE2UsXUbsYnn+tTHmP4/of5rHzVhX00bVq3Ukd2GPfecAP99jfbaMPObaiF4ayuwQC13lT2Oe9UWsxT9OG1JFyrKGuBMfPQL7y4gG5jCMAUeLFx+BySRcY2pMAj/LgCtJxxP/jkC33x9Xdawk7nGpwwjWOVlpaxpN5am1PH23nrvqzS+c0ARlBHHZwCXlzk/uKHpTr1ohu0qt7y44exwsojOvEWhg1bJzV5/BVqQ00oRWSuYWXk82++13u8LmTW7K+R5WrS80Iez2inTtR+em/UXb/dcVu1ZZeuHTg8R8/UxFyEVb/16NrTbevMiwSrWOH7YelKQKCObAdAw2bKS1rwZH+ZuvIEfhlTmiLOOfS4Uud3LSFC3ffQQxSa22rAXnsHPRZgc85GEVOoKRlcnD0ZdEpzK3N5W/NfF829qdLA5SMPXt4b5dU+f/ceKaTHmIBlU72q61epmDrWwsp63XvPwzr8oAO1CVsavHGWUm2w+4hvAk0i2jVdy6bGL+fO00xsZyFvOVixqjo8i5ksSKoDbzno0amjtum7KXrrhi3Q2qt2BgYyJr8mxUDr3ucvWsm7wFYzFa0K/CfI9spalAVb9p4+by0Ii1LIKjzaQzsfVPgCuCwmIM2bv5D3VrHrkFsNyKUtSrVht85qx8PaBayCxQlcVlcEeYY9ZA0INdP33PmLtXTpUuzI9sKzoWXl2mjDLmwYFRshIzsj3+HJAl6BtGi5pvGo0dxvvtP3CxaFtzWUo4NO7VqrOw+778gzdVv03RCJoVvALpQjHCP5bi6cyTvh8cZnW2heb75j3eNnwBRSMzrxEcGT3Qj3gqlANg7llWw7BICNQ8KirYkbPKgH+tlgwZj9dH+ElvlswGIKW+DDSBZJGCkYqDMmjx8K3gjQO5L9zJuLrY5MLh5Hgs4xHO6mFcINq1u0tHOG4hw35tP3PPOBt4hN6GJsFGCDNVik4MPwYR79ypMivCJGjakQsCMvg1UXV13UzgBs0IEgwpTKHAAQptw5nutnUMHYPhNE5Nb82LCiwaPr/A7TVK7Sn+NmeBaJu3w9BAv++vGLJDIwj9HhUegH2v3iufepiQwddbNq2bcTGjJOfkuE34PjPTEPTODFcy56ozM/QuLszM/xWTeWvo3FKX8B9Dgc2CcSTLuDLHOjhmyKz+vVNfrhxVrwbNpYREB3rlf5n/Vi2/GqI0wEuVmS3sDYCKNJZG09NfL3uRdeJvOp18EHHaCKEr+hwTJFnsjeejLIGWQMUC6Ae6rrJWhP3+p4pMXA5OAZ6kk5ur265wd1XZ8KB2Q0A6DO3JvIOucSlB5/+iUdNHC/8GCwp0zeb+NA6WBs2pzdYfDBTkLAhBbL0I5u27BN2oboMmR6CYMqJyAFOaB3eE87NQmLEV48QLZhy7wb2aboB13a38JTC4BwUIIBgnbh0R5k4YMzwS/814fHtHwtZ9QZ/NPPnHr8vM9ZD9HNoSIVvvmMa3qWr6f+1pmTgAQ2Q2/kImzRsNz9Q98Igr/YBlfNOzPMALxOWkKRHf3bzp29WSCwxF/T6z7sC04y3LMvc2E9x3qAKUJjNzYN4Vf0AYFGTHtHrA8SIDqGCSOU7zcRuZ9wQ+6XoSNa7aPX0JcvmCw6yI1hJw9Coyu/OoPOgjFYfFZkin4NTEmDnI0EBHdTL5W7bZ6/kO2FC6YH0MAiTNOPgSkCMztYEAs0uUffE/3gBu4QQDJQ+x4WuPlsRVgI/g/nw9CcEseJDAm2ThgEM0TpaN5NO9qH7C+8PQFSbVxhQP8KRIa/HttFUm5AUnTuVUEbFKdt0PmIH9WpTBaysZq5x9ZoWv0qkHc+nc37ne5kquEVI64hG+/TiQrvDTz02kmTeLNAKWN59dIGk6a25EcgzFGoMcGkDc3RPQpS3ORrdpYctabdQLE+XVumnmr4j9tZZmFvnB2awyt3loMdz7u5/d0G75cIhjqOvdqAxt/p783QBx/N1MCDD1DPzh3RuOlaq0t/XnNwv+XkbMrTtBLALGRMHgewMpDlD+vY301RLfyb3unTpuvzL+do/wMPULeunQg0dewsBzRyIBG1NW2WvemO2vl8ZCGAvPnBH8I9ftQBBfqf7QgJ8o/Ptl3THbIn9IPOYwBTuI8iufePGZwwqdAmgW85eIcH693MPhPdzVgefW2Q8zOP4Zl3XzcAuuZLW/dJw2hcN/Fn/vm3D/AkrKb6kS8H/ehtGdZxyGO5bpvme2jn8EVLZJYjgM/I18aESKKXLNru7OtR8mBDM8/BFoye4QhSDPrMnfjRn/UAEwYZhrZRuXP/mHmKxijJy83RM2uYPpTaqOxA0cYu02rlmPS1hw3Avdo0Qo3FtOUUZDpt5CGqBsbdjj6sMPe7LjChBGcm3A5tjuJWsimDxtyQ/hN2UEO3hzE4rGvM7j20yDleiISM4u393jbgwxHGg9sg3Lc7t2HxIfQVxRoDk83Ce3SIGhaR+yQTiEZ2TzmjMIL7INIGBQVJRKeCAgOllhKUwbdt3uBjufiL94OE6G/AsuFzzZSFKGc+McgGrr32wccayabG/BsXouV5A5Nl2aSdt+vFytAp7NSmrueswwzAc6Rv88ZX+vNWiLCHzLLjql04fLJAw5lIJv9K13RhBUX9mz7L0sBkEWL4FpX59lsTPJ5vt12z2ygah+f08vd9u3ihHnn6SfXp2UMDdudtl2GKFhVoQ3cmBTodh/PjevNlfipnG3bn/hsyT+41IW7jFdpveX/TE489Rimhi/74hwG85oSHwgk4CVaUEt4SgFzDAgw8BDsjRAXbdC8Af/CRXH+2ZL9ojYFCwd3iZVGbdtYtIYoTBhpn2DTmFFegzYV/ywAoISsO1HEusjnMifMAt5twjy3U9/qwbhxATIcDWtiSEoQLrYzrYO42XugPWVRunNDW4we6GNXA4nuMUPx1O9PuHoPuw4DRNaOT3cMLWu475InIyP6To4g/3IDdBn8PpyPviQi3LVnnXDV9/Kzv+Bkw/eymPFG0Dx/pNvDEjYGWXIP1dx9djNqt7flH9657MTfGj6/bqN3WvyJh5AiJzuXa+A4fP2obnVrPbw/qn7V353oO9+b5y1/+8Z2+JWrv31EfeZlwZh16ot5/dmIt+bnWoZvcWdOxhqowgPuMRvK1PJ3RPXzDEex7jSj40an/YNXzr9QCos1yYeNp6M3TzUYd+PvtdBEv4ivyCg99+rUoPzOMaKiImhwha+QRERr9XkPkuicjyeTP/PSWXNf5y+FmcxQObraTByCxwnONDR6eNrz1j/f19vsfqd8WfbXdttuoPS/u81shAnjDj4vDzpgM4LXUmDxt88O6DjyJsI/MzuapK2+nYO/Z9wsWatrf31a6brUOHngANaH2uQwrkr+nsyGDDDJfl/K1XK39tJal8Gmd281K/mv+/jXyXOdadM+Pteu+3MbX8n3Y2fOfo/6iq9E588sNvic/WPQ1L87oGr/XtnV/0bf1tY3O5Ud0wzUaC32t/bb2U7iwZoz8t9zfdbr6EVE/ue2/B6afNPj163+YBHLA1IDB3MMjLrc+9AIPBbuw62yE6WGIW0RrVkyOHLiHhh63P0VJA5NtLKoB/KdwtAaYcgTlvxtwUkyr6gCUmbwu99PPZrH5tUgbb7wRBd4NeCVuWx5PcR2EHAB51DfwAju2xIfpmx2B9lWrq7WQl8x9O2+efgCU/KjLLjvvpF5MEZ2f+V6Pl99isL5s8D9FTv8/0PErMP2/rmXyajuUM6bx9z/BruS3qC3wgjOn4QBTNIEGmHijwOmDBur4gbuHPSXhzQm5esh/igjyQJSnJ2RA8OUonTKfgEfYTAnYLlu2TLPnfqNvv/2G1cRqitc8jchO/PJy3hrBkWQToN9CWcfO8bC/jZWyLl06q2+f3urZswcZlff9iNf6MtWh//xY+VrUr8AUxPOL/foVmH4x0f/PDJx35gbShatvvV9P8VL5NC//d4LuF4uFzNkFHP4PNCNOO1yH/mEXqmKswHAuX6j9n6Hk/7yXPC/5ngwOPpf/G2o10O16hqs25s0/zSyHN/Log1fp6uqa2JfFrmdW3lz8LuFh2iJe+lfMalx46yb3u85pMHJxP/9/n+H0GnDy51+ByVL45Y5fgemXk/3/yMiRMzN9oWh+3lU36e8z5wVgQrFM5wAmHBAPZOdvna48/wTeXLkVwMQ0LxT6ufYfdKwLTD8FhmiFkKwJrqKfCJSAkNyZ/4oR2pBxhWKsbwtobWijNXUohBE+//rrP0cCvwLTf44u/rcoscN6tamWlZ6hl16n979cwooMr7AwMDljYvrjlRX/b4DGXXJ6eGYrLE7nl7X/t0b9v9PovwKmsH8mQFIEIiGTihAGYvJQ9XO6QlblLCsAEyAWgNp9BHSiuJQ79/Omv575BSXwKzD9gsL/nxg6D0zOmC7nfxzgV/VmeD+384qwN4pdwH4WrWv7ct64MEw92pVHS87/zwFTBCUhXwqY4v00ZD3+7GkZ35w9/fRwjuX3ZBvIvBAQpq9rlqyiXUG/Jkw/ldov//1XYPrldfB/RIGByc7njZ+reMzny3mLNfe7H1TP4xde7vaT9d1Yedp8o65qz6Mg7P5ykoCjkknhkf9JThmBx1pxhOwm9zXgyppLEQxFqBSdzJ9Zc8u6H1jzDljGOU/8oiP/d31wtm7jXz//EhL4X4+Z8c5a4/n0AAAAAElFTkSuQmCC;" vertex="1" parent="1">
          <mxGeometry x="165" y="460" width="157.5" height="30" as="geometry" />
        </mxCell>
        <mxCell id="MMp3bKSsHC83LUOIyMqO-13" value="" style="shape=image;verticalLabelPosition=bottom;labelBackgroundColor=#ffffff;verticalAlign=top;aspect=fixed;imageAspect=0;image=data:image/png,iVBORw0KGgoAAAANSUhEUgAAAKoAAAA6CAYAAAAgEMLBAAAK22lDQ1BJQ0MgUHJvZmlsZQAASImVlwdUU9kWQO976SGhJBABKaH33gJICT0UQTqISkgCCSWGhKAiNmRwBCsiIlhGrIiCoyMgY0Es2AZFxa4TZFBQx8GCoqiZF/iEmfnr/7/+Wevm7HVy7ik39711AgA5jC0S5cLqAOQJC8SxoQH05JRUOm4AEIE+0AS2wIHNkYiYMTGRAJFJ/Xf5cAdACn3LThHr37//r0Lh8iQcAKA0hDO4Ek4ewh3IesERiQsAQB1C7CYLCkQKvoGwphgpEOHfFJw1waMKzhhnNGncJz42EGE6AHgSmy3OAoBki9jphZwsJA5J0YOjkCsQIlyMsC+Hz+YifBJh27y8+QoeRNgS8RcBQEZOBzAy/hIz62/xM5Tx2ewsJU/0NS74IIFElMte9H8ezf+WvFzpZA5zZJH44rBYRT7k/O7lzI9QsjBjZvQkC7gTNSmYLw1LmGSOJDB1krnsoAjl3tyZkZOcKQhhKeMUsOInmScJjptk8fxYZa5McSBzktni8bxEhGXSnASlnc9jKeMX8eOTJrlQkDhzkiU5cRFTPoFKu1gaq6yfJwwNmMobouw9T/KXfgUs5d4CfnyYsnf2VP08IXMqpiRZWRuXFxQ85ZOg9BcVBChziXJjlP683FClXVIYp9xbgFzOqb0xyjPMZofHTDIQgCjABhy62iQBUMBbWKBoJHC+aJFYkMUvoDORp41HZwk59rZ0Z0dnJwAUz+7EdXhHG38mIdqVKdsqZL/fcrlcfmLKFroWgCNIDcSqKZtFLwDqyB2+9CtHKi6csKEVHxjk11ND3go6wACYAEtgB5yBO/AG/iAYhINoEA9SwFykVj7IA2KwABSDFaAMVIANYDOoBTvBbnAAHAZHQSs4Cc6Ci+AquAF6wUMgAwPgJRgGH8AYBEE4iAxRIR3IEDKDbCBniAH5QsFQJBQLpUDpUBYkhKRQMbQSqoAqoVpoF9QA/QidgM5Cl6Ee6D7UBw1Bb6HPMAomwZqwPmwOO8AMmAlHwPHwHDgLzoeL4FJ4HVwD18OH4Bb4LHwV7oVl8Et4BAVQKigayghlh2KgAlHRqFRUJkqMWooqR1Wj6lFNqHZUF+oWSoZ6hfqExqKpaDraDu2NDkMnoDnofPRS9Bp0LfoAugV9Hn0L3YceRn/DkDF6GBuMF4aFScZkYRZgyjDVmH2Y45gLmF7MAOYDFoulYS2wHtgwbAo2G7sYuwa7HduM7cD2YPuxIzgcTgdng/PBRePYuAJcGW4r7hDuDO4mbgA3ilfBG+Kd8SH4VLwQX4Kvxh/En8bfxD/HjxHUCWYEL0I0gUtYRFhP2ENoJ1wnDBDGiBpEC6IPMZ6YTVxBrCE2ES8QHxHfqaioGKt4qsxSEagsV6lROaJySaVP5ROJQrImBZLSSFLSOtJ+UgfpPukdmUw2J/uTU8kF5HXkBvI58hPyqCpV1V6VpcpVXaZap9qielP1tRpBzUyNqTZXrUitWu2Y2nW1V+oEdXP1QHW2+lL1OvUT6nfVRzSoGk4a0Rp5Gms0Dmpc1hik4CjmlGAKl1JK2U05R+mnoqgm1EAqh7qSuod6gTqgidW00GRpZmtWaB7W7NYc1qJouWolai3UqtM6pSWjoWjmNBYtl7aedpR2h/Z5mv405jTetNXTmqbdnPZRe7q2vzZPu1y7WbtX+7MOXSdYJ0dno06rzmNdtK617izdBbo7dC/ovpquOd17Omd6+fSj0x/owXrWerF6i/V2613TG9E30A/VF+lv1T+n/8qAZuBvkG1QZXDaYMiQauhrKDCsMjxj+IKuRWfSc+k19PP0YSM9ozAjqdEuo26jMWML4wTjEuNm48cmRBOGSaZJlUmnybCpoWmUabFpo+kDM4IZw4xvtsWsy+yjuYV5kvkq81bzQQttC5ZFkUWjxSNLsqWfZb5lveVtK6wVwyrHarvVDWvY2s2ab11nfd0GtnG3Edhst+mxxdh62gpt623v2pHsmHaFdo12ffY0+0j7EvtW+9cOpg6pDhsduhy+Obo55jrucXzoRHEKdypxand662ztzHGuc77tQnYJcVnm0ubyxtXGlee6w/WeG9Utym2VW6fbV3cPd7F7k/uQh6lHusc2j7sMTUYMYw3jkifGM8BzmedJz09e7l4FXke9/vC2887xPug9OMNiBm/Gnhn9PsY+bJ9dPjJfum+67w++Mj8jP7Zfvd9TfxN/rv8+/+dMK2Y28xDzdYBjgDjgeMDHQK/AJYEdQaig0KDyoO5gSnBCcG3wkxDjkKyQxpDhULfQxaEdYZiwiLCNYXdZ+iwOq4E1HO4RviT8fAQpIi6iNuJppHWkOLI9Co4Kj9oU9Wim2UzhzNZoEM2K3hT9OMYiJj/m51nYWTGz6mY9i3WKLY7tiqPGzYs7GPchPiB+ffzDBMsEaUJnolpiWmJD4sekoKTKJFmyQ/KS5KspuimClLZUXGpi6r7UkdnBszfPHkhzSytLuzPHYs7COZfn6s7NnXtqnto89rxj6Zj0pPSD6V/Y0ex69kgGK2NbxjAnkLOF85Lrz63iDvF8eJW855k+mZWZg1k+WZuyhvh+/Gr+K0GgoFbwJjsse2f2x5zonP058tyk3OY8fF563gkhRZgjPD/fYP7C+T0iG1GZSJbvlb85f1gcId4ngSRzJG0FmsiQdE1qKf1O2lfoW1hXOLogccGxhRoLhQuvLbJetHrR86KQor2L0Ys5izuLjYpXFPctYS7ZtRRamrG0c5nJstJlA8tDlx9YQVyRs+KXEseSypL3K5NWtpfqly4v7f8u9LvGMtUycdndVd6rdn6P/l7wffdql9VbV38r55ZfqXCsqK74soaz5spap7U1a+XrMtd1r3dfv2MDdoNww52NfhsPVGpUFlX2b4ra1FJFryqver953ubL1a7VO7cQt0i3yGoia9q2mm7dsPVLLb+2ty6grnmb3rbV2z5u526/ucN/R9NO/Z0VOz//IPjh3q7QXS315vXVu7G7C3c/25O4p2svY2/DPt19Ffu+7hfulx2IPXC+waOh4aDewfWNcKO0cehQ2qEbh4MOtzXZNe1qpjVXHAFHpEde/Jj+452jEUc7jzGONf1k9tO249Tj5S1Qy6KW4VZ+q6wtpa3nRPiJznbv9uM/2/+8/6TRybpTWqfWnyaeLj0tP1N0ZqRD1PHqbNbZ/s55nQ/PJZ+7fX7W+e4LERcuXQy5eK6L2XXmks+lk5e9Lp+4wrjSetX9ass1t2vHf3H75Xi3e3fLdY/rbTc8b7T3zOg5fdPv5tlbQbcu3mbdvto7s7fnTsKde3fT7sruce8N3s+9/+ZB4YOxh8sfYR6VP1Z/XP1E70n9r1a/NsvcZaf6gvquPY17+rCf0//yN8lvXwZKn5GfVT83fN4w6Dx4cihk6MaL2S8GXopejr0q+13j922vLV//9If/H9eGk4cH3ojfyN+ueafzbv971/edIzEjTz7kfRj7WD6qM3rgE+NT1+ekz8/HFnzBfan5avW1/VvEt0fyPLlcxBazx0cBFLLgzEwA3u5HZuMUAKjIXE6cPTFbjws08X9gnMB/4on5e1zcAWhClGIsYnYAcBRZ5v4AqCJaMRLF+wPYxUW5/iWSTBfniVgkZLLEjMrl7/QBwLUD8FUsl49tl8u/7kGKvQ9AR/7ETK8QLDLLN7m4vN475z7FeBT8Qybm/b/0+E8NFBW4gn/qPwGCWBwMMHO6xgAAAIplWElmTU0AKgAAAAgABAEaAAUAAAABAAAAPgEbAAUAAAABAAAARgEoAAMAAAABAAIAAIdpAAQAAAABAAAATgAAAAAAAACQAAAAAQAAAJAAAAABAAOShgAHAAAAEgAAAHigAgAEAAAAAQAAAKqgAwAEAAAAAQAAADoAAAAAQVNDSUkAAABTY3JlZW5zaG90MGvqcAAAAAlwSFlzAAAWJQAAFiUBSVIk8AAAAdVpVFh0WE1MOmNvbS5hZG9iZS54bXAAAAAAADx4OnhtcG1ldGEgeG1sbnM6eD0iYWRvYmU6bnM6bWV0YS8iIHg6eG1wdGs9IlhNUCBDb3JlIDYuMC4wIj4KICAgPHJkZjpSREYgeG1sbnM6cmRmPSJodHRwOi8vd3d3LnczLm9yZy8xOTk5LzAyLzIyLXJkZi1zeW50YXgtbnMjIj4KICAgICAgPHJkZjpEZXNjcmlwdGlvbiByZGY6YWJvdXQ9IiIKICAgICAgICAgICAgeG1sbnM6ZXhpZj0iaHR0cDovL25zLmFkb2JlLmNvbS9leGlmLzEuMC8iPgogICAgICAgICA8ZXhpZjpQaXhlbFlEaW1lbnNpb24+NTg8L2V4aWY6UGl4ZWxZRGltZW5zaW9uPgogICAgICAgICA8ZXhpZjpQaXhlbFhEaW1lbnNpb24+MTcwPC9leGlmOlBpeGVsWERpbWVuc2lvbj4KICAgICAgICAgPGV4aWY6VXNlckNvbW1lbnQ+U2NyZWVuc2hvdDwvZXhpZjpVc2VyQ29tbWVudD4KICAgICAgPC9yZGY6RGVzY3JpcHRpb24+CiAgIDwvcmRmOlJERj4KPC94OnhtcG1ldGE+CpnSLyoAAAAcaURPVAAAAAIAAAAAAAAAHQAAACgAAAAdAAAAHQAACLmBefpPAAAIhUlEQVR4AexbCXCV1RX+krfl5WUh+04SCBBIA4hUDBaXYd+UVGS6BLBMC7QOHVBabWsVnKKClhnqjFXqBjNaWigWK2GwkqECojAksgQCJAGyko1sZN96zv98mf/mf+/lZTHw4J6Z5L/3/Hc997vnnnP++zy6iCBJSuA2l4CHBOptvkJyeIoEJFAlENxCAhKobrFMcpASqBIDbiEBCVS3WCY5SAlUiQG3kIAEqlsskxykBKrEgFtIQALVLZZJDlICVWLALSQggeoWyyQH6TJQX3n/QL+k5eHhAZNBjwB/bwT5WZAQE4Kx8ZH9auturHT41CV8eToPJEaBUsYn4OF7Rwm8OznjMlAfXffmoMjBx2xEVOgwLJk1GckJUfAyGgal3Tu1kR2fHseezzMJqCJSH58+CcsX3H+nTlszryEHqm0EJoMOc6YmIW3eFJgkWG1i0TwlUK0iuWVA5e51nh748dzvY8mMyZoFkgyrBCRQrXK4pUDlITBYtz+fhpAAX+uI5H9BAhKoVnEMCKhGvQ5PkK1p0In2k1rSDU2tuHStDPkllahvaFG/6k4vnjEJy+bfPfZW98RdSEigWoU0IKD6epvwzgtLYTYZexV51qVC/Gn7frR1dGrKPjBhBNalzYBRr9e8u9sZEqhWBAwZULm7fx/+Bu/tO0YpUQMHD7Ng4+qFiAkLtI5K/u+WgASqVRRDCtTjZ/Kx9cPP0dLa3r0QnDDqPfHymlSMHh4m8NWZ+oYmFFXUoLq2idhqoHfCm0Jeo2JCYTGb1FWcpqtqG3DxarlQJjLUD3ERQQKPM2U3anGl+AY6vz0MDAYPjIgKRpC/j6ZsXxlVNTdxpbQKra22k6YTFosJY+PClRNmoEDtpEFX1TWgsKwaLS3t6OoSZRca6IuY8EAl1t3XsdvKt7V3IL+4AlU1TejoaEd9UzOaaY31np5KRMfX20xL1oUAPzNGRYdA34+Tc0iBejq3CJvfP4ibjaKtatB54tVfp2LUt0Bl4ZZU1uLrs/m4VFCOeirf1NyKiuqbqGtotslHefJvE80mA6LDAuBHC3xPYiymThiJYH+LJvaornjsmzxs3nFQzULqIxPxs0enKryGphaczS3GoRMXUFReg5KKWlpka3F2ADkWHBnsj/nTkpEYH9Gnha4gcB7LykXWxQLwhimltm0mkW0+8VFBGB4eRLJqxlEaq6tx1ObWNpJZGbJyCpFfVIFWAlE9yex6ZR1a2tp7tEPg8bUgPNiPnmZMnzIWibRBfL29BLk4ypRW1uBIVh7N4xqKympQe1NcG3U9npefxYs2RQAB1oKU5BH4wcSR8CQwu0JDCtQvMi/jL7sy0NrWIYzN28uATU89hpHRoQqfHbBN7+7HubxSoZyrmZAAH/yQQDd/2niHVewB9f7kODydNpME3ohtH2Ugm/rv7Se67FBOn5KIX6ROg542nDPiDZhx8iL+fvCksumcle3tnaOA/1lSBq+SMuDN3VdiMCUnRGL5whSMiQ13Wv3k+at4a/cX4E3XHzLQKbrzpSfpFHRtUwwZUHmRtn98FOlHz2nmNWF0FJ5dPgc+5JwxDRSo3AYfcHMfSMKqxx/soUX4LWAPqP4+XniMAP7J4dOoqWcTw3VibbyUPl7oCbiO6G97j+A/R846et0n/ncBVNsAePP99snZuC8pzsYSnl+fu0KKJJ14ajNCKNJr5rYFKh+jG7d/qtGmPKPZKePw1JKHuyc3GEDlxvR0RG/45UKMT4jubtuWsAdUkP7kyAMfl30li5cRf1w5H+PIDOhJvEn/lZGFjw6cQEdnbzq6Z237+e8SqNwj38n43Yq5CBkm2uFsr79E0ZuC69V2FQBrZTUxlJnT03S57YDKNtOZy0X46+7/kT3WqJ6DkuaJvbhqASaPje1+x0B9+b10cnbKFEfJk75zR4X4IzYyCIFke/qQ08Saq50AVUz246kL11CssiG7G6JEyvh4PLN0pib0ZR+o6pogW82ESOpXuZNAIbiK6np8RXZzHdli4nJY680jDb568UNiI5S7QXbomi27HBzHbLuZaV5mDI8IRhcBuayqTjlSG+j4drRpnAF1ywefKfaomUwqk8GAuMhARIeSDe9jVux5nU6HRrLB2f4/TWFDe7YlXy1Y+5MZeGTyaGE+mWT7vvjWJwLweA19yT+4Lyke95KPoKdjXU3tFJIsv1GHixRP5z/2Nzqpzo6Ny2/90c9a5FROAT47fp6AVAAerD0aExuK19YuFl5xVOBE9lXlq9XEMTHwJm3ljLivN2kjHDqRo9FYrBE2rF6gCX05Ayo7S4voKOe7CGGBfkLX7Py8sesQMnOKBD5nIsgpefsPaRr+u/uOYt/hMxo+65oFZEcvpgsmvAHV1EHy+oqO2L0ZmfTBpFwABpdzBFQGRCbJPYqcy+SRUeom7abZIXp9539xubBC835SYgw2rFoo8FnhHPgyW+CZjDqsXzoLU74XL/AdZc7lFSM7vxSLHprg8j2PQbVReRFPXbiK3MJK5WpaI+0cDl30VPu2CfiTF/jcijlIGjHwa38cDln3+j8UzWprn5+82zmi0LMPR0ANopju+mUzMS4uwuG4ORTz7LaPFa2l7iuQrjK+/fufCsJvamHHMJ1OlRJ1UR4YZqUk4VdPPOjU8x1oeErs1H4ut7AcT2/do3lpMuqxe/NKgf/M1t0aULMT+ptls2FwYp8LjfQjM6hAzS0qx6Z30u0e8eqxMXj8yHFZTY7OtHsG707l2j//k0IylequlPQraxa5DNTkhAiKQKRq2lAzasnR2kSmSQ6ZJmriOOG29T/CMAr12Cg7v4Rs8/1obmmzsZRnGMUvX1g5jzS9Nm6rLjgUQK0kz33Fxp3qbpW0kW647dmySuA/98ZenM+/LvCiKVT3/M/nkpkUIPAHM/N/AAAA//+G1w8CAAAKAklEQVTtWgtUlVUW/gQuD0VAQJ4iYDggDi41nbAxx9LoqWK6bGbKnKm1qmlqslXkrGnGNTqYZTaOZU6ZrlVoNjrFNJlPJPMtipiIIgkIBIgg8r7CBS6z94//9f4vuHSZy22t/9x11/+ffV777POdffbe5x/URQk2pNkvrVfUGjrYAxuXLoSXh7tQ1mxsxfIPd+JiyVVF3VuELvh5D0bKonuREDPiFrmHN2bR1N6Jjs5OS632jk64ubpi0KBukqurC5a8k47LFbWWOuLLyheSMXZUmJgVnke/LcKbH++V0DiTEBOKFb+fq6BbE1putGH15n04nf+9NRm+3p5Y/dI8BPv7WujZ+aVYvmGnJS++xEUFYdWL88Ws5vPjr47js/05NM+bE71Zc96MiVj0cKJmO7Gg02xGm6kD4jKbzV0wd5kF2XEd7re+2YhnV2wVm1ie7gZXfLbqGUueXz78z2HsOHROQuO+p06IwWP3T8YwnyGSMjHj4jIIBlovNzdXkdSn5yAapN+AaiahMFBzLkoXUOTIy8OApMQxmDN9PAL9vEWy5rO9w4xT5y/ju7IqZF8oQ1lVnWbdYP+hgsDbTLfALFZ2JFBXvfgIQgP9xKFxkvhP3bjbkhdf7p8Sj+cWTBezms8fCtRmYxv2n8xH+dU6nDhXjIbmVgXYeVBXAtCIYD+UXlHKVg2oZwrKsPSfO1T70pwEFXh5GjA5Pgrxo0Iw/fZYDPbsVm49tbEu61egcser0vbiyJkiyxgsiNioYIweGYy5d4+Hz2DPXncV752C0qt4b9sBXLnWiLb2jj4LxsIAvQwkUA/lFAra15offn9qzhTasBPkZEW+r0A1dXRg77ELSP/6DK43tMAmLaQYtZugBtSr15vw1/f/i4qaRo1W2mReV1cXF0SHB+DZ+dMQGxmiXVlW0u9A3XU0j46Gswgf7ofxsRGIDAvAqLBADPHykA2tnc0trMDqtAzUNbbYBVBxhIEE6sGcS3h7c4bIiuX5xEOJmD9zoiWv9dIXoDIQPt17CumZOTDRaWRvUgMq95mRlS8oEbIifnAKCRiKN154BP6+6qaCvON+B6p8gL7mGZxL399BR9F1zaYe7m4YQkdHZ6cZjS2tvWqNgQRqVt5lrNikPPrvmhiDlIVJmnMUC/oC1HOF5XjtvS/FpqpP4UQzuMBkakeT0dSjItACKne8dc9J7Dh4Fi2t7arj9EbkTZV89wQ6We7srapQ7nRA3U+7de2nXysEyI7Kg1MT8MukSYoyngk7OCn/+Bzl1fWKiQ8kULWcqdjIILy1uH+dqdVp+3DoTKFi/tFh/lg0awomxkUqypjAPsAra9IVZT0BlSs3kZLYfSwPlTUNMLa2kcPbAYnWIP+vtsGIksprtGYuiv4Dh3lj5fNzJM6notJNgtMBdf2/v8EesrHkad6MCXj8wTsEG0deJuYXv70dxeXXxKzlOZBAZS23jLx+jlpYp7BAHyz73axeF8lWjXqtvpmctp0olkU9vCkyk7IoCRN+EmE9vOSd2z65LE1C40xvQBUbdJIN0E62MUcU5Ehl8J66UIIN6UeE6IPYhp+sVd9d8iiiQgOtyarvTgfUP76bjgvFVQpmP3jtMfKmb4V9FBWI4IxAZa2Tumkn8i9LQ3bsZD6Z/HPMumuc2lQsNFuB+l3ZVfLGvyTNJj2KR4YMw5qXF8DQQ1jIXqBamO3h5anlaaipa1bUWJuyANHkw/SWnA6of17/BXIvVSr4fuMPyYiPlsZC5ZWcEajM45pPMnAg+5KcXUFjpT43B3FR2t6vrUAtKq8WwkZNFJayTqy536SQmS/FrrWSI4D6dOpmVNU2KVj40QJ1y64sbM84rZjQpPgIvLLwPtX4W/X1Ruw4nCuYDBzclqeBPPqZl6LyGixevV1hW/PRx/HE2b8Yh4TR4RgVPhxuFL4xtpkoLNeA2nojMrMuIKfge0VbecCfNffKj/Ygr1C6yQ10EbLw4TuQrBEKO19UIVwonFaJfWsd/RvSD8PDYMCoEQGIoqhORLC/XOSSfB6Nkbpxl0Lb09mPta8++uPUqIfJGeBwjpkmYZ0Mbi5IuC0MD00bB58hnjxH1DcZcTKvBOeLKnGlVjuuN9BA5djm37fsB9+GyW+YhDkyYCl8F0ChGjYJ+NaNoxnGVhPY/lNLcqBynXf+lYn9WQWK6mynJiXG4/YxEaTF3eiGz4wKcjqPny0iR6paGEuNLy2grqP49r4T+QKvw4hnP28v2nAGRJKtGUoa3NPdABfacOzg5l4qF2LidY1GxdzHRIfgT799AL5DvRQ8ywlOd/TXkmG/jG63SiqVV6HMPGshvk1koKoJVz5Bzg80UJmH0qpa/I2cKg6Y28o3t9NKakDNJcftLxSeUoc2y8wsjE0XiAQk6ZWs2ji9AVWtja00Hv03FImYe0/vlx7cp9MBlZk68m0h1m7NpBspqafMZT0mXiEV+TsDUJlvBuvrFFPl2zZ7kxpQ+Qp73bZvkHnyoiZY1cYVNj8LTia7/ydQx8eNwPJnZquxo0pzSqCywI/nFmMb2apamtV6NvwNQWJCFGbSdwQ7D+fh2Nli62Kn0KgiQ9fpQiPtqxP07UKpcOSKdFufnjTXyBB/3HfnWMz8WZyiWavJRHLLQSYdzfXNNxTlckJ4kC+mjo+hK+4QbPj8IKqtPHMtoGo5ePK+5XneEPwh0z2T4/DrByaTuWD7baXNQH06dYt8XLDt8/rzyYJNoijsB0JNXRPO0XXqgewCcixayF4zC0c/d83HJ1/LToqPJNtrJGIigoQYawMtzpotGai00lr8pdboiGAJR9n5ZbQwhyQ0zvB3CS8/fq+Cbk3g4PamL44Sb1LHxYcuJV59IglB/j7W1RXvPI/LFAQvKKkC2+T8wQhvTl5ITjw34UcazkC3SEH0wc1tI4KFu3EvDzeE0fW0L9mFWon75w3OH8Scpnmyo8Wp22yinqnf4cOGYtrE0RhLdn9ogK8wJsc7P9mdBeON7hAXA3Xdkl8phmF7s7iyBudp/rw+HGlgu7q1rV34d9D4rNLZvOCNxevkSbeJP40Jx4zJsYLz1NevqGwGKu9UZXIRGFDS+5/CC8nCEO0v/rhBKzYoBKDpihA3L0Pc3dwE496aK+6PnRx5YoB4kDPQW+K23Ic00cLY0FbaBkI/1nPjSbqS8+hKiGKnxN7UQXITwMMdUd8MQK1+pfOybT7c/w0CaUVNvaCRjTd443XRF1MeGO7vjejQACG6YY9tbjNQ7RWW3l6XgD0S0IFqj/T0tg6TgA5Uh4laH8geCehAtUd6eluHSUAHqsNErQ9kjwR0oNojPb2twySgA9VhotYHskcCOlDtkZ7e1mES0IHqMFHrA9kjAR2o9khPb+swCehAdZio9YHskYAOVHukp7d1mAR0oDpM1PpA9kjgf7QiMdpJYl4RAAAAAElFTkSuQmCC;" vertex="1" parent="1">
          <mxGeometry x="192" y="520" width="87.93" height="30" as="geometry" />
        </mxCell>
        <mxCell id="MMp3bKSsHC83LUOIyMqO-17" value="" style="rounded=0;whiteSpace=wrap;html=1;strokeWidth=5;" vertex="1" parent="1">
          <mxGeometry x="80" y="429" width="680" height="3" as="geometry" />
        </mxCell>
        <mxCell id="MMp3bKSsHC83LUOIyMqO-18" value="" style="shape=image;verticalLabelPosition=bottom;labelBackgroundColor=#ffffff;verticalAlign=top;aspect=fixed;imageAspect=0;image=data:image/png,iVBORw0KGgoAAAANSUhEUgAAAaQAAAB4CAMAAACKGXbnAAAAw1BMVEX///9ESHZ9sLxcfaI3PG8/Q3NCRnU6PnA9QXLBwtBBRXU2Om4tMmp6fZzg4Oe7vMp1d5hITHkxNmz5+fqr2NBTd55fYoeGiaSVl7CChKG43tfz+fiMjqfn6O7j8u+rrL/H5d/z8/a+zNrW1+Da7uqfobaesMVsi6y1w9N3k7FOUn6ztMXLzNhqbI3Q6eTs7fHM1uEjKWXb6eyawcqHtsFZXIUaIWEmLGe61Nq00dejx8/M4OSInrmi1ctyqrejtMlBa5cOx8dSAAAV10lEQVR4nO1dC3uayhaFljeICAmiCEiRJuUh0URtmjTn/v9fdecBymNA01Nr7GF95zSNIDCzZu+9Zu8ZSlE9evTo0aNHjx49evTo0ePfwFCH3mwySVNTG0/COFEv/UA9qlDjibBdrbYMHWmalo44Zbvabjeh6F/6yXpgBDN9taVnceKUPvQD0dOU1TbynNYv9vhDUENpx8yGGflo4Gk7xYx7e7okAk3XJ6Jx+MC20Q/XtqdT/FfHM1dS2EJij7MjSZVRrfvnU8qd2oub6fLmZpl/ZqhjhbV6r3cJOBNl40FH5s5dYEIu+tB1qfnPJSDJnU7RJ/YC/qlaAucZ7dfqcRYYIe52QML0Zk7ZNzcLap7TYthz155PbXtOUdOfmD1AqZlc8oH/gwg2yhg5sPnPxQLYjHsDmFq6+VFA2xx84N7Y1GJuu/jjxFTGvYL4g4h3UW4WLvZqIBihn+4cyoVpHpMMKCQAf/gUw1Oifob7p2AMtoOyTSwW+AcgCLm+5RI4Phd+CLygDUiCv0PdF4x28UWe+L8HZ7Py8N9cG/b9AsYjgDn0bsCgbgAz6PB8DkkCdE2BMQH2AL3adnahp/5vQWWF3Gm5P6eQBUhSPj9CAJTY0zkwo58/AYnUElIFDAqfEa4Gvco7OxJhBBXDdApYmM7dnyDgLBfoV8rAk1l7YVOIEhcAhqQpFul4ehvrac/SmZHwJpq+gjiEQtFiYc+BRIDkLG6W9vTGLZ0MhTn4fwqnTyg+wQ9FuWfpvAgkzBFgxUaqzYXCAPa+ay+ByUBNZ2ODcpGwW4CQZIAwRRlIisMDiZ5euBV/N5xRBDkyoIxzgWZD8QgIbkDJzdReuC7QCvYN+G8K5QQWfBCui20My3FRH1y2GX81jIhGmgFEoPkUGcocOjTo4ZBUmCIJB36dLyBraMJkUIWzA95xeYPO8BTrco342zHQA/RzPqegU4MTVqgGwJQIEAUMCYafPYBnQ7IO/gl+dRcwnQczeuCb1kq8SAOOwMh838+uO2LG2+pU1IZkUdBeXPTfdJmnHxBltr10l9PlEqi/JSR0OcfzqSmMYKn+EbPiw62iK8pVZ0VURdv/fTFdUPuSEXBnmCRoX+4NnM7CQDXFZoSNC/y+gLOlJXKUlK+bF2lDN0SGpmnpqkmKWOQIUBoVOjYcYJaQCRvaztKmFj9t9+cip2x6AzPg+SwXsWpT85/578kqvEwrunD9JIU7FJDcn9A0XJz5dhFJLtLgC6DvCkps5PEA1hiHfITtTnGmb/wB3crVk+TIE/wXoOZwNxe1cqi2bWhcMOTM87ydvf7++PTp06c3CPDz6cfLGh2Yg9nUEjo8Qavf4uK4epIGUpb7LhvLbneJf5mj/M90MUeGhWTB+jvgB1JTBvj98QWY2HyBRWC8+3AK79pJSpSYQqIAkbQEMyJIEporwcOHFKq9fn5qEHQgCvI0x2Ii3Xy0GuC1k6RtDEwSLOMt8xkRKk6gic80T8zZL48t/Bx4+pGHqEQZXrJFBFw5SYGOSkjQcqCUducg/BtYTQPhNkeZb+Dmfjy12VCFp6fviKbU/GDzxisnSYt8EE1cJBLmeLXWdGrgGDXN6+Mvj6cwlJvTM4hw4keLStdNkiqDWc0CiW9Ym5iD6A+X2OH6wxJqb+PlJCMq8fRjDUzp0g2r4rpJChmY/F7iTCoScUv01wUqnQPJ9r1VK3TAjvNc4EfBdZNEw9qCjdZALg9Z1Dmsk8MZ7I+3X6Do09uLL3+stMNVk5Qo4r7MmqdJ4SKuJao7rE8PRTU8UoPRRdtVx1WTNBHgjAb4OSgbYAbupigQUe8NRRXYovKhVrVeNUn8GP4Js0BLyBHO/SyXVPb8K6Foj7fvBvOh/N01k6Qq+zqSjUuwUHobR+etRwH83eZyzWrimkkarhxgN3hOtMAaz1g//xs/V8D2lI+UGrpmkiYjvO6HyhPfRvZbGAL+bh2sPlJQumaSmBl1WFD3m2wI45nSP1JQumKSjK1X1I7W33/8K6lQxyNlfqSq0hWTpKKlPfbL8+OnX5q0duAJutKPgysmSVyp66e3dn7e3ory6/tJsr3tpZtXwhWTBPrxmUwBoObpx/PLC1zG8PL9VyzNHW5Ja7uCeKxtonQSDo+s/HKG4SSNwJleckwmGoEYTrQInKyFCXk3fJ0kRww1M9pog1A8bQWaL4Yz8I10YsWnZiXVIXyodEDeUpyJFjiqaZZ4ZOjMWOoHiaFPP15cX324/+f19dvr19f7Lw8ZXNnwHqLe1onSaI1q0TwjsBwnCTzDm17r6wWccANOwGcyDK91CEV/mMKLseBcjmV5nh+QTq6Q5Hjw6vkXGJ62jlmY45nocSSOFQTwhXHL8wSRCYBZF82iARweZMkGHNvkfSKmDHoC9MSjuKv6NqapxrT17el5nT38c/f58y1E8ePu9V71X04XF1CD10jKZjzP0XtwEk97xMfKLJbhSmfSLJO2DF9nRjMsXQE4uUl+iaQspCtX5zhemHWZkzOTGKl8B05gNsTSc6DDbofX8jWGze/BapgCUZY4TkbJg8TcH0UPwIw6ym+TTY2kt0/Pa/X+9TMkp47b27uvD+tTkxFvL9m22pBgxNM1cIxGGENe80SaFUhbp42QLtNeQKAbI/1AkjgifIXnZm0+Fd6jeQuJIe24D3TYKECSOhIO185XxwfwEXg4LC2+Nq5AR5CHK0SaUk/lnn18cb4AhpoEVXg6aTb19uKsKiSJkoRHIa/rssznI4lv7JUxxjo6BB2dDk8V8LDnm/bhpAy+Cge8li7rOiNI+VCvG96eJEvmSt+QGSFnjE/JPi9Lc06B+YA76EzRwazQ7NeCJJXOn4MFkPNuCHjMmKEx+HLo/oVF6a0slUmCy0gevnYwVPD07X59Qjn97cWorC93Rui5+dHAC1Q18VIBN1au7cLIUBOANQjmTIRnDscm7hdhU+tGNcLDlZUjLYTnqsNZfi43qvmvgqSJju1ghL8hxmMz50mISIEmwPfgWNmcxYmqBqKX0vnQ0Gd1N5BhkvwNi6yDNtPBQCv25WeQJMGiNL7UD/Fgkw+CxrhqkvT29H395RvJyxF4+vzVWZMER83dVSxpgBrLH5x/kOIursoL30S+hZUmwb4HjASPZmFTtaUM9YXEpKWXiBkJvgDO7jdIslAvMmZJWhrBgMc2zjS7SZXRIYkfHB6HcuIIO8BiUWmdJAs5to3noO8UftSHjRBCTwbN4w7v+vG9ERpXbNsuSS3NY9LTS3Z/dxJDuTm9Aq93jKRyTAoQI0xl78ZEQEOq0jVj3MVmrb+GaLTztR1qagSC/qZmAMYEXoLjq1eAJHGjGTzENsRUYmJzYeoO1Y8QR0I9/vgW9lL1zBciaSQK8P4N9+VDA+RM4LwFs+ITVHwXuUUyjjlI0tvj2vl6mhGVeLr74nctf3hbq9vSXS1k67WXCEx4Tq66DDjMwOOOG4MqkGCv1MNrwjCE9xKkcGQK1VGOLIlj0QAgCP8J8rHspnZfbOwMYVd9wqGO1WuqTIFDIZUAR4QIh9wB4Ig1ayJFRSOzbXE2JOntx1p9fS9FiKbP9/5L+4rW6jxpAx+QrT25T4+qowc/bT1MIaCwSzO17hqSlLCjwM6o+kYRR7qmNeZAHopmqnfOhwzx/RQBjbqcrjKuYBo4hiTpc5HIjRqch+jQiCxdwh219h/e4edqNN2C4NSmIdbJ6nBTf4TcQ/3+au1xUeASyN2Ieuy0cu8EWoxc8XcFSULbzusB6iel3LkZ4qFtgCMlB4Js5UMF0yATRUBOkt7kwtA7/F289dVWPXd7QAdNr8GaXGm3vW0p1uIh1NJB+3YjURSRD/rQGDn2yCUQECPV+JeTxI3apkMZsvWKQ0bju24rpcP4khWbwSTx5H3DmCSeNM5weCaPwGAVBLf1bs/x+mWP105zurvPCJL8ibL0w40c3EVH3jIJDYkT2lJAMewU+ZSVsY7eaDImqf3iMCGAHN6hzx1k/HL7K5MirmFKStdI4NsPikjRkF0IEGBZtctfvxZ4sNIcg4dufwhmuGrDnB4ri1h93KDud0T50L2wrW+CcGCoFk7a3A77SqiIcExS+8WByzG5KrWxTA4gewyRGKlsIFE6DAmTRD7owEuxLY51FVJ3lQ53vAKqxksI7OYISWiG+8V5eSzz9Exx5TGGnElDOVSRwFYwraZiANUE+qTrCgVgzoKtyDus7joMKbfUUkcN2HYXhIGn5+VrIuHAt0xL+cbp1WNcy9JsM6Wqvkzd8RjKcJDnP7jjJGFzgom9ImP0tq5mhTxs67TXUXawoLeL2l0i0gPKKZWFqIWkzgXqPk5GFNfPkPETovwBY6FuGkrDtkpARLS0L+LaHw/Iu/sKA6qeS1XmnSQVib1io5kdV3bO4iYDbRpZQZsDgQqQq09VSoAktkkgw/DVYDgMMUY0kaT6PK0GaKl0kWnD+VC6U6g0mVe6fGqntUjtx5Jd4vwukhBPn1+/ZOuXH0+P1Iyv3GlY5EJ5PRrHde2NG4FHk9ECrLZI7jAbzrQNo8sMk7sBmkwSWRnvga6/zxRg71dP/FSAoiQXldqidH2H74g7sLPbSDKU0KgEJQJJUko5ObKHE3gCBvXFsY2oplXy9DONE8DcwKv3WIZn5EorsE+vi48sNHVUSKSrILm77uIeomWvTLwKZWSgG41KDqypWErgOw52kUSZJvVathMCSawmrnSMbXKiQf3voVaogK1WSlUUjuV1aVZNYTH0CahF8myi8FL1DA7z1SSJi7rjGRLh+15EzpXp1qNoil6m/jhJLcqvk6ThSlVvP9/t4RBJKrpPPm5JGHeUxTfCp5MqQnm8c4JSfuFrQqitHSPJU4rimsTDcg+0t2gUtZB0ZLt1gkgqHICGVEH3Ak8YSSrnnIckH4gTQI1YwFB+B0m3/xgb0swsmI10vkyUUKqi4Egtyd2ovAVsIueX0fk0jMWgsBSyuutSjhBVklDz2ycECCgJUi4EnYckahAZ/9wNdwyCzP8eS7p1gl3bWg1vEOn7eijNHdQacneSlojdKHXJAKcReGGSVIVIiwSvVwJrQJPTj+juKHGXZN/2LIx+C0m3r9SkNUkG/4WLeBzpuZ/iuKLnUFFMeserJ73c9KzGrVpI6p5LU3GlF7Fw6EzoGqgB5ZaeiSRjo1H3w99M0oNzbDemn4xZHIMOSW+cZTn53QIOKjGxG4Ku5okx6ZjzQraz13NDmW5XzBgqTgjXJPgZSKJiJTDi30vSN2rGHU8MqDPs9PaT+k3deXQDJ6lHpDizI5PU2n0IBrr/3v0GaNomd30DjW2pPpk9B0k+CPHeiSTpWfCQQ/3WYUgZe9KL3POieGF0p8xMSti05mz95pxSPG6meIHCnnRUGqE7N9Hj7F75gc9FEuXpgaNzp1mSyutYZO289vrFN6C/T1u7i5Jf+xUYgcCdmkEFMIRWQ0IyjUASzXf5O69WLkAP15V1N3Bmo2z6ZyPJj0y8BOEUkkbF4biVpNtMJRbACUBTZ27/ihtczzhx71nQngrzWmISLXWMAFxNKck5EZdL22U79rcV6zwbSWBCO6SY30bS7T9USp+4E9PHJZvi7DzKnPbdDpJQd5NI6qpoYZcvHDjB/q69YG/gKmHl+PlIojTeSPR3k9RWXEekE0Agzq9aUjbq7BatsiYZk0QyDdwWIkmgBS0XR0qtem+0qqJlvQKVL8jgokqzzkiSqkzyBW8nk8THD/cFKjZ16/gMaa6jmoQXd+HgcQgDeNmATnZ4FlNZjaVibUhY1WG25O4gOJqsHQyTbRw1UNZHakkmxXgpUdU0z0gS5a1iCj3l6ZYkWloOq1yRur2nUtJo9SSWbyq+etUMr8+liaXNEEhilj4cwWGbMNvM4yuZJDCvImkaH6+w06tdLqIcmZCSWBpi1VBj8JwkUQPFUeGizHeQpPEsAq99+Vbg7vaV8rZNZ+fAdcJco7yf4J4pUZKgCSonNEKHj5dcCSX3puHVuXVCYWBjW0hCYnLUNFQHL2Hl65UgC1lLbcEpAo5gnFS7+1lJ8tkNJQL/8R6SisNjNS7w8M0IFMIzqkjic7xWXbCIU18VeRTL+MxJtV+CDepFtpx9yxcAVfvcmfDgI1horxZIce7OQ1U6blw1JsOLMN+NaZSBDYyNapv1Ai1fDF4fj2cliUp2EyrmuV8gSZjFCq6HMvqD71SyJHvkKQ0h2m/u84NJnnCoDmw8eMGYt9T9SvdkgDdxsZV/OBCHEZpjZkWd13DCCHAki9AXSU2SOCfGKxpHs/0WT8OJTTnfVtF0hP4mXyVu5qvv0eOM8x0hzZcgnJckyttZVCjTv0RSPsmSRk62ack05ysJOUYaWN5wGI43Ol7z3ljEG+ZbQXjdHIfe0AsHxalC7R93DDDLnCCnsxBc00rRTkLGQvkariJUiq0vHrZUQY7GVgguPkuZfBcfn5KDFS77czy8iReH1iSScW6YI+j5M5NEhasQZgp+nSROCAyzdZdN0fc0C0yO2ReVmOaCgKFcLK4QwKl8cWrdWVJFWgn2voCuiVX0GCfVqiW+/SayYb57k2MFdPF8ExdH2CSAMZPzyi+LHqf4As1zhKaemyTK2nmURy6fn0KSJKiG2aKeIUSOsMmSmJpwUkZqnMqzhKSeKDT2NSIXlDSK5YftmI7JNLZjckzU/vrlZNP8Ai0wY1Iq4uwkUePtjHK2v0gSK2X+RunKjfmWUt7OC0xDadkCCf914crKBVbWm0UjiEzb18/ReXqEhnegC4JQmYWKCvgk348iRnq5OswJOtP9huxhpFf22bKMMiA/+Qret221EHwovYUkTQaPd1LaMtwOYPt+hSTZNByp1dflMOIUbjpFIkNWorCjKqF6piKjUxlG57X2TgwsXsdLuRidKd4OYMwAxuXLB2P4UWFbwWykyMVzcJPj2cIg3BSPI+vyYNiW0JvA+7alnuAjjFta4sGDp72MKd6ZvqHJ7yZJkkMqkU/6R5sDEK0B4uBoes9P0KnesZdRUCq+5PBdr+Z1RHTxWDyyiWCPLBnG6AsXf/mYKPAJ5bHC+0jagdmetSK8PaHHWeCYu5DKxrL0HpI8KktX1gd7p/5fDWtnBiBy704jiWPl0DA8Sfpgb9T/25FsFCAvY1ETjpPEMpoKtdjgI/47fn81jFBgPYMSN3h5XCtJHC9oAaVOlPou/R5/As5Yh6vZgskI8NRCUspsgIYOtJ1EflVYj7NDHeu7cUIZyXgkp6JcIQm+l0f24gDOe1ZCT9EFkVnKSrYCOEEITEGBr2KSVyqvK8pIi4F/M0RtterIpvT4M0hmymplemje6ajBQ5I4ASogZMmMW207UwY9/hiMJDRXis6b43AoikEiJnE4iGR9JQy8nqEPBCPxLG3D77bb3Wq71SVzEpK3U/a4MAwfIHDgnz0/PXr06NGjR48ePXr06NGjR48ePXr06NGjR48ePXpcHP8Hsbs9VKs/kooAAAAASUVORK5CYII=;" vertex="1" parent="1">
          <mxGeometry x="150" y="585" width="105" height="30" as="geometry" />
        </mxCell>
        <mxCell id="MMp3bKSsHC83LUOIyMqO-20" value="" style="shape=image;verticalLabelPosition=bottom;labelBackgroundColor=#ffffff;verticalAlign=top;aspect=fixed;imageAspect=0;image=data:image/png,iVBORw0KGgoAAAANSUhEUgAAATcAAACiCAMAAAATIHpEAAABI1BMVEX///8jHyAAAADwvxo+vrAHpd7XoikBm48SCw0cFxjNzMzvuwBTUVKNjI0aFRcfGxzl5+j4+PiZm53c3NwLAAIAlon058+WlZXVnAr77c1MSkrGxcWoqKgAod0VDxHo9PuZ0e25uLhfXl59fHxBPj/y8vKFhITY2Nh1dHS7urqko6Miuaqi29RqaWkwLS7Ix8f8897++vHquB744KY6r+EkDQAjGRaD0cez4ds7ODkuKitdW1z66cL114nyyE3zzF323Jf55rjmu1Toy5bdqibaqkL00XPt1q7iryPdsFXivHIASWmh1O8iKjCz3PEkAwB8xekPj78UfabV6/cYbZAbYH4dT2deuuUMmMsIM0WZsL1pyb7I6eVnt6+RycNDqqDB5+L9YtEXAAAKSElEQVR4nO2da3vayBWA0Th2RthoBMhRDLKy4iKQHCDeTWoDyW7bbbO9bLf3a9Ld/P9f0TO6jqSRIDaOSDnvl5hhJB29msuZgYc0GgiCIAiCIAiCIAiCIAiCIAiCIMjhcv3i4jVw8aLuQD4frl+/+fpU4JufX9Qd0v5z/RV3diQSuPtF3YHtNRff5JwJ7t5gly3h4usSa5G6t2hOwvUvK6RF5t7UHeT+8e3Tk19t8MbNva47zv3i+tdPT062EHd0+rbuUPeJJ9waZwtxX17XHe3e8F2sbRtxR6c4PYR8m2rbThzmwZyMtm3GOGxxnO8y2k5OfoPituFJTtvJyZdbiDs69MmhXdC23RD3Vd2B18xvi9q2yX8PfeGQH9y266kH39qupdo29NTTo4OfFX4n11bR4E5Pjw69sTUaL56WcVrC0VvMecHbkzIupLw49OwDQRDk/xq9imd56o52fyBV/P4yz8vv6w54P9CJUsEfjgtcXv5Qd8z7gGNUeftj0RuY+1PdQe8BLq3y9urPUnFf1B11/azVSm9/kXk7vvxr3WHXjsIqvf1N6u34Zd1h107ltKD87O9ybwff4NobvP2jxNuhZyPju3k7PvQptTp9K/f2z7oDrxn0djfu2E8xg8P59G5s8FaSv13WHXbt9O60Xjj0NKTRmNp38IbLhYZfuR/y6l+y1nbcrjvq+mlWDnCvZNqwtXGIQUsx/l3Y7718iduWAVangv98keX7H/ATBgRBEASRcntexuNHUt49f193zHvB4xLO5dqAq6sbTEga789LxJV64+pu6g67fv4rFVfe3CJz2FvlDW6Dt0dXH+qOu26kPXWTNhTXaPxYFHe1hTfsqcUhbgttt3VHvQf8dP7R2p7XHfNekBF3vrmXorYIURxq+wiEMQ7Hto/h9nzrwQ1nUpFnj8+3Snjf1R3o3vHj+flPm6xhY5PQvtkwJ+CEUMKzm6tSdVdorYL27SOZuqurdx/qDm3feXZ7A56uEmPw580H/H7DVrTf3z6/CXj+4T06QxAEQRAEQRAEQRBkX/Acp1l3DDtBtxzrE16uR4h7/7OYruvd/yz3okkM8gk3q85U2rr/WUYGMe9/lnvRJMpn4K1pWWID66kUvW1Di5Az4eWIkB202nvxmXij2kB42ez3u7uK6I58lt72APR2N9Db3fg8vJkH5a3p9mxij9xFWiR463qd4XqpEqIMfDGCtjWbE6It11PTmfA3LN8fqGwE/wCdRlDSEVYdznRkE200a1mTqETvrBVC2Ggw9D1hAgnj6bnCseOm1Zr1Vgaho2Fa3O34YZ4zMVdR8GNrtjQI60FQenAu8AYV/dncyN/APRn3CFUZY6pNlknwqbczQqit8t9zY5pB+slhJjG0sNSmhPB76RFDhddGAOF1xDzEIcRWg/qUhG2yPQtPweAUBiFxRV2IR4/KJoQYVAuigOJ1XLVPgus4c0JJaLMVnVKFoDqRN8NaRqVwAztbPepEU+Axzm1iKCqJW0LqbZb+DqqtKCQ2OyBgKCo3aFAM3rTYW6hByHtNoihafKJpoE2hcMH0FFXx6MRIomCKEYvr88bkMShioRCISrHjilbkTTHgUQXAcyPxo7gvqqoQfwx/jH2uouDN8b1md8zbt+4SRYvSWocoqmLp7XZb7y4cc8aj8RxnprGeE2BlvU0gfLL24ICxPukH9zilCu3FJVYrHhc1xoR4aFg4bln9ic5LG4sVU2Kd4E2dEQYPcOnyCCx+leEiPGfY87k3orT6vGzRo4o93Y0200gfQRfatJn3JuLaCgmCByNsJTtbdl5Iva01hTiZqm14CLPiGVpCPCDb6BRqjIlCoz0H8KaoKpn70RFU6BARfHxL++aZppDGToDTpvssLmVqdAGpNz0JAu7IKb6fz0MSbyAp/6BBiqzPENEvxKMUq0xtNWr13Bs5S7QEY1mucnY+5a8mjR2wIOID6Cb3UpKHwPvBur2deYopZd76xXgX0gQBKhrpK7lb34ht9rNhmLTYmnJ5iMTsnYCOJXaW2EuFN6fq+mXeJHfUlDpplcQjYmW8CW+sNfUsXznnbcl2s0Mz0Kg4gsyZ4Qd/bPK2gkRBsmQv8za1WS9XdcwnmUKDW2fjWcXxiJR6WzFa2GzNeRto9rAY9sezZJlxKtGV99bmc545tGNvMHwzcuZPcjde5m2tFeeAkQp5xszK2p9n48lt4I27TcdvnbESb9AJCpZz3qb2biZUGK+HVsqISbx1W70ox+LzVXhbbcWAqQySqtXUEnpbmbeeWnzMXZ4PQiZKRkNnvCkeyHxmShSFqpR7KwweOW9DWzaJfzw8TzRSmBLdaOqtvSZUo0aSN8bNoQXrCL48gFR/njSRMm8jJukeOqTUNgtWAGQ9KYsn7LYeVLWjKJQKb4VJvuhtJwtoCIJm/3OE/Pi2pNC03CD5zWUJixaswQjlyXocS2l7k3mDZ+K4IxLI06LrFuMJWpBH+EVMnvy2y8e3T+qNmt0MYZdJvEEKbrSE6rnsdbwwlyRthWXeztTyYUX3XM2IF0Al8VAY0pLhoMrbFv10J95gHJbmM8IEwUZiZKSY7kJoWrRiLPM209R14TiBTrwyWEnj4Tef7iiUejOUYpLxQN7WJftsiTeiiImB1BvYipNVk2YyqMSba0uXZSmjqEHK8x/LEP2UehtJWvUDeXNpMVXkCN7EMUPuzUvCN2kmT0u88Ruv3Ppy7bDJxv9m6VCFpq9KvUGWOM8f+kDevJLtUNGb0HE2eYMlEBPeSLw1pYm/QHw/jjQef7v25hvFJcgDeWunmwsZEm+MiW1ffvvpc/ayN5KmrTAfjgrHCayYHYTBNzuKHdXJrMlKvXV59pc79IG8NWawBCguZVJv02TriKcNycgrtgkrdd/NNsjUmws9bZZtSGPh7yGNB35pPLooZDJLNoNy3mD1o+S/WPFQ3vhP15O56fX7fc/xTTfeHY+9wXWZ6nS7Tc/sEf6rvOGm4pDMB27HcjyrNSfCLipPKFp9z/JdHmzqbRxsxM58x7FMdxacmpHRrOU7nmMNYSGirqrigTUZmTa7k4U1tYkGqXJvIvMWbO7SoeXAkcOB85De4NqawsJc0zCocZbz1pjFG+KwaiA2rLSCLX3omlqQvxuUJ61JkuCHiathBCaF5WWT364WHGAbQeiUqbAO4SWw3qJUT+JRi/F0CQv3vw1bI3wZoQbtKu8N8hnGFxzBVZLPFx7GW6Pb45+82DRcxSzDwlH6Pa4hD4K/ydxusLoKvIVLxXDtMxAGY6htB6W8QSyFz2X0QXBAcJlgzlVCM+Ep3PTesvFEo+KEkejYtdPoLokRrCP6UCHb+ZsQOA3DDS+9yFaZZr/Acj90x3Tdluk7zW58CV3Xk/FHt1puy++HctqeGQrV+daEy9/IRq5b7nRoWs127izQV70O1O84i1gznKLDT2HltkAl8YAAKDPjTxAnfvAhYRsuIL8ZODaKN1tlLDkCQRAEQRAEQRAEQRAEQRAEQRAEQZCD4H+PjyLPpl/PmwAAAABJRU5ErkJggg==;" vertex="1" parent="1">
          <mxGeometry x="445" y="220" width="172.78" height="90" as="geometry" />
        </mxCell>
        <mxCell id="MMp3bKSsHC83LUOIyMqO-21" value="" style="shape=image;verticalLabelPosition=bottom;labelBackgroundColor=#ffffff;verticalAlign=top;aspect=fixed;imageAspect=0;image=data:image/png,iVBORw0KGgoAAAANSUhEUgAAAToAAACgCAMAAACrFlD/AAAAn1BMVEX///8/sEo+sUk/r0r6/fo9s0k6tEbr9+xJuFP//v/d8N/S7NU8s0c+tkrb8d2e1qOV0Zs9uUlcwGXu9+/2+/Z5xoC95MGP0JVlw23s9+2Fzotxx3nj8+RGulHQ7NO14LlVv1+l2qrF58hnw2+54b1gw2ms3LCU1Jqk2qiLz5F4y4Avrz1VvWDI58tsxHVDvlBRwlwstDtbxmYurjtRuFx4iM9RAAASKklEQVR4nO1dC3eiOtfGSAKVoCKoiKAoCoKX2jnn//+2LzvhDm2tnfNOv4Fn1pplvUDysLNvSXYkqUePHj169OjRo0ePHj169OjRo0ePHj169Ojxt0AeaZvr9aqNXdOy/nRj/n/BOqkGpRipvp0sw+vIlP90i3445JHJ/uc0WYuAIIQwpgyq7YQb80+37gdD3sSOy5hzdnyIuskZDTgQotS7zEPlT7fwJ+IFxGztvYbs9cnQb2N4U470lDtBn36JRn+4nT8QsnmwDUJvKyZsKh0QbwuCJ28vnLvsP3z2olGv9KpYRXeDYGPLXk7OjCfqRTA65cW/hdxx8sisH7ZVWCPtEAVHJmqjGQaSSMDH5oFTh/JBy8jT1/s/3dofB3nFbIQ0NQZDJnUzDd7a+rgkdSnofdd7eiks08oVmLyfqzqmKrcToY4bxKHBEJHE/XOt/VHY3tdxyevdTGwfxqQcGqhKWv6K2Js/2uIfAZM5urs3Soh6dMbpe/IIiLHCV8LiCTZim2OWDejrn2z1T4AZM5YmBCwAOTLD4O7zmGGTMAQzVScEg/qrmlrqd5w72bkzczAlwIceM9ZCL4hS4ZMtgDnanxL/TKqSB5a223InL40Lp44J1cBjTp21Pr9ewobTa+6dS8ViAJH00mF9J4ce5tSdEabEZ6/Gv5LFqvW744mt13QeuXXXzu4vGN/ZsNu9+rPj0WFRwvjwfnpkFLEIrTJqidNV/8613844YLLmQkbTBWn7MD61rjeCBkVQO0BG+D9q6s/CixTb071iydU3P8RqqVdcFexr/2UTfyzkQlOBJX0sDbz1KtyRpLv5TwvGqTl1nNvksWTSVq3EZur2P27gz4TlXsPlbWJJK5+cH7WWMuOuJHZ03T0rK4+2TuB79Dxfvcjrs/1w+lfe6Qjl5CG9e2KnrA0C4oMhLxffN59ZiALyUi87d3b3tN1JH3KxYaxJ22YA8QGUoOTfIdI9sePZYNZ1zLpuWo8LHcOeVLRdxyYrZB5+gZ9B4i+HBHJCSr6dN/78F38RzNCSFA8z6qjxRDSleYWH0q2QQpb2HgtdQ4KQfls8Md6suBiyQ5J0KpKNDMeUzMS47J6zj1e10Hb40inXLjDUBSMghmyl+8S8qrsujCzyujS5uFIxTPTLTOSsbfLEYghrmvt2aKDvfn8Lfyw0YzB44x12E2P9zJg9FCN2qC875J4sDOzFME5XlzN9MO6vQpsVNhbPOxRQhG/qyeTOXajrh2euUFZ2OOiQnZjqsJBpH5qSHL0+NbFlznNlN0TH7jjFcrSVIfPmsdBVcZ6a17LiIgeAZt3JFYNllSc6QuoeMsRPXaJInyDUqVnFF5Mv2KT3Z4dahTq/S9Qpkeg5PT6p4ctJu25Rtz3jNO3xpJoq6zrcIV0HEzk6dy7OzwYCzMLmWfYuWVjA3iZoQBzm3O6fcYndAA/zZGeXFlC4sBws9mBZ2Gr99VQnw+ZSpE5ol6IJ7chEzdoGzL3bPRfDwlR2Bn352xv4c2F69ynskLAkTU2XDX8NpcwJo65LaWLpRvSAB2C7N0KeMBVM1XU0XwdLYOkbFxYtvh+/PmIPXjGLTe1O7UHREELMpTNd2FMXfdktMxNaqDridChdx/oeUDJnyj4IgbwvmliYFSpNxBrdmsOWJ2d9IykJU3mnr1sJuTwzgb0OeXUA7Z5Y0oIJD9bV+Vd1VWgUMjcA6e0UTGfLgikuPPRVAzflcYx9WixP7Jh9ZZA1V9qofA8ivqys6Av6ajUvr3SinVzXGfGVI4geLTN5PG9kTSsbKLzFf9nEHwpLFasf6E0y18bDibuTWt4+Qb+sKP8GuOuZqusUk0RaMV9l9pCllSNS2Vvsd03TCVjKNYyc2zGWFPvVe509wIIZndGwJHX6slNLdXJwV9hSRq5k7Q+Hw3bzaVSgOdVtdnTW0QoUVhhtv1I2xwrtsm1FA2R00UZwbO66PwtuoWRtQ4bdJJp/sGhsvPZwaVcse/FPlxJ1FbxIex8jaiSS8uvtbADI2Z+0FTKRzX1CyLAscWy4dnZ3HQCSvWBhb3g4BGKGA0z85aI6ii1F2908MqhtZKfdrp0g7wykB9IqKcfzxDs6uwXfrTgab/bhcu0TWqUNZC7o1jxYA/JEJyyacGhBCvuHKfX8mR0EwdG/61CLbVDHg37g3wxr9+or1jKXqsIMIMYgwmUHuMJcR92SCg6/xvKJ1ulpqXCC8j+Q53Qx/mri6lbmBj8H9SddTJe0Y39HjXFZErWq1JHZosteSQ1j22hy1w5CnF7NlaFEXrH+5j3wEmy3p9ao/NXQ4gvUb2odttlQpV6w7bVcE9ZmausEl7mqcEh1f77tdADxAaxRmPikjT1EWYgxvbYX3unBYY23iXo+G1B+DcE/Sgk5/0Pt6Kr0Ou4j8L3Y8ng7dW72bOb7FxaNzePdtVdwX4ClsNh/PB65fQXxHj169OjRo0ePHj169OjRo0ePHj3qkLWWbKM7bpsPlRla3jZbv5zDUsbaeLR67zuWMoKPWy5saW0LAeRqK+QSPmoFXK5ogjn+HdOW23uz5pR1uZ+ab4YOQ3OFoXzyTu8W5FwtouQIOeEgmbQsi7Wu08S+iI+1+sfhvbHk6UUaQyOcbNueuXQKxNOt9sFDnNx32R3cye60/XaidRSQe2OVtHLGJKq3wp0ZhBh+43GNVaK3rxOR3Vg9E0L5+hxybsztK6cLMbKPDWJXpxPlJSEzrf5Qpm/sm2/T9K/NG2tTBsM4G37ceAJZM3G+hMo6baen3XeX3MqhN8BOXZIU1p1znTvXxsMhbq5Dis+D86Tt2qvwQopNJMMBImRe2uVpHWZ8cV26onPIPl5fy0Nxqg9oUN8WOjGGg6Ge3U/Tiwvw+TVM9HjcRh6UT6HpUFLC69wZh9ZXatc2AXW70KVet0qBIwzIpMqda1OoPFKnbqRi9m7LLOrY0aunSPBFJfk4USKvvggKETUs7gnUNbmbwAa8gjqjMa+LyHHbMmy1GRrQo2i8tdtut+F392VsYWq0MTgVkBbkVbl7h7oYNjW1lDccpWeXIGrAQGcPA6SD3NPfK056SgKi8CkVE7TIm+YjgFOH6rsAgLphjTpkiOXKVCzZQ+q0wZ01hdaQk/hrPAmn39V1JpSfRtivqWNO3QDpFe7YgG2hTmwmpEGdUfdIeD+IflyGi8Nu7utw+JU+lfkwMR1xNgc27oETRY7tpUTr+WMU1A2IXWlcC3Xo35hjbntCQSAS1zs6PoIwUF8o5Rdr9O3FBlAFl93rXLuVkDr2NMvi2Cp1csR3sCJvV32IK1GbGXnzfXoJZbvGWM2+tjzzG+jHUCxrt7TJRUheXmVCTmtPULs8Zluoy/fNWuOJLRaL/nOqdii7Vqnmz/cUnWQdKRcNrFcJUVL1joxSzchW6vjTHDTq4DCHhcuUWvZllMmvTJXtxUBTl6WrbeZc8Kiavpd1l127xF2DuiGjrmjkKOZLIdG9qr7T2uZM2/2uNaOHVMsOaxKeSh2s3DrlctdGnTzRM9NW2feqHcWIrxavlzPf2brBTgmknio6SYnFSZ5O+m1BHfsiKfl3rVJXuospfkXmlVUsk6w++e+qnGKuhT6Co2wqCkXJnQrk5d1ro25kY6GZmbYryRdU/4P2x3L7sFiI7jWsE99KjNLKMrnUsSdbbAz9jLq0jDu6l902U8ViAf0A/6YqUVsPlpPzXah6VL49UMdug7ncZbaixUzIJyIO2ATVXHqeLigCRIN31i9ZDvSuQnb6Oz6uiHB4BXWIL80jeUmxT6mTFB8uQsvOKj/TV3TU+y1ix7eDYH8Pt8LHsi4G6oZotvbKNq9F6kYX+Gmy86Gts0KG9iB0tTFcwvjIuW5x508G121cIQnq1Dk/codk/t3n1Ekn2OSISrsvXGgmtQ/Q0d9TnOygMvPKtBxsN2eOSOn+nDqaaA5/7kR81ELdBDwpLxRVEoyslq7MVEva+Pbxuofnr89a0g4jvs9OVOgUzom3P/DDADJb8QB1ms8fXGEoTjqo0JPsUPAcf0PxlNWcXQmrG+aageyUz8AR1K1NV+gNMWab1Ck+FT9cwNdIUTiM/+zdHegs+IMOO22fBfAYVS6Pgjp9IfGvo3T70wPUKTeuLnITNQowi5JVRTwyuv7uMsgXaaHyDpiStQShYbfKZSSjLnNsudfGqENV6na84UwzyTZYzKLOQcCpe698HXguTJZba2VxLSgEI6dOPgnht2GoPUCd2FxFp+m7EKaDTeLCIq74TXDzivhZrLx2N70UQpJTJynHXO4aUqdc6HCA/4UO8YNdiuoaNg/OmuEQxwuvs1YxKwW48hCqPKeOcffKDTbYioepIxl1I2g35ecvLO7c5Hw33QQFcFI7ZPGirKRIfxTUSeOALz5nvrFSp26n5+bQhIJC6UCTcql7Z8WmPOFSd2r7zOHUVaUOfsEdUML03SPUzSvUhbzYL9fXJmgSdP5m4C9zn04VV7mCYsWXXAmUqJM0XlCOjS83qFLnBjxegL9fxH6m3CHgug6vv67r5EDPfbISdSzeE47izd19Th1vKNN1aV/EExdGZsuTAOvvbQnaQCojG2IWE3FUGkJl6qTNjIqgyUZl6lIVEqcpMBA7nD4JcRgxevfEyIWwsC0dGPGyPH7JwqaayRSlPPQEjP5nFpZdHuVljUL4YVa/wuSR5/cqHslzArlHfhw63M3jcXYmdmXqXqB0JPdNuTeeU+fecH6gJq+7XurEXkSj7x2aIPy6ZmWEF2nH/bqg8OtypW7GwleE4OcT6qaQlMFZbu5SuDsMW2H7v7P4e8G9XbROUgzhyL08wFO4SObOhubnOcuMuheZqxD0b3aBm8rNiXiefJAwIXxH7EQ0QZrBxvhSjyYKe2hFerbr4mPqxqAOhjSVs9CAACxv5lqkHb5hZLPN0TRN64t8bX7CY2XAMuzBBPP0VC516UFziJSvgEgCn73wCvYfHFR6gFHH3IfakF0JFzyto12jjskdSBP6jDorYeNpmBXnaTSTR7J6Y0rhcez9NGUyGAKy9H7madepgwOaq1In7BZ0I4WQB6SLbmtCP5J4VQ4oVtn59VbQmjlZ8mRbJXNS9sLMeZr/+Ii6lSjFlZEDYbr4TdZK3gv/6TPerVgISRlc7BKlnTqm2XGFOp7pQ1WIE+tEtyc8wzvQ56WMjDa/R+kls3xdXAootYQzl59Z16BOcuekOWCZ9Jao05xKvk4RVRvqzUSZdfs6rnfucKhlIK6FD+3UsdgDcw0tqGPOyBna0LzCQN2kbRa9pGrM50Zl6+qoFJFspEQiv06y4ieWFnsir5yfbdqkTlIEd+9InWxpDlg0VJx7J3JDtWYOitHxZcgOJGHwFDbNZBjtuIm8rQR1qCZ16aHBKJU60+YhTeiWruDyg+ey8MsNxOhiWuY4j+PkQogYjeKippMq/bNuO9FyfqSiphPyMk+2jTohdzXqEP5XTGGv2T3E3IQXpVRzT93blTs6jjyEhkIpfx2ax8QcV6dLxHFA6TNvo07a+kW+jqsQYlfVPKQREMrUyDggQhsiboswuyU8m198iL5IbsrdAFPYZ5fOK+LGjFgt4nS5J1+lLjcCaeUPmuvQA3fUa645DzuR8ZzYOaCk9WltuIOLOyQBvNvUdZI4cDmljquQRhQqL2EU0iz3O54TOqjt4CRBrp9XU1qdh0VDRLz6PGwjWHfhiXw8Dzs7pBcRYbpXP6J2yV2jp7TdGMOcaMPX51ngAYG+tUqdBK4cUPcijkmjjYQbc+NhfUB24dXOP4v8e2p+ie6MCosrH/wzrfTZsMuGj1HHTGIjzzGySXX2vzT5P0T0rDu56TlwL6Axzznmsc6/z4id80Z1+hY13g8NolMDzrNVzvxVw/lh37iwzq8SQ9dJs+CyFbEr6G9Rnr1SJjNPp9yuYer581prV+FNNSjmn1NdTapLUuSpgdldGoeRjW7YyNacaHDDAp4aTAo1JB9ZM+lrM0PjGIwAI3pC7BbxcrmcNmNza8LejzkhE/aV+NC89uQXuC/WFq6wa8agLr9COUJUFpP5zT4egyQOW+oNWVfxsb12do2FUNoS2tnMh2vJr+ypmdNlgemkttIp5M1ser8K/9VTRRreXYtWfPDOV6yxKz94hRwmbH8dvbvT2hIff2E9X2X134fL677SzB+Bb86r9+jRo0ePHj169OjRo0ePHj169OjxV+L/APK9S0F56eN5AAAAAElFTkSuQmCC;" vertex="1" parent="1">
          <mxGeometry x="340" y="471" width="117.75" height="60" as="geometry" />
        </mxCell>
        <mxCell id="MMp3bKSsHC83LUOIyMqO-22" value="" style="shape=image;verticalLabelPosition=bottom;labelBackgroundColor=#ffffff;verticalAlign=top;aspect=fixed;imageAspect=0;image=data:image/png,iVBORw0KGgoAAAANSUhEUgAAAOEAAADhCAMAAAAJbSJIAAABnlBMVEX////kTSYAcLpjqBTr6+vxZSkAAACKzxcpqOAAbrnuqaDjQxJhpw7v8ffxYybs8uptrDAwe76GyxeOjo7rWSjkSyIAZ7dbpQBxthXv7fB7e3vmVjHybjj+8+775+C1tbUViMnr5uT29vYNe8GAzAC13fNZWVmfvNf1+e3T3eW80aypwdnh5OgdHR3lXD5KSkrZ2dns1tBeXl4/Pz/ydULV7L3AwMDoSCfg5duYmJjxXxu8vLzwWADjPgCpqalwcHC30aAtLS2UlJTofGuPvGzH5aNnveflY0vrxb2S0TSQrNPmc1sjntkqq+IUFBQrKyvqhnfslYlZjcWmZoexhiyOYo+gihp1Z5qQkxrK3MBxnM1aaaWHmRnZ5tJWdbHcWSV3ohbWXVLK1efTYSRxrT3MZGL2p5CBtFnCbHbIbSK7c4PyjWqrfpjwhFe3fSCnyoyYh6pUnMy44IPbXFHpt6yi1l6i0+/a7cV9xeqLj7ebkRu334X3spue1VDI5PW9cH7AdSHdUD/BWWuzXHfmaUf0u6Lpu7PzjGVvgLOqt37og4BlAAANPUlEQVR4nO2c/V/TSB7HA1RsaIs89GEptkJ4UAQKFayAFFCeykN3gVX3YOV0WVZvz3M5n71Tudtb0bv/+maSmWQmmaR5AsTX9/3DbqCpk3cnmfnMQ5EkAAAAAAAAAAAAAAAAAAAAAAAAAAAAAAAAAAAAAAAAAAAAAAAA4FiZbG9vz0bQQSSLjiYlBf/CQJEu4f/NqOcq6q+6pUi7euoZob8RoRrigxFJGWtkGI5IWfVgFJ/bTg7VU8dO+cJdwxv2S8oIa3iLGvajM0YbqeGw+mGcEVwaNqL7dOQrMeTu0m91w2FppvEMG85ms9lZcjOOlkqj6gOXxUcKNWycHT7Lhjr92i8vkfsSk200AYZfGu4Mb6uvjsx+vYaRa/i/peyZNZwplUozjoZDuOmR2Dr8blJDOb1rd4dqyPQWKlZD1FeMKZwh4dZXYyiNlaSv3BCfIzAcOx3DGX1sUNLGBu3aAGHUGDTQU0c4Q9J8qIZk8EANMdSQaZuGBYa4mElFydKyspHQDY0Gsp3pz/r14IWgp5YuIfBVKvigRC4RH48yxwpzckQ7lXBTUHxJrVvmcxgN3fCa/m/f5gwvWQ2PgxM1ZOtwhK3D43x8Tsiwv3QTMUqsZm/iW1Ab4Y3guyv0Mhk0Q+UWLuzWzE18Y4cNNszSHy59ixsETWn0lnbrHi+aoRRRG6Zr4etJJkNpSG0vZ9VjRRskHUupOsRQkibV1rZ0DEXwhpKiPotjQ+oPx1cqIjKKmaSGUkntOWfCLwgbDo8gxmak22Po/+rzd026iY+/VX/IN4VLTi24pDcuqKX5bmxsZPhE21Kut8inYmGSylsNj7Mt7a9tmCuk6sIjVRDU4XEaTmYpl6QZ/XhSKs3S41klZEOt4FG9sHaU2nSOt2GzYzlUw+VTcXBmLVTDtdPWETAfquH8aesI2Ii5uvbkuRqoZ8U2T+CKEx5pCtWw6YJHfAhutXqi5/swDW/cafFEw5x3Q2VL9sbdcAyTmuG9TNwLmaveDaUdud4TP7hraVwa/ine4IXM9gkY/uhK0KVh3X2Phrs+DFfTTj49Fv7c6aoS3RkmBYbf2KAaTvgwvOxgKHdFLTx7EaLhg4dWw7bzYrBixkdbKg06Glatij9xhikbks02EMM6z4bopXjGzzTRnsc6jP7CGnbacdEW1vBnwbPmZLjvx3AgiGGsKWKD7aU8mmINBQ2Nk+FjH4JSwqvhX5gOMbYZyPDGrxnXhm34MVzwZSjbdxciw+pfGcPUhmfDJ6zhvz0aHvgxVFp1w7SFHkEd/o01XPNs+LSZMfwtY6XXSjBDaYsaypctDPZZqP6dNfzo1TA3zhrem5uwcMXC9V7aWcwFM0wPubnO6k6ZMSx0ezTMX2xmQtv9gw7LO63vMQz9hDYmtqUHXBk+Yw2TRa+GU+c8Gy7qhn5CG4ptuuGei+tMVJ+xHX7Mq2Fxmo2lDxfcGD7XDf2ENiaYpgfdGEaf/c50iOWKR8MKa5h8+NiN4Svd0E9oY2Jb+rKL6zyMRtlgWn6pn9vNkbPhiL1LHzzct342AkPcluJskPElaMQ2edWdoU2oaapzldqaGcOfG1o6LFiv8AOJNH4N9dgm7wxYMOZnyNl99oYxD8mbRJqGhqsWruvQdmVFj6X+DI3YJgt6/HVClCi+to1tFaaNrTl6ooZxpx5/USvyCo2lGV+xFIUa+2DKpLYqMXwbjf6L7fLndcOid0NRaDNSW+91YtgbKJYiXBkukZOXolEumK4l9JbGu+FvzoZvtCLf9AYLbZJUbxu9hYZ8bCtEAhjecza8Yjac82m45cbwLTm5Gq3+gw01nUbDm0q5NiSR5p+ieSiLoRHa/MwlujZ8TU5Gh1wwTRnBtODZUDjTZhiSIhcDxlJ2PtF+9LRODdejUTaYMrFNWeYNnWZpiKFgloYxXCFFvqOGDf5iKRvbVgfNHBL6aH+IDKM3WEM9tiXW2A7RVR0K/BjDD6RIGtriDf5iKTOfmB5UamWaBDZkg2nMiG1FlryY92xoSwqng6lh7ytqeJ4YtviLpSiY6oMLSzC1GB5iwxcu5qJskvcROw/1wNnwOXkPDW3xFr9bzvb0Qb4lmIoN3cy22VxMzZk2xpBGmhXSWcRbfApKA7RDlHdqXmefOtvGGtrMtrkwvPGrR0OfoQ09Wx4MX2NDNrbFNhIiQTtDfqbN2ZBEmt1gc4kYpYcabtW8zrfYkItt8+bWydGQm4f6zdHwfGihTZJadcOBIZ6IQmENufnETk91OKUaNmuGd0ShzTAkvd/1wKGNnU8002UObUt4mPEDuwxc9mTIzmGIY6lhGFpoY2ObrSGNNNgwyi0Dl720NDnWMCVeAKaGNNIED21MbNPNLLm0TztTUVfbfuQMi90ixIZ5fqYNG9IxcNxsSCPNu4BziRga2+RWktXoBKNuuH5IDNWfZNYwVRAybnDxkV4SN9NWh33i+3Ma+3Ebw+d6aPNvOKgbklnvPTvDBH4M12VuobvmCum0YcjNtCU1w4g2AbWQ4Q35SBMotDGGPWTWe4/0kIYhCd5qLF2Xf6+90M0k7+kjvSQulj7ATvEW8uBaDN+R96xQw33/hkZsI7PeA2bDKHmsDjXDF+KFbjvDil4SH9pUp8yEWmTHgdnQEml8LQBTQ6JI5/WHLIbkTBzaql3yLzZ1mBIbFoWGZHmUGs6ZDek8VPDQJklUyJjX77ExfK0Z/ocPpqT55OYT2fFhXi/picBwVzO8monHOcM3JkP/oQ09Xa3m4dPlndZ0Wu8Pq0t9vOEfXDDV+8CisA6bLxqGn/nlUdVwW1u6mDh43JDBlsiwt7ft1SKdh9Jjqf/QhgxpHRrDp6G91a3WdBeye32Y0M9UQ1uP/L14GbjIzNQwhuM5/f3cAvAdzrCjIzKxfbDfkOlt+/DuzRX9LWGENrx7Tzi4GBhc7UtwZy5phnfFy8Ddy0LDp0ZB59jl0XvqXZmZM5afkOXu3CLf7S2GENqM2GYZXJhbL2LIBtNUsruG4Wf97Vxoq9NCW8a0SGpemQkjtBmxTe5yNtRCWw+/e69sLJKuiQynnhiGZdbwvtDQvLoWRmgzloHlVmfDhGpYX/8jG2o8GBb55VHNcCHR4WT4PBRDY/fe6t6QraFyqI7w19EnYbMMvJGKpUyGU1NTNrGU7GmLtxxsT0Q6xIZX3rzTI02D/0jDLAPLcrp15/KAwDBx+HaJJDi5XrZbBq40fcRf9SGGzUjvaSVvNKVH00ykeUB6eDS4aHg8t4ubGd7wyuKrFW0vDV4ADhJL+d17SDLdiqpSYQwPXy/p0/uq4U+2s21Kd2WzsxyLJaemp8ePijmuHEFoo5KZloWrEx3YUrO7/nyFbBWic4kBQpt19x4eIm7hGxb9o4m+JX4LJjb8xXm2rfhp4+OjSs5SjtOeNmy5j27YDnRrLn5g7Gh3GCC0odhmXZtBVVnfujP4dsm8wxRFmno+tgn3tgk/cEFoM1nGWx4/XznP2gWfacMkhEuIqCJF+9qw4R81d+/VNhQuACNJs14IoY2JbWZH0d5EbPi9eKG7luFna2izItib+E1gQ8VmCdFkWK1G17vU6r5bc3+iyFAZ50KbO8M2bQ97sNBmu0hqGOKncb2rB9+6+AUuthUq3dZZYYFhrsLt2rP7qgVj2Nb2jf7rQKHN9ksX1BDVHdJjttpysS2VKmx+Mu9vMxvmK4/Gp9jdQjfu16hDWnn0+QxmuCqnRVuFiSGuPJmZU03L/+W/dJGKlVNrTUVbw+L7z1PTU9wCcKrwv312DpE3RJUXZ+1wdxmkw0coaDiYtljKXVWLHQo9g4mc9ZukyLI8/7IYUUyG+aMn04adYbisSBNXFxqslrydqrcwFySTGiQGtZE9Y4jtZN5O+3a++JukqVisc7NSVKhhvvIeB9NzPJqh9t1KZVcb2otvWGz3+GA7zL/FkRi4jEb2rJUum65HKUcfD9t+kxRl7861l8VuJZc/eor0ms9ZUM+LbeiFXthe2I9bLOPoV/soyR3DnxpJ7K221qfZ+xU9eD07gwNsWU7fJE0hy8KTcWQn0Dsn/Pbohd05ripxGt8/2A346DmBqpLcrySImz/JzRrfQkwlxXY2hqrl9kELfirxrRlfuHqMdhS17UFP3l5C8GLN78o67DbRDJtEZV6YW2hB7YrfXSXeSfC3JsNL34bNSQdDhHICleeGT2Vfhkn99XKldiGnStG7YTLJvl4u1i7kVMl7NEyaXy9bx8dfFrlyynmFLWlXeSqoQ/nSDaXNtbqYk2TSrvK05LN2En9MISBK/uV8wZg9FBkK7HDmKcy/zH/xfzWRoBQ3l8tloaXg1lTD+XLTl97EWFA+bRTKjjesZofuzeXNylmpOxNKvmm+ELO3xHaF+aYzc2uKyVU2lztFkrhdWd4sfvFNpytQ20Pm9Jl2JbbxKV/7rWeIYtNyTGt7ULsSWzt77Yob8A2L7FC78nXcmkJy+coZb1cAAAAAAAAAAAAAAAAAAAAAAAAAAAAAAAAAAAAAAAAAAAAAAADOPP8HCSzA2kGaUH0AAAAASUVORK5CYII=;" vertex="1" parent="1">
          <mxGeometry x="310" y="260" width="135" height="135" as="geometry" />
        </mxCell>
        <mxCell id="MMp3bKSsHC83LUOIyMqO-23" value="" style="shape=image;verticalLabelPosition=bottom;labelBackgroundColor=#ffffff;verticalAlign=top;aspect=fixed;imageAspect=0;image=data:image/jpeg,/9j/4AAQSkZJRgABAQAAAQABAAD/2wCEAAoHCBISERISERIREhESEhERGBgSEhEREhERGBgaGRgYGBgcIS4lHB4rHxgYJjsmKy8xNTU2GiQ7QDs4Py40NzEBDAwMEA8QHhISHjQkISsxMTQ0MTQ0NDQ0NDQ0NDExNDQ0NDQ0NDQ0NDQ0NDQ0NDQ0NDQ0NDQ0NDQ0NDQ0NDQ0NP/AABEIANAA8gMBIgACEQEDEQH/xAAcAAEAAQUBAQAAAAAAAAAAAAAABgEDBAUHAgj/xABKEAACAQICBAcLCQYEBwAAAAAAAQIDBAURBhIhMQdBUVRhcdEXIjKBkZKTobHB0hMWIzVCYnJ0shRSU3OCsyQ0VYMVM2SiwuHw/8QAGgEBAAMBAQEAAAAAAAAAAAAAAAMEBQIGAf/EADIRAAIBAgIHBwMEAwAAAAAAAAABAgMRBCEFEhMxQVGxIjIzUmFxgZHh8BQ0wdEjQqH/2gAMAwEAAhEDEQA/AOzAAAAAAAAAAAAAAAAAAAoACoKFQAAAAAAACmZUAAAAAAAAAAAAAAAAAAAAAAAAAAFACoKHipNRWtJqKW9vLIAuFDQ3uklKGapp1Jcvgwz6+Mj97jNarnnLVi/sxyivG97OXJIo1tIUaeSes/T+yWXuM0aWyUs5L7Me+l4+Q1C0qevtppU/xd/18niI0UYg9aVjKq6TrSd49lHRrS7hVjrU5KS4+VPka4jKOZ21zOnLXpycZdHH0NcZLMK0hhUyjVyhPdn9mT9zJpUmldGjhdJU6vZn2Zf8ZIAecypGaRUxry6jSi5TeS4lxt8iPN7eRpR1pPqS3yZEry6lVnrSfUuKK5ERVKqh7lbEYhUlZZslGE3rrQlJpLvmklxLiNgaDRiWypHkcJeVNe4351TlrRTZ3h5udNN7wADsmAAAAAAAAAAAAAAAAAAABg4lfxoQ15JvakkuNg5lJQTlJ2SM3Mxbu/p0lnUko9G+T6kRO90hrVM1DKnH7u2WXSzUSbbzbbb423mzhz5GXW0rFZUlf1e7+yR3ulDeyjDL709/iRobm6nVedScpdb2LqRZBy22ZVbE1a3feXLgAAclcFGVKMlpd4MoUZUGlTOGbbC8cqUcoy7+nyPwor7r9xJpY1SdPXhLWb2KO6WtyNcRCKFBzfIuNmyhBRWSWSKOPrUqeUe/x+5rYLE14ws848L/AMHu5ryqS15vNvyJciLWRcyKZGM5XJGm3dmz0ceVWS5YexkmIpg8tWvDpzXlRKi/hneBpYTw7epUAFgtAAAAAAAAAAAAAAAAAAFCO6YS+jprllJ+okTItpjLvqS6Jv2HyW4p492w8vziRoAEJ5gjulekFSy+ScKcJ/KZ567kssst2RG+6HW5vR8szK4Tt1v/AF+w58SRSsb+CwtGdCMpRTefUm/dDrc3o+WY7odbm9HyzIQVOrItfosP5ETXuh1ub0fLMd0Otzej5ZkJB9WW4focN5ETbuhVv4FHyzHdCrc3o+Wp2kJB2qk1uZ8/Q4byI6BHhOrpZK1oJfiqdpXuoXHNqHnVO058Cu6NNu7RNsKa/wBUdB7qNxzah51TtHdRuObUPOqdpz4DYU/KNhT5HRKPCpcQlGStqGcWn4VXtJJo/wALdzdXdtbStreMa1WFNyjKo3FSeTaze84ub/QZ5YpYv/qaX6juMIxVkrHcYRjlFH1YipRA6OioAAAAAAAAAAAAAAAAAKMh+l0s68FyU0/G3/6JgyEaTSzuX0KC/wC3M5luM7SbtQ+UagDIZER50gfCdut/6/Ya/gssKVxitGlXpwq05QrNxnFTi2qcms0+lGw4Tlst+ufsMfgb+ubf8Fx/bkSx3HptH/to/PU7n8ysL/0+09DDsHzKwv8A0+09DDsNxe1HGlUnHwownJdai2j567rmLfxKHoYnRdOu4jwcYTXWTtIUnuUqEpUWvFF6r8aZyLTzg5q4cnXpSda0zScmsqlFvYlNLY1nxomGgHCjWurqnaXsKedXOMKlNOH0m9RlHNp57dqy4th1O+tIV6VSjUSlTqQlCSeTzTWX/wB1AHx6S/QnQa5xOetH6K2jJKVWSfjUF9qXqWZrsM0cq18SWHJ9+ripQk19mNOUvlJeJRkz6fwrD6VrQp0KMdWlSjGEVx5Jb2+Nve2ARzA+DfDLWK/w6rzyWc7j6RtrjUX3sfEiQPArTLL9lt8uT5Kn2HPuEDhQ/ZKkrWyjCdeD1alSabhTfHGK2a0uncuk53HhRxdS1v2lP7rpU9TyZAHZcc4NsMuov/DxoTyeU7f6NpvjcV3svGjiem+g9xhc05ZVbecmoVYrJZ8UZL7MsvEdG0R4XKVVfJ4io0JpNqpTUnSnks8nHa4y38qZzfT7TCpidw5bYW9NyjSht2R/flyyfq3AETNpo7/nLb+dT9pqzZ6O/wCctv59P9R1DvL3RHV8OXs+h9FYJpA45U6zzjuUuOP4uVdJLIyTSaaae1ZcZzE22DY1Og9WWcqTe7jj0x7DRxGEv2qe/kYeB0k4JU62a4Pl7+hOwWLa4hUipwkpRfGi+Zm7I3001dAAA+gAAAAAAAAAAAFGQPHZZ3NTokl5EieHPL6WtVqPlqS9rI6jsjL0p4cV6/wY2RXI9ZDIhuYmqQDhPWy2/r9iMXgb+ubf8Fx/bkZXCjutuuZi8Df1zb/guP7cieHdPR4D9vH56n0TiP8Ayav8qp+lnyP/AMOr/wAGt6OfYfYJTJci9R2XD564MdDrqrfULipRqUrehP5XWqRcNeUfBjDPJvbtzWzYz6CqTUU5SaUYpybe5JbWy1d3lKjBzq1IU4R2uU5xhFLpbZx/hJ4S6dSnOzw+bkprVqVlsi4vfCGe/Pjl07ADxwSalzjOI3iWS+nqQT+yq1Vvy5LLxs63pDeO3s7qvHwqNvWqr8UISkvWjifAXfKGIVaLy+noPLalnKnLWyXK8nJ+I7fjdl+0WtxQzy+WoVaXnxcfeAfI1WrKUpSk3KU25Sb2uUm82305lsv3drOjUnSqRcZ05yhJNNNSi8miwAEwwAAbPR3/ADlt/Pp+01ht9GKTnfWsVvdxSS62z7FpNN7jiom4SS5PodjKm+ttH+OpPxQ7WavErb5OrKC8HY11NGlh9JYbEVXSpS1mlfdkeVrYGvRpqpUjZbvU9YbiM6E9aDzi8taLfey7H0k2w7EadeOtB7Vvi98Wc8JRojZ+FWfH3sfe/cfcZThq67yfUtaLr1VUVJZx6ev2JSipRFTLPRgAAAAAAAAAAAHlnPJ7ZN8rb8rJ/dSyhJ8kWyAZEFd2sZWk89Ve55yGR7yGRXuZeqc74U1stuup7jE4G/rm3/Bcf25GbwqrZbddQ0nBti9CzxKlcXM/k6UIVU5asp5OUHFbIpvey3S7qN/BeBH56n0viOyjVa2ZU6m78LPkv/jN1zq49NV7T6BveE/B5UqkY3TcpQnFL9nuVm2ml9g+cGSFov17qpUedSpOb5ZylN+tlhgAGxwLFKlnc0bml4dGamvvLdKL6Gm14z6nwHF6V7bU7mhLOFSKeTy1oS+1CWW5p7GfI6ZItEtLbrDajnbyThLLXpyzcKiXseWe1AHaNOuDaliM3cUJK3unkpNpunVyWS10tqlxay9Zz3uN4nrauvZpfvfK1NV+LU1vUT/BeFzDa0Uq7qWlTjU4ynDPonBPZ1pG9en+EpZ/t1DxSk35MgDSaG8F9tYtVbhxubjbk5RypQzWT1Yve+lkA4VdB6dhJXVs4xt60nF02++p1Hm3q8sfYTbHuGCwpRatI1LqplserKlTT6XJKXkRxfSLSG5v63y1zPWlllGMVlTpx/djHPYvWAac3mhf1lY/maX6kaM3uhf1lZfmaX6kR1fDl7PofVvPpsj2k1HbCfKnF+1e8kLNfjdHXoT5Y5SXi3+ps89omvscXTlwbs/nI40hR2uGnH0v9MyLW9GU5whHwpSUV2nRrWgqcIwW6KyI3ojY7ZVpLd3kf/J+7ykqR7HGVNaeqty6mZorD6lPaPfLp+ZlQAUzVAAAAAAAAAAAAMLFZZUKj+7l5dhCtUmOOSyoT6dVetESyKeIfaRlY/Oa9jxkUyLmRRkFyjqnOuFZbLXrqe45udI4V91r11Pcc3L1HuI2sH4K+eoABKWQAAAAAAAAAAAAb3Qv6ysvzNL9SNEb3Qv6ysvzNL9SOKvhy9n0Z9W8+m2eJwUouL3NNeI9g8am1miy1fJmXZ0YwpwhDwYxyXT0mQWbaWcerYXz2NKptYKfNXKuqo5IAAkAAAAAAAAAAAABqdIX9Elyzj6tvuI1kSHSN97TX3m/UR+TSWbM7Ev/ACWMvF51Pg8TeSLOsUlPNlEz4o2WZnSnd+hz/hW3Wv8Aue45wdG4VN1r/ue4i2h+AvEbynaqoqTnGctZx1stWLluz6C9R7iNvB+CvnqaIHYu4fLn0fQv4h3D58+j6F/ESFo46DsXcPnz6PoX8Q7h8+fR9C/iAOOg6NphwYSw6zndO6VVQlCOqqbhnryUd+b5TnIAAAAAAAN7oX9ZWX5mj+pGiN7oX9ZWX5mj+o4q+HL2Z9W8+mwAeNRaL9pLa1ymaa6lLKSfSbBHotFVNajq8n9yvUWZUAGmcAAAAAAAAAAAowDRaRS2010SfsIzXraz2eCvX0kg0mt6sspQi5QUcnq+FnnychGCnKn/AJHJ/Bg6QqPaONsup6TPaZaTPSYaKKkQLhU3W3XUITg2LVrOtG4t5alWKklLJS2SWT2PoZ0PhAwm4uVQ+QpSq6jnrarWzPLLeyFfNDEOaz8sO0nptapv4OpBUYptcePqbfuo4vzlejp9g7qOL85Xo6fYalaH4g91rU8tPtLnzIxPmlTzqfxHevFb2i2pxe5o2XdRxfnK9HT7B3UcX5yvR0+w13zHxPmlTzqXxFfmLifNKnnUviPm0h5l9T7dcyuM6c4heUXQua2vSk4ycdSEc3F5ralykZJL8xcU5nU86l8Q+YmKczqedS+IbWn5l9RdEaBJvmJinM6nnUviHzDxTmdTzqXxDa0/MvqfSMgk3zCxTmdTz6XxFfmDivM6nn0viPm1p+ZfUEYN5oZ9ZWX5il+oy/mDivM6nnUviNtovoXiVG+tatS0qRhCvTlKTlTajFPa9kjirVpuElrLc+K5A71mDzmVzPJWLNz0bCnLOKfQa5MzLSWxrkNPRVTVrOHNdMziosjJAB6EhAAAAAAAAAAAAKM1OI4HSq5yS1J/vLc+tcZtwHmcVKcakdWaujn1/htSi+/j3vFJbYvsMVM6PKCkmmk096e5mgxDR2LzlQeq/wB1vvX1PiIZU+RkV9HSj2qWa5cfv1Iyme0xXozhJxnFxkuJnhMhaM7c7MybZd+ujaZ6ZraFTVZlwrxfHl17CnWg272L2HnFRtfMylI9qRYUj0pFZxLikX0yqkWVI9pkbiSKReTPSZZUj0pHDiSqReUj0mWUz0mcOJIpF1M9JltM9JnDiSKRcTPSZaTKpnLR2pF1MyLSWUsuVGImXqEZZppPYyXDOUasXFXszu90bQFCp6shAAAAAAAAAAAAAAABTIqADGurSFWOrOKkvWup8RGcR0fnDOVLOceTZrrtJeUaOZRUt5Xr4anWXaWfPic42p5PY0VTJriGE0621rVl+9Hf4+Ujd1g1anJJR11KWSlHYvHyFeVNoyK2DqUnlmuf9/lixY286k1CGa42+KMeNslLwenqpJyTSyzzzz60XcLsFRgktsntk+V9hnHaoxt2lc08LhVTh2t7NFVwia8CSl17GYlS2qQ8KEl615USgEU8FTe7ImdCPDIiakelIkVW0pz8KKz5csn5TEq4RF+DJx6H3yKs8DNd3M42UluNWpFVIyKmG1I7kpdT7S3StaknkoNdfer1lSWHqJ21WFrLgeUz2pGbRwt/bl4o9pm0rWEd0VnyvayWGj6kt+RLGL4mrp0Zy3RfsRmU7B/aeXUZ5UuU9HUo97MkLFO3jHi8u0vFQXYQjBWirAAA7AAAAAAAAAAAAAAAAAAAAABRjIqAAAAAAAAAACmQyKgAAAAAAAAAAAAAAAAAAA//2Q==;" vertex="1" parent="1">
          <mxGeometry x="414" y="531" width="102.38" height="88" as="geometry" />
        </mxCell>
        <mxCell id="MMp3bKSsHC83LUOIyMqO-24" value="" style="shape=image;verticalLabelPosition=bottom;labelBackgroundColor=#ffffff;verticalAlign=top;aspect=fixed;imageAspect=0;image=data:image/png,iVBORw0KGgoAAAANSUhEUgAAAU8AAACWCAMAAABpVfqTAAAAk1BMVEX///9Nd89Nq89Ab81IdM4+bsxEcs2fs+NEqM3q7/k+psxestPX3/P4+v6iz+Pl6/jH0+5TfNH6+/69yuumueV9mttcgtPd5PSMpd7M5O9wkNeQyN9midU4asvT6fLD4O1vudeXreF/wNvg7/agz+Oywuh3vdnb7fTr9fm22unP2fGDnty73eu2xelpi9WLxd0sZMq0JFXZAAAK7klEQVR4nO2dZ2OiMBjHg0AEFAe46hXt8mq1tvf9P90xkpAFQhwdPv83V2Uk/HiSZxA8hEAgEAgEAoFAIBAIBAKBQCAQCAQCgUAgEAgEMtRz+NU9+E16fgo6b1/diV+jlKbX6QTeW/TVPfkNes1pZgIbPV3PjCYQPV2vAk1CFDyToZ4VmmCj5nr9q6OZEwXP1FrVNAsbHcCob6VwkEKrlNcZfHUHf5yityqinjeA8W6gaOBpiHrBn+1X9+znSDI8ZdR7wSfQbKzVQ0dy3eGbYKPB31fxiLcHiJ6qtHpIfboSXkaljQYPEs11L/AgHtUrp1kEQ5KNEqJBby0ecdcL6AFX7OfPEKOZA+opNhoEnXfliOoDblwCTa3JRZJtvj6IjgpyplKrv5qwKOi9Vx+hy+zTnAmIotzS9JmlMl9SbbV1EiCaSRnpR4lu/1QfobiyG9OqtuqRRe89OXpfBTV5/Y17plVdzSPD2XlRy0hRbaWkEwS3XCpZ96rZeMGLPrXcDrwqq/a8wY2no+8VRD2vJlEPXzo6oqk93/T0WUhH1AueRJrhnXiQhigUmanepRnRC/4+i3sMVF+/fRF8WTpv3jLNnXjx/DzqqUUkr8jfJRuNShsNbr1g/+hMRKJs1AcPK3HXknXwIBHdvuSeSR3p21ubSLu27UzEa86JKkZ4J8yuyuZ0HlVtc/sZ9M7f5W+tLrYs2zrIRJWS3IPsqxSi23fJFJ+zBOoWeaZExxvhW4nMSqGpHfWCtp/5FHCbPDOicdUulYUS1UaZWOHpVnlaljs76HbQL7apt1HumNvlaTnJRtlcT7OjrZQIx8g8o36mnTZE3fVrNp6mkJybaj68UJDM8UylBDdVWSizTyVCkpbiyTz9xM2lm13+FZv+9c93eVRD0ixTkjjT7u78wZzA09aM+HVNFckL5KrHVi78KTwd0tRcbcolmy7BUzAbMh6xO5ucuyGBpzPT3bCq2lOgqXrcybtW8XQsdcBdmWfWC3umua+nSBzv2mGoJ+p5ujy9MU8LT5WDr88zJeqe10RFns64YjeZqJ5mG56W/Sgf/BU8UxtSvfAJEnla7qhqR56oxguRfKoFTyuRB8NVeDo4k8Ndc7I7Y0MST2dZvSsl6ikVuTRCein+asPTwkNx2zV4OtNFqv3STkrCszM2JPG03LqblRFVvVCWP3kmPJ2xeF+uwdOm93A+tdk1V6aG7SXzlAx0Lrm/dU+2zeLRqBFPC4uNXYVneUETCtRRXaOxZJ5WIhAcJdNh1aGZ6GN770/xuR1Py+7y267MEy1pX8bnS5YUnmIcM3Jxsq8M0e5YpcSQpzjUzHlGvu/zn8P0s8BIy3NHDdQ9XxCq8LRc3iBHaZPY1hPll5SY8iznMyTx7E4L7els7S/JN/kMH+7zjfnt2O1nFnbuaSAZbpZjBzvjj27JWMszZDx3aEFOLgwYFBdfLiujHkUqT7zgNo/yJnEyVYiK9XpjnrxPEnhObScTZimbn+RfOEWYFaYE063JCA0/kjz8cexxzm+S2EUb6dYFPVjLE1GedowO5OwuP6VPEpz3wW6e56s8LcwNnRFpErsi0bVUYTbmyc8vIk8ChePJLj7jOSY3f17GkngWoujD5a3/I2zEc0TPJ479++LUWMk82vHkDh+xoALbJVE1/2zNc0z7z/kkA55ZIYDDt0BL8XpoBHFkvPdLENzVz0mLcpzckqfllkOw5Jme9h/py4smm9fz9II/FTytPjtzQmcnI56CnEdb+oY4vCP+KAUWktNzzp6waRVO6XjaZYmA58kc70AtMWt56t6poTwTFNMLsJzhSTwd7Lr0KvJ/Hdu16W1zPqp5TumXOcI9+VSm3Jb8hSFPq6ylncDT8540C58YTx91WTxNTMKMpz3b7HZdbtzb03i3uafXVcTTOp4xnWnxPvs4Jx+ZOfZd0rsWOPU8bVZyMebpBU/PuvY4nuVcR3ySEU8ymOZl3aroPA3Wixq5yjPslvnmSDgiIf54gSUYxjzLW2LIU134pOMZjimEAooJTxbdLag/2RefhzQyeRR44u5hszlsulNLqYewWKa4Q7QFp1XypB/vLG0x4pnSXGkbk3iieflwdXQqz9jmN6cpE8UxFXimcUoqoWDH6nUz2mT+aedy9+NEnqyEZcDTUxY+VfLkfJLtn8iT9tSl2SoZvoVDqqsnM++7obckPwUd7u1yUT1P5tPa81QW5dXxRCy+cdJYHPPNnI3nfT1Pt7S/iA747JwRCZZqCsIteNLTtOW5lt/slE1V4sn5pD0SmrkOT4z5gswj3SvMKkHF6doESyJPvOBiZNKttjwlrR46R3iGVumTPpyr8kzzcrwXylJ0r6wJ0n6rYEniuZmU9EgUdhLPrABVlW9SnmheZrRjvplL8cz9USrXnU03Ak3EIvx0zvVNgiWJ5yTi6CXDE3kW5byjPNGBL2BcnGceL2028Wjna4pGxKdbSUjDBZl4K57Mw1k0jmvI0wvkt7docfQ4TyTn3BflecRdk5AJH4qjWwZLSObJVxnyqkojnmmeLkXv5Zu1DXiie3Fy+0qeNAedNdpbI5GnYKCPqBFP9QUlvnDfhKc/5qJr2gwpT1yZZySUrUgxpY0knog7WxZiH+XpefKv3Ihv1jbhifrCiC+a4WOX4shr8EQTvittgyWk8oxL74C7R3mqvxkkv6fciCc6JEoztGOsXn4dnj4397SrLBWSedIZOb/mqJ6naptpfiTNrc14ooUtNzOSymdzVlC6KE9WV7EMgiWk4RmXV2ZP6nhqX5NdNX3eIfHkn1MUzfjs4c5+Hvr9PasQX5jnnBsqbYMlpOHJG+i4mqfGNjMZ8wwdR2qGrTbA2HJsDvdleXLtLo7tqpHKc1TeIDve6Xl6Hdk2ScBkzJPzSaSZkRznX4knjelJRtNSKk/6lDTry0xrny/KSF/3Pos/zHmijSs1Iz+q5JLrS/Kk128QLCEtzx3n4qfC41jS1ZVUsV73Avoc8wSeLE+izYQzHqi7J2Pl4jwJEoNgCWl5ljOI+HS7YmFR/jDeOwNP9GGLRPxlwuay1DeSUhTl6Ug83XPxLByI/l2Co9Lx7FfNXBqeZGlDc57U3DQ8o6JgyDUT32PXtl08fsyGRCzwvJR9kgjcNltXr+PJG2g9T7ZQpDFPFBLpu6NsGvbjw2iu2UzPQ60okk8cCTuE9e1yoiURg2AJVfDkY7Aantyym+Y8v7vIvGEULKEKnmytRB1PYRHT7+FJvHvSurJUSM9zfpSntCTs1/AkQUTbx3BMMcYannwWq+OpLLD7NTyJ6zALljKFXUqU5+nrXDyLP9XX5ap4evLzuG+ufuE5DIOlQv6+eBeH56k10DI/knFW8Qw6dT/h8A1FzBOf9hLicJpVb4ST+CrOJs/jBJ6VP3T5bUUjb/fUFz76aSoi3pSNfSLPn0czNc9/SSZX+0sV7bS7T0QjVxcAt+H5E2nS36EJz/MzAwexHB0rLqk5z59J88Iay1lnU55BB2hqFMszaDOeYJtVmkkGSmsztTyBZqXkJw4NeL7W/Lg6SDLQBjxBddolwPOsEut2NTyDz6/t6A+R35Bn7SsIoFJ91znKs/6FDpCgOff+s54n0GynjSs/G+R4gm22l790K3gCTTPFY1vHE2iaKupmC9wEnmCbJ2m4TASeQPNUxQ59Jj0IgOYZFC3o74cAzbPqxv9nIxAIBAKBQCAQCAQCgUAgEAgEAoFAIBAIBALdtv4DdM7eGruMSdMAAAAASUVORK5CYII=;" vertex="1" parent="1">
          <mxGeometry x="457.75" y="451" width="134" height="60" as="geometry" />
        </mxCell>
        <mxCell id="MMp3bKSsHC83LUOIyMqO-25" value="" style="shape=image;verticalLabelPosition=bottom;labelBackgroundColor=#ffffff;verticalAlign=top;aspect=fixed;imageAspect=0;image=data:image/png,iVBORw0KGgoAAAANSUhEUgAAAT4AAACfCAMAAABX0UX9AAAA21BMVEX///84KSM3KSOKc2PQPhYyIRptZGApFAnOLgDuwLixrawzIxyoo6EqFw3POAkgAADablf78e4mEAD08/IuHBTAvLteVE8jCQCLhYMcAADd29pJPDdmXVrTTizHxMKFfnzU0tB4cG6CaVfr6unh39701s9DNTAAAAAWAADNysmWkI6Od2ZoVUlVSka2srF+aFpzXlFPPzYPAACTjYuYhHZeTEHSRBzYY0lKOjIqHRjprqLfhnTAta7NJwBINSkwGw+3qaGkkofwyMDWWjzmoJKvoJbfhXP34951Zl2KPI7NAAAPgUlEQVR4nO2daWPauBaGLafGKbZLxzYYAwMGPJQlkKRpp8l0OtPldu79/7/oWpK1WJYUtgm00fshLd55cqRzdI7kWJaRkZGRkZGRkZGRkZGRkZGRkZGRkZGRkZGRkZGRkZGRkZHRz6woGw4XvVM/xY+pyO+kb9++efMmbQxP/Sw/nKJuOE/Xd5tFlrX9Qb996uf5sbRx5mA5ZZ+HzdM9yw+naPDWMbz21TB+O4pO/RBnpyhrt9vZ41yW88R0daKa6zQJwzBJ+0t9KDKeg/yJnumH0cYLPRvLi9OOJhIZpH1ooNPNxgR8ROMU2Jy8tKMysEGC6PXS0E3XnOu1ot5mORqP756hZQ4CW5ATZNIjxyFAzLoxPMje5BHUNG+PQeLGjuO4s6d88LPQuEYPNuGp5Mhl0sJNdgTxed5fVxcXk8nk6u/QISfGT/vsp1czqdMrTGtQP3LRSjf4f+2wOOTqYnVRaHXzwGHvPO3Dn1xRLKNn2ynnP6b5NLKiHARjssV9eI/hFfhm3Fnx3Sm+wwm1lDRdZEdrekhjnqatJE08QDd5VyW8At8tf9bkmQXUAMjx2SmJTJppuaVFDXLK6BXiTrq9+Hyar3EiDaU9X6UddsvmHdOma7274HXNTrq+mJzme5xII0XXV4jEIH7ZvF3ijKMqvUL3OOiGTXryrMLpmZKenZQhcI4bb0C9Qo1e4X1nBcCH97BJfz7RNzmFpqkan0uSUmtkWwFxCnV6Bb/V9dX7G9QhvjvVdzmBFqEaH+3r2rB/jLvlpy8TCT6MEP97qu9yAvmKsAX1ZH1yVN9jTfm7ih7Rcwpd7tSeoxh5EBDFIIOMQv58jN7FRDbc+0nV8DT4Epo+6XshTpFmWnpX6Ecmu9HL33+t68PHr5WDNqAvaN1YSi93Jlpr6NkhDZP9wEX/Rnrbm8Ee8K9MdqOXly/qenV5+fsf3EHN0BPlBMl68a8iOER91ZgDKqD1oF6K3YjM6TJde/DnPJPdSIoP6vLDL/Sgpgsk8tKu7IrnIE3Yx4//s7eI5JAa37WE3urmofjxPpVmTJX4Xlz+SvnJ8QEQNv59EntJR8926Cit/QaNJVia4P5mVcf3HlqfF0g9rxrfi1ffyEEqfCA8U/vTWp9Hc37NN5AJM76Lq4erGr8VAAVXFu5UpMH34vI/5DYqfKB1nv1fX4uP5qyWc/iT7/k87/5CAHjzcF8YIDPZinT4XlyWzVeNzznPNOxa5zqoIU2dllV1u6v7Yv/VigdYbLq99dhQryqKr/C2RAxf6X4pPi9BCh1mfmeZiRjo4j5Aci7jeF7EwlMe31Vxoje7YQBXNx6sHtlyz0HxvfrwW6mvHym/V6/xQQSfN+hlUO0ONcfAfxogu2nkaPDZZXY5a3lgU1gf31KvEXfv/qYc6q6uYe1o7Cm6PobvNdv2ldkf3kDwOdTTjmLSeuV9wom11A3agIed6DoY9SDJIR80l63es9/fIF9SxDlx3vBchZXI8FkfX1U7vzo+iwZ/Z9n5NTUpgwIIwrdJWrmVQSy9dxNKkPnsYmxgP3hx2oii0A4VCQMpvt8uH8V3F58zPl3CiuQMAMpcRathBOcRfed8B8Xsxv1RVoAOg6XiRlJ8vzyOrx2eM75cky4tM6R+mECv930ymbz7/udnSXnS7U3RvBdr4MSqbNW++BZnjc/SWh+CEaNc1VRMFnARD87M9BZRour59sc3PG98a13kAhuv7yYw8fJFoHfNnZdk8Ep+5Ie2MlX6k+LTVNowPgeFIqLxVWrjLpq60bFmauP7WfE1XQ2+InBpuihg/a4xPlwG6XWbYaBONB8XX9b0mZqZeLOhL9tNNmy4I8k2ktmctvlT27XvU7lxAabX0uCzLWvmuVE9TVrxuzaAQWGjH+gs5Jj4/LjlBkxu4lb8fTtIAtlugE8KuTl00Vt8zByPNHudNORPDdNBZQy1DBLuxq5XbNL0fcWgbZigqEWocKABGm+lTj8ohi/x6CnwReuwllFw+8xO2vP67hncPS5H0FwbyRK8qey95554pjNnQ/geqGY00CM11MO2otdrOAlMFQm5lZWY5wII59Pg68egLgcQpxUpd/tByYolv8gNcYSWSs4EZE6elQcCXJRN1pQqvfU0QLOqxALRjdxkPcmcwEPx1eK+rjypRYvSy0C6e8B+E5yDK4fUHmzPeSK9MAhLY+2Lpokiklw5R8j2Gs0ghv3Gl0eMj56gLvEea9QxrbdcLJLRqn1LrDSzpq0SJWsk5cEoHzGWmS07fFOj66DtM2Xv540HHsw/iY5DYXy2HaoXfOyLj7Q4gs9XZVTLwsxUYUMQQvlflgWOSNv1FY0ePw0yioH4a0lxr6iO/LyBjcx6KDiOW+UJate7Lz7y1OTSY5ZBjaHop/KAxTzmxXb32bXoyLJXsoYV2Yxx9+CZjBb2Ky7bC71uOC+9/ULZegGwUQpALE+qjrdtdUliT3xt8qVIvq9DvpYHRlCA4CwTjdmoIrob/M2yNwnJXG/K+7WmrJeAdT14JsvUonJ31CL3GSyXRTC5obP11Pl6gKaYRvqohZejrCjuhM8b5D2oRZeaBMk2E3w0LbsWN1TVIfwCRsslzrRb8oTLASg+suSMdhNVfI7Yv4/VoQuoZUlhPVJtfcp03274SK0jYY2vlVfx0RkQNLKR4yOeG+IjbZXWr8uLoZxIPTMmt77awhX1/FwcyYnZAl1xU+k8dsNXE/1SBB/ukCzGRIGvx+Ej3oEuugAcToKPVQUqvyk1PvXscExDoKfp+jSR84H4XELrEHysoeN9OQkE21J8ayk+UGtfXZXvBUnRQeZC2HKtS3HZqkVZB+KjkzMPwkcKTy3c7xNiqGPYH19P1XrRI4kz+jSeo1CqSLociA+0BNexFz4SRJYdJxmgJDzL3fGh2aPKpigOOfT4VJ3fofhAWT/eFV/O41uUx5YVmQb2yjiMPgCfKumHPLyYq9LjixW1ooPxlf39VviibJGV2pAhMMQ3LT+U8dUMf8L99QH4IkXSD8aXtSKHHp8qbbAjvhkWCFnogs1vC3yLRthKiNg0BbiLDojhhykJA/0D8akGbnB0U5uOq3cdQLEidc9RRz6mgwEcOD+Ob9Ri4zpOCF/ZXEELMlhUkn3b4pOlRXrSeqXUczyCz07lgfO+Y17rjrQ+nJJ6FN9YkZJB+JZ8yo/m/6JD8RVPJSGBvoVY5dDHfaTsdjx81owEawMpvryKz1dkXDA+wghZcpl98HCstW3YLMUnHXmgYKs+nVmPz91ILn8IPjpNo4Iv7pblGjJuxfgiabKU4iN+GHkLPtnHDdrWpBDUB1vjk8Yu6HdUo6cdtJUnHRPfhuYReHwgLgs2xLdgfBtVNhXjs7iDCekyiqEpA4+UgsiZ2+BrSqYbwBiuvhRBne7DJisftu2Pj5pFFZ8ojG/EZfiwqvho22cJvjKGbivBb4NPNssZnleLW/QZF2Xk8kT4GtTrBmsscjzG12UpP3KzcvHPgfj8eugM/VMd32OBn35q+JPhK1OilVFHJeVHDbV6mz3xRfW8C/RuYsLgUd9BHue0+OiKnl4VX8ZSfqVdktZyID6J+UF8PYSvsgqmOsWghs85B3y0livgI8Uhr2ORTHP3OPgsTzQ/+AwI3/VtpU5+pW29+mUxR8PnxFUFs23w0SgSkHDb3VRvU5agOM23w+eLzhdiR/iuHqqLsLSt92nwOeOuoLut8JFKnbcU6kYU3/pOuPCotxU+S7Q++IuBfV8RqtxXVnBoQxf3SfAl8nUej+IjIzUwI7YWVW+jmMK/Bb6NMPSAETD0vKuZ7VXWYGmHvU+EL9sP30Lo4mjN/HB84tADRsAobC7+711z/FbaZaxnjW8qzAOitI6Ab1FNvKDy1qQ0NsC3Xp3zkGeszgWfJczFoGPMI+CrzVaz0Nw03Fb57k/Xer3zxifMVQnJgcfAN632fnA884UuwOKiF+UcqycbdeyNb1k1P/pqpGPgE96nBl3vZzpK8263GffKXvx3TviE8JgWVo+CrzpdDV5qOGFN9Z7iU497FW/wOwCfNGG1N76cFi3Qnegve1t8sloH97CV5gtQ5MJ6OkD8r7rzU1Qq98dHZ/gdB59VqeaxwuBx8FkNvmoEn2JSYUXeYaDEp6iT77skkBsnHAnfmvcd7Jd9JHxTvveD5ZkvlUFa0QGutOM2ecZAju+fxxekWjmxFryRFiDkMwkJPjoBq45vxPuOkC48oPjkc+y2xVd9FWwYWX9OBD9bGOBK2XhVy5Zl+Nj7DX63VPiiNcng4dQIHfPKvyXBR/u0vIavUotnQSp1KaG0+WyNzxpwwV8RVU4nwhjXm11dK0e9qkXzFNW3l6X+eK1ejN9pb7CWDs1/hhseHwgGGyq2+oemS+MO3uMTW6P4uFm43DRnziM7fpteONsdX8Qn/hxYaxPDFE8dNSv6JM7S6JsgSMstNr2s4gOeW4praKi0zaWT6TGuG84b5Zcai7tpwYfii7jIhSvMLBjVgF245Qx3xWcNubGb6xetV5+e51XWnHX4ZLIEfBKV31S+bAPEZbDu6wuVSNzSBe61H6oVD/P2rvisLmd/sRVNrtW8RLtUvAlCi+8TeQ2YDl85PMgUZfAAJ41z6cqgKj5ucj7fVlR5bJzR2gWf1WHRS/FcXx4p7XJSvvBCg++SehMNPro2aiCdwULxNlTLMxg+zoBbHIthS34inkG0E74IsOaa9PKJvjbJSfm6Fc0rwD7Qg9T4UnpdVSPDnsWaxgojYviG3BX4RxzL747dy074inCJb4/vtu783Memhot69ekfdpAKX8z/fZpMPoOKLGrruXL7Y/jYwiOhrQzkHQOy693w8e4jGOWTba0vUa2LefnplUSXn779xh3UTJy64rBV/dNI00EaSA4jMci0IdvtJOwCICbbhLbih2FcPzPNIL55eRt5HbamJvsTKEnz+1/b4ssUl/v64XVdH//4b+Wg9qBRV7ddn4ztj+vHMUvKZbu5RNCIbhOfNtqMJGcifB3ycTt8lk/tD4S+vja5hfU9PzF+tve/LfEF5u+3UTW17zmQihsFGQ3drYcb1Pw0C/KfnfKZ7jUvUqWm+XIaa19yJdGZvq/mVGrHuxmgeknv81Q0SjTvKqnlruYmdBGUj5NYNi0DBG6/swYJM08Qp2f5jtETK78rIIl25qX4LxxnYzeMYyeO3SQen+ULbs9Ai+46SdyAzkYM005G9kXt5Wg8Wja3+PO0z1hRtvHv8BsqupK3ixkZGRkZGRkZGRkZGRkZGRkZGRkZGRkZGRkZGRkZGRkZGRkZnZv+D/Awpjc1+kyzAAAAAElFTkSuQmCC;" vertex="1" parent="1">
          <mxGeometry x="560" y="500" width="128" height="64" as="geometry" />
        </mxCell>
        <mxCell id="MMp3bKSsHC83LUOIyMqO-26" value="" style="shape=image;verticalLabelPosition=bottom;labelBackgroundColor=#ffffff;verticalAlign=top;aspect=fixed;imageAspect=0;image=data:image/png,iVBORw0KGgoAAAANSUhEUgAAASIAAACuCAMAAAClZfCTAAAAw1BMVEX///8lLz7/mQD/lwD/kgD/lAAAEin/kQAfKjoKGy8NHTAAFSsiLDzd3uAaJjcAFywVIjStr7MACCQXJDXq6+y2uLvExsnMzdCdoKUAACJma3T/3LiHi5EAByTz9PW+wMP/9+3X2NovOEZXXWdIT1r/796Ul52ipKlzeH/k5eb/wX//2LD/nxv/5cr/yI//s1s9RVH/r1L/7Nj/06X/qUFDS1ZwdX3/wHv/nxj/pTT/zJf/tmJ/g4phZ28AABxSWGL/4sNAIPdSAAAUP0lEQVR4nO1diVLqShAVCdmI7JuyRWRzAURQZHv6/1/1kkBgumcNF+Xq5VS9qleXZDJz0t3T28SLizOOhcJtsddd9W88vPVrlWzpqnHqKUVHodRb3Xw8x0wz1mqv+5Xi7ZEWcV9cta1c0rIz+VQqZXr/ZTJ2Wq+3bnq3x3nCd6CQvTFzaTufMp0AppnKWHqu9Vb5w0UUiv1Yzs6bMQaclK2n+mX+zffZPZoFlcc1ysXwhmJJ7Q3fN/cP4c6lkW3nrJTDWYS9zirNjvX0yitnYOIJeqzCWcvtf5a9Q/q6L39gN5nc35LOdeV3FLyl7x/yX4V9Uc2ymC85hGnn2ln5wzA84vWMcOCQJdtmz6ybAdfp7KsIFOtw5Lp82m3wDPOZdU1NhxNhs2RZCm+ERKGWtlX42cBqsfQZURRLyh7aQgLrxGR3lHS4zlfGJSlbcRW2KTAaGI1+XYF4cjHXjFdQSiMim+KnXuXwsLrMkt6kwPWpN+qKVU5oKOAq6pIZ7tG8zkciyEf6hhqmAV8xawEAPep12z3JTNETbKyZjWdVEdqgrmi2y/9FJsif3poaqI1UNS1+LhIJDymadzjTJLxeRyu8T6kbi80ipPZygzdqqmrDU1sWFgv9SvjcDK0SElKRtcOmqKC03ZCQvZMQz1EHDhnAanEl0wOAe50xpJjUDzjTDJSBRizyQsw7NYrwxqKM3D0aKQZHEr+jIsNsiEm9uIZXI0I/BNrAWeKfUOSYedu20mnLc9QyPG/SbKORasjsZ0SPXTFWlBL6m2W4ZTot8GslTY8XMzNWUq+nM2bGzuX0pIXWcihFKTtZj61XvWyzVCo1i9nu27P3EBZNOto0KXMq0hvWm3VM0USRKcrUyB/vr6nRTKve7hZvQ5veuL8tdm8cL4D4I4qcTDJ31ytTIUa5ayZpTUfvkd6UBZt4oU4NF6P3KABkNKEXdYen5+ivRVaoVGj208nUgRSZtt7qcj3O0istyckSvAZtjibtGOzQtFgUidzNBnQ1HaDGZeyHZloC37ncT9r+qlV3tA1FTkZ/rmD7C5FNYt3AbwGvW2CMsN3a3lDj34G89/yK/HGNhMiS+K2NbEvPmzmZr7qF7/GlrHxNvOH6uMpjjq6hYjTwnsOPKNiuhsMMTDdApKZJCS4gFc9LGPJRXrUFLwQg+19SvysqXXqF7DG1SyOLwDdGOFoJkeRnjZ7h+6mDNUAPQh4QR8QtbZ55yCJ7hK0NmirfGOHNbycbXAuCBAWaERTMWGpv/GuA9cOCP98jq8k1RuQGTg6Z4WZxkJ2DLCAPwuIN8h1oIjHC1gZpA9cYERpp3hA3mB+8J6+gKbomJb8hkrBvB/IhLWSMkHvHNUaEQtpN0oLZvAdDDxdSiaJDvih+C2oiF9eza+h9cnwz8jK9QPLKkztkiuA+gSybJNT7aiDvhPJPTShlHKEg8iaOA4IvntwVoSnKAW8DTerEFDVg4EDFIMhkcISC2IE8w9EghIC3CfbBnoUS+4iiEysalfFAP+PZsvN6zn4QX2yIfZIXyUJThEhAOQDztOYau/pp5FM1oEKwA0UynebLGWng2OkBlIBDF+FknrT48rXAmoRjc0Qhc7ZkOs23VqTPwzYkWcA8Vu8GckSldYKvRQVVFHHoCxcTS7Lc5RVK2ZDbFTutBnMIVLSLc176SZs0UIxBUYR2Z6YxIla0+Z34B2oDCOAADije+yiFya7TfheQlNCm4xVoGssYFYgwZbNaUntzjLQaNDZOHv9exNmn1POhnQ1HQFFGEdLEHD0EaXo2KkEOykqrQdGldZFOHJjp0zlHUorQ9sIwRkTmZ1siIDcsVloNRvJpmkRGMTDZjlCzPyqkFCHPieHHEWXb8FciWcdqZoD2DzsaHm6pBgFvIL19mqSInCLoFtCxO6kVYe6QlIIcxQCM/JgOOJXeD65Mp2on6KyTU4SCymvqd8IXDnMapLGh02qwFM70nK7oIpEPJ6+3ul/A0lWzV+uvP16f2x/r/qoLe0HlFF1IjBFhz3c7PGnAaNVcA0vDriTVeE0hTkZPrY5plkq115xu2ZmUGSCVymestK7bd6vs5mUoUASNK7ViQif2ppkYlVZNYGioIvAWgt4EJ59M90vs2yKi9JZLctorzLyVvH5eZe9RLZ5FEWSRWhKhh/sNnqQV+wm3QHN50cW9LmxOSKXrN8zaYxRkY7qkj8bJW7pChwyqFaFogLS9ezeRNDdJZDygp0V1W4QoMwu8JEtW7i77ByxlTeuQFhFmYA67XJAxItNp+2IOSRyWEzAcO0AJ0JR38ZlWbq3cvgdx36ZKrX9AEdyBkDEi02mEm0xsczjfUxeMBlC2FNrJzLTD64sWIasf2IfFpgjWipAvSCZCCNeOdGxgBgUmzIQ9o4VXZqsAgmNH7Sj2AmVObfRQilByApRYyViDNCsVbloNVFUcnOZE6NaV+hJtM5q6fUTrM1WgCNZJQPmd2BFBEpZ0OGHpCbSZwm4HBgo31yokOXqU7O1HtKZrFYrKQCxBYEqk00DbMZk5BKE8jOL5Fe0drm7qzI4xhHxMOV+y5jDkeF5jgLx/HCcaRReghwQYIyLIhZEEsW+BtgVYMJA01W5Q6KaSVBcLBVPaCr9Fl9kjaOtW625V61YqlW5tddNuZfS0nWEwxaEIpgEJY0Sm0/gmh4wxgNLK+t13KK9MXSZLDpUyZYKVRcjr7R4+3dYolLO1j5SOt1UORbBJgTBG5A+wKYKUFjKtBgIL2akJsLRuKyc+2WLGVHb/FjWGqa/45N4XUZqYQxGsSeT3xohIp6FqdoOdVoOmKGLe/r7SzokOXuUVbHaP8iPsD7H0iStaO9yRTBLGiMhs48w/IS5Eeh7II69HQIBCdk2JPjF9uVTaWF11WXPblRpFMNu8e/mkdOEsCWl09tYLJOgOq9Y3mm9Wms2S48huzmKPKC1t/1OkCArbzhgB7wcpDSkv+70ddCyxqiNqKL3VKXEIJiEjnWpLF7QBb6FIEbSyO9tC+NBUWqjASquBshwrra2MRi+WpkmStUVSp+ZsuTVUpQiEDTvbckdn9vcgXtiOP5B74jRRKKPo0D6gLvZFUclL6XwWzG/xKYIp+TBlTzwwTaUBSbNjM/5NdtJIASsqGhW1el/QZQNBS+8OqFGFP2vgZ279GZI3+mGkxISeLzh+wU8VKaOJOZIMii5XOhKhkLveALz/rWdEJJIYZfd7Oq0G0iqSF66GIuaIrklxpkRMS4yePHe9AYittm35RDqNtV5C8LbFMpApV42pxMCFW5wGBkA6w7AODKh51z7AC9ic1CViWFYoQcx+myghn0Z3OxyEAtqjhDEN7qdQsobokLDgnjUVXJFqw6qGkW7aZmCyaSYlSxUpAlblxO4odhyFp8FCoKqnIH8D2myCVFiRmdnfg3QogpkDU6Qk5ApApkK4jeM9X4UifHhD8A5ArSighLDg7OwhoflBWg28RF0+OyWodaxucAhFNexKCcQUNGP5xogIJtgnWW6ItJq/GZMFyKMdW0CenXCTqkQ7WB8AnwASvQPwCjxOQDqNmU8gdcCPx2w4wHGAdinhuNgWWXJlx99OEfoqIL7xNIufTgtBupaegQfBzvWxWjzRLiXMhlPnNKXxBz49KMmUks1YnjEi02mc2whSPfJJoeKfMYqKmqTnlwRSSoVZvFIZPNFRTTgZvUEk8Hkm7A6k1Ui34Xi91Oj8gXAXoGRCFqO9MYoljK66HcD2Z2elPfrQfOWA86n6lRgpSlAwRMfAL3ALoTTSf2NVg4WqDB5ARqS8IwgkqZkuEeUdr5Ma9SFJpJP6Po4wX7RmFm2F5VHeV234r4608GonQj2U79YVVSFboVVci2+k8rKC9PlVi1OS5J5DvGC0jIf3cF8d/ghSCJFD0silzEz9Tsn5rkW0vwWqh5L+KtEW3Ryv1iLK/nLPmnOja8qr2ECY1dm4CmYyJhWlxhoXVnUZsfQ7s1gq0OiZ/M4IoZX4YBPL30XwF9m2EKaKQgPmZHLtnmALb1RsrPhyE9ekj8vnU0gq/BILWTygzIso+0t/MC2YGF+6G4zqcIxzICkEYeP97570i8yvvZZXNj2ZujwFxfhEjmNltg9pFG6LtdckLNRZ2N5xW1h9sL51Jba9zMZXcaoIhtbBB0Cf+91i6apQaHgoXPm1divJ+EpJRiG/QqUpA6QsPWlZfjOxhT+mmqzBQqsPkRgxv7ElkgkcJ28mJP72E60LTsr/Lq6uJz3oeppaxgam0oczeDsIB+kVo1NCVN5iml9RZZ751R7GwRgxRWrIKVVU6KhLhGQgmNR5C4FvccsYX6SZVN40gMiFP5yiumKOrsi2j0xsv5RLVSj/E2y2jC+x5YWVDIZqSoIEJqtyXCtnV7qqcuTkwr2uDy2fLUp24TOZMVmTEOM7dLJuB45rIVlNhFalmhpHmdhug2yADoK00EHFH2KJybKbDI9clg69it4TnXEiVXa77INKAE6O3FSae9E2c5IsE30mU9y8gD/wo5KkuW+p9FuTq7mJmKBrSg9/WDG4T6/CKVmvsn5Bahe3JJkfyjNKKhiNXjLC+YyoXdc+GmtuCBYQRIedH4E5Mq/ljRKNOhzaFH4R00MJHXfJq5Xyey1p/+fm+Vb6sAaT8itHkvxzgSxr2U6mUslnlZbTq1YumQ6RzMnv6V37jusW6VxbVSduazFd8mVz/8ODhx+9Lr+l08gJDf4iwYoTxmTv1qq75n25FKKsktdplJvFEE2lxt8QV721F36wP/nqr6bV/cP+m1LtNaP7fzIg439hVtd/1t+1CHHb67csv008lTLN8A9ceOFI7CYbiW4u7svNbKXS6xV/5F9HCdG4KvW6/XX79bn1/Ny+63ezSuJ7xhlnnHHGGWecccYZZ5xxxhlnnHHGGWecERnuy+fj8GG2HPtYzh4W1YF76jn9Peg8PkzjmqYlEvEdEomE9w/z2aN76tmdHJ3JKK751Fyy4FFlPC3cU0/yhOgMn4wEmxyCpoQxPPVET4XHqZyfDf5NjtxFXFPjxxeky+CeYUIbv5x43t+HRUJRgLZi1PHuGRgeWcbSPfXcvwXVy0QEfjxoA/8uLZCoxOLU0/96uGMjigQFFFX9+7aambh8PPUSvhgvkVRsg0RASnVLbVx7+jzxIr4Wl4Ch0E8MwfaQEtXg1kFo4ePG9Bfb7U9jS4zvPmuJy3kQbUweA0yGs+VTQqPkTPvc3NzZERg3xp2TruML4cYNn5ilH4R1XOYlnckcOQSBuQ7uftr94G1uv5akFw4zJAZPgCNtT8Z4vxn+ZpJUAEyWQfwwMwhLpv3LJE0I12nrXYe/kD5D3Bj9YsMtRkcjeJiCnwbAnHu724Azxm8HSdEM/uQ+Ae/c85Oqp5njiUFQlJjgH0faJSTp8h8ISygQJGi0uVmgIMZzsx7c75/kSeGSUsT4fUC54Qlj/KuN0uCx6oJ/IMw1stZbuFMNceQbpYnLuvbnw11cagkN5hYHewISnKTjkM4YePq2/IVOwGC5DcoAR4RfpPH0h1a2QJTmlHX/0XAnT/t4jLQ5y/3q4/zbx5SyBaKkLX+NVfocgajecPc/ve/j1ZFghAk7A+55AcNfEJp0hjjDT0gRsaFpwiSjO2cJUlBbmv9s2+1O5lSJKEE40Z8ERa54KIbV3rE0/rHV3OqYUUJLzIkrHvZ6NpaN1plzqwWeWRr9QJaqI41hQOLGkrxony/SFOIvriD5A2s/iyW3OkowDWw8AZggHEeWa02hw7FIO1maTn6E9XYnY5b8BKIydcGle68IR/k8cLY2gqWnh7/cE3hZzOm0/U4XsLM33l1pqL59aXnOYym+/FtVzq3OLrn8eCI0xzTst3x2fMbGp7zI6zfjPHwec23HwGA4NzRO/xBbhC4uHndrDctDahgqtFJ4wmRMh3+Nzr341kdYfY1rY5e+b6dn8adoD3RHSsXwDU2fjCd/K14WQf+ZeK6JS9aWvtczlR0fYoBrcCKanmaPJ8oLuJ/DKaOmSs9Se2Dev9Oz+Jz5uxiP6n0nfqNgfDqsfqtD4A4WyyeJcoXzM0Yue5BpeLfxedAkFokozTm+OMWnD48vnNkcEe7nYlOQVxL0uDbnmUw3LCZG2c7gCA/qLXAhT97Mn5aeQLkHPlMyo8GmLViRnYAgQZPQIpQBZZ+IMaVZ5CamQO80TbsczyafR2PKfakuZvMNOVFmlKDLPgTC+CzBtlSqc1seQNKGKJ8pIz5fPkyqB2ufR83kYTnXjCiSs5tCQtyL97LVM1imPmSWMy1iwyCiyu/vMYz403j5sJhUB7J+DbfzMqhOFg/L8TxuGJtW+4MenIhLqoKz7bjGn7t37kO0tlMeV9tuKI8vz8a9z6fT8Xg8Gi19jLz/nc6f3i8Thk+Lxm0jU36aQtl06xRxHIKoJEVpXlZbAgdHGl17khcnHjcUHbybUZi8H5mkr0PcmKr4yhunKB53j0WRF99G79E9AfzCjZKv39kYa0YZ/0/QmR3DKH0lfBPkqi3mIdiEDnSrRXic/72i5Bci1Fcc2D3jS5rPX2bspPCpEUGAfASnGIwv66iqjpXCx29EXEvMonk3np7Fo6XRIsIVJIi/HR4/o8jiUDUMKk17bCidFPwefg5KpXe+JcfVGdLF4G+lx+Pnry017NBZTI3TWG9v/7qcfZ56/Wpwq0t57vjI9MQ1Y7r4WV1iL74wfQ9NPj3vDycvKhyEwXB+SFYnEj0JTXufoX7OH4bBYhz/Gpr8DF3iLyhJHQWdasT8spwcz5+fzx5/RMuFOjrV4ehJi5xrZpCjvY+Hp6rTfT38pPxyfrnNrqp/UGCX9x4NH/+Nz8K4L5+T4XL6ntikosnvvgAEH4HRDO1yOvp3P5nTefl8nCyGs+UoyFS/b6Tm/Wk+HY+Ws2GQ/XdPPckzZPgfxDqmtdvUKoEAAAAASUVORK5CYII=;" vertex="1" parent="1">
          <mxGeometry x="624.42" y="170" width="100" height="60" as="geometry" />
        </mxCell>
        <mxCell id="MMp3bKSsHC83LUOIyMqO-27" value="" style="shape=image;verticalLabelPosition=bottom;labelBackgroundColor=#ffffff;verticalAlign=top;aspect=fixed;imageAspect=0;image=data:image/png,iVBORw0KGgoAAAANSUhEUgAAAMgAAADICAMAAACahl6sAAAAh1BMVEX///8AAADX19fm5uZjY2P5+fksLCy7u7swMDD8/PwGBgYVFRX09PQPDw8KCgri4uIYGBiIiIg5OTlISEgeHh4/Pz8nJydubm7Q0NC1tbXt7e10dHRbW1ufn5+srKxWVlaAgICjo6Ovr6+VlZVQUFAiIiLFxcWFhYWYmJi6uro8PDxxcXFoaGgSOXSLAAAJcklEQVR4nO2d6bqqOgyGGUSZZxEBFVSclvd/fQfUtY5CUwbL0P3w/RbIW9NSkrZhmEmTJk2aNGnSpEnvEgLDPy2u6+vJ56WhjWkiSVAD3vAX28s5nB1vnqlousxmknUtjZKRw0h5s+83Vnw/Lm3P1VhQyowb2tgPCVmrc/41OcSryLHTvNVl2PoP6St+aOvVh8dYmccsxazZ61pekrvt2fCs2Tn/tM49ZueIrt7W8LJ2Hf8pkiQIebNnHvOTecw8Nds3O17egrzxebP/eQzJZsdKDgNSBIKRhJnHpK7SVbPjJfpkMJLlIOa/SbOE7zm4ZT/G6prieraziyJHNEst53z9TvHdDo2Xzdz0e3xI1iff4NXfhwYnyy781Ey+e9HzHlHD81YXl7t7aG322YxKVQUJsE84HQujSfTVQLwiYL05vx1n4fmyXficEdT2dmlRaMT02p7DaDHGypqZirYT/ZwPmemGWv0USGr42VfkVeuB2Kpluaxn01XRiVYPZ+cMvn6z4yVtzc9H2S0HYsmBm92d25mzxw9n/6bZ8TIKFuhWq0cFacF+bTnL+un20eoqoWbHS7UK3t1qIDYKnwvHIb4QToU+r7QYiLnCH2J0YGe1glmhzzefERdB+v46eEnaKJ92eOuGdyiCaJuBvqONwjyp6Yy4CJLdoLPxCS81Lky/ms2ISyAsuxymnzBM8T2vN5kRI0BY79SdsVjxUcGSBgMxCoTVLwN1FOlS6PNm7S6LBGHl+0AdheEKk3u57owYDcKyt6FCZ+qxYElabyCGQFi36UBOSiWL9J867gGCZGNGfx1F5bnTdXux4tXsKJZNsWu4BwzCsjtiQZp3SWrAc3nQaXOIf2Y7x/bK3+9F1Zh84UBqtUSV2ZIgPJIJ6+RwDu+Z3XPPNbWmX3NyXEWCBWGVbWP3yhrcyGOrD0eJjksxVYiEmsKvQLJxGDv65VHV3FNOi5eDZ3a7ZjdBvv1XINmfEn/6l8Abmd375BCHmYPfxNTsKbC6xM9XKkGy4UuMwrN1DnNHmbuK9ko69S0F/2asATIW4UeeCaR/TSDDSc4DgnpxNKQB5BmDXR5nq9i6bPO4faAy6v5z2jU6EFnXNOWRbZj9xNZmu3gEA1HRQP6DZHiQrL09cZnZHZ4PyX7xkSfBaz0giKxpppuKNye653Y/3CTAZEmwEt6/fDsH0TM3WR6j3L1zuzM/UYl9ybwHuImC5AmpdP7XLa8njlezeXqr5q6jGWkQN4oPebfME1L9xOifIgzS4rOEkMiC6EPFIUiD7IZbH0YWJOnJaoTIgpBZJ9JKZEEGXOQ2gUwgHWkCmUC+lxAYXOkzZewgz6Xmhr9YJwcrvD8jf4qml5abjhpESKKb6LkKItRamkMMCiIEPC6xckJkcsYDov6u648cW0zdG0zim/CD5FJevBcQ7rp5pEBsr5wBAbMZEm5FqzhEZ+eOmP0UrA6tOTAwF6Xli7oHWeMwMomAc+0BcO8YrxExos5B+Mq1wjH6eWtUbsVdQysNOweJKy8CnEs9rQ9htJx/LNWYg+GMrkGkefVVNiaaKKnBdhQgvFJ9FWthH7wYBYhRB0TDrpYaB4gaHm+It0dBN1wkbxwgTwk8d8BeeKYEpGBOWRom/kIVCC7JTxcIe/hXQBTw6ZSBsA5kI20g7OVfAYGcizoQ1kEnJegDAZyLQhAFudaeQhB0xotGEBmV8qIRhDURdxgziAeG3nZlS8cMIi6gBacI5xo1iBRCtyg717hBAnAn9qw4co0bBB22yiUXF1KPHESaQTdJefjKEYJgQpB3CbxyjCDMBnSuNXjlKEGE4h6pP3k8dOUoQRgODN6tJODKcYLAZxbIC+DKkYJIN+hG70kTCkCYE5gECtFXjhUEzp68ZTupAFHB9Mn/zkUFCHMF912FqCvHCyKBx9/8ZeToAMHMVH4zcpSAMHswCxTTBSLtoLu9kia0gDAGuObk6VzUgDAX8H5nukAEcPnMI91LDwjjg9PgPN1LEQhzBu9o0QUiFI/L+5PiUwXCnMCZiiNRBcKAATv2QBeICgbslPc1E+MHgQN27PuQRgEIHLB7FwUgDI9ZHUsVCJPUOCCCChA4YEcZCCZgRxkIg1+cRhEIHLCjDAQTsKMMpHK5MzUg8EyFMhAGzFsTBKnxvvoepOK8ahIgxWNyOwIJsLsbSIDAmXGiIJiAHSEQBjxKmiwIHLAjBVLjcG8SIJiAHSGQGr2dCAgmYEcGhKkurEAGRICdmAwIsH2LOAjDgQMkGRAVjD4RBoEDdmRAmGtfIGDAjhAIdmRsAqIfrRP2vCkoYEcIhDEqNhU2WZwp2z/b8rb0XwEBO1IgTNIWRFqjfq97O6D8BtAfiYFI9zYg6slyoFkttAHGKJZyIAvCBNiRCwWiJpELv0o18KHIr0WRGAjD4eJoqL26+DF7BY9f+xKJvIM3LDYGYbaYmQoCBB8JdXBj1/4zPGTefcyo3RwEkwFAgAS4P1CrqITi/x+y050N/viCFiAqPBUqP8svdXJdM10vryAToralf0rirJlzc6J4HVSd3NUCBLPqogySTZtk7XWGoXV4nQUYkDsM8E9tQJgFNKlDdfZODjAvqxUIGNuk4sidd0nFYhO0gjABegPIgCDHdiDAYoUBQeYtQdD5peFAeL0tCHIN33AgH8NPs/oIqPfiYCCfnt6w0AMi/jQQiLD+nPM3rVhRXurabxWlZwHfRRIWh9CmIFIp9tjdyZlSXmMi+K2i8jM7Orbn/lXa/hKEkYoJ5Q1B0/OT5l4ntuW1Gux57WrPenPH4AsrwoGN3NVG5yU9crv3m2dtDPtVY6JVkQnU9tIq+Z/TR7l2JTs1eNRQ2TxrkdhfVdcuqnyKWA0VNkppW8RHtfBs7tP+UbMmcpaiq+lZa3dV0yNqwVEKq8jLQ15Z9lH65bdGUH6wX5/1ndv1VLWn4sf1pbSsdYYNqwwh/CFXGK37qmleT7vWxeek6tPZ+pP8TW0wuOJu7/I2X525X3wvDiM9jbbf1jSE1x93LFlJxeUxyossX+EcRQNd+nhNvOpO5GVVHuVJfCMgXnZCIFDyHGl63uC/9TJ6qTshVGXlalitK6n3HpM0KuOkXUhdNfOuR/1zM7Wd4+wnPmz2C7+/Ytx4SUnFqpusweevgjCbvN4RR6pyO3EFm+VfgT1Z1xTT9ey3AjyPekfDlcNopsC/JptNsn0WPKLF6kmTJk2aNGnSpP71Hzo6xn4CHbcgAAAAAElFTkSuQmCC;" vertex="1" parent="1">
          <mxGeometry x="680" y="564" width="55" height="55" as="geometry" />
        </mxCell>
        <mxCell id="MMp3bKSsHC83LUOIyMqO-28" value="" style="shape=image;verticalLabelPosition=bottom;labelBackgroundColor=#ffffff;verticalAlign=top;aspect=fixed;imageAspect=0;image=data:image/png,iVBORw0KGgoAAAANSUhEUgAAAWoAAACLCAMAAAB/aSNCAAAAz1BMVEX///8AAADwTpgAv7M0N0EAuq3y8vPvN48hJTLvQZPv7+9SUlLp6eleXl6VlZWBgYH/9fozMzNXV1ceHh4KCgra2trg4ODBwcFwcHCsrKyMjIzHx8fQ0NDs+vk/Pz9nZ2e3t7eioqIlJSVQzcQqLTkcMzgXFxcqNT2o5eB72NHK7+yJ29VGRkZl0snyaqf2osbVYJY7Q0zkVZb1lb786PH4vdb71eV5VmydU3hPUVr0hLT6zN/HUYm7W4kWGyruIodfUGCJU3BySGEAIilhQ1hSTZjDAAAKGUlEQVR4nO2aaYPaOBJAYUl7wGe4z+FqmmSSTia9V9K7k7l2//9vGowtWaWjLGwRSFPvExghWw8hlUpqNAiCIAiCIAiCIAiCIAiC+N55/dsPZ+C3ny/drivkdedv7un849LNukbOobrzn0u36io5h+qPl27UdXIO1a8v3ajr5Ayq/3npNl0pzlV3/n3pJl0rrlV3/nXpFl0tjlV3KKA24lY1BdQITlV3KMxDcKqaTGM4VU0BNYZD1R0KqFHcqe7899JtuXKcqaaAugxXqimgLsWRasqbluNGNQXUFrhR/ZHCvHLcqKYwzwIXqilvaoUD1T9QQG1FfdUUUFtSW3WtvGnSOzI5+YuPh29FvWBT497fnLqq6wXUQfNIt6RYOAuCyVy8kn2vmdS5+bempuqaAbWd6lFWaiZcaqqXrp66vbpeQG2nupeLDYtLt6e6bt7UTnXutblRLt2O6toBtZVqj1Q7CPNO69VT5dKtqHaQN7VTvcrF+sWl21Lt4iCCnWpveSw1Fi7dlGonGWrLuLoxn6ymvnjhplQ7yVDbqla4KdVO8qak+luZJtXluMpQk+pS067ypgbVYY6XvfXyt0IJoNpbzJJeb5XEQ/Od/OF0lkTHUuNQ87F4v0Y4nU0OZZN47qtFc7xRVmGUzKaaCjVUUe3uIIJeNYujWdIjyd8KRfIr8eGlF/dZ+eZSn1UdzoKmSDD1pBLR8Xr27XFPKLpa6Cocxb29WOEyNv8mnAqqHZ7s1apmZpsj6YJQplA97jdBo5We7W2WTYX+GBbKVEeHVyO5tJqoXQdqhc3y1PnrXz59+vjxJNMODyLoVM9k04jqaSNW2ryGt/A1WvJfSSBizzFXSwbSQ3f1Fa7KGuv97+HI0++f//jy9dPfy1W7PIigUc3dFd3TrHo91bRZ22FVNppC4VhXUtokUn9dbTEFr/0q582bNwflz39++QX37fIggqqat0PYdEEGEG2bRw2RhfDJ3lQsVz0DBThwvA4NquXfWKZQzY0/PP3frNvtyV5F9VT32GbVGUESz5KV8F53kyhehKEfDuMBKyb2Qtj1o3gTxxNjhdknj7NxGrWMNltWbIk3VlGd6371+avOtuODCLLqNXvqqVgKV93Le6dXdHHYvQ6VdjdFhODzSU0IQ0TVLJrw+Pws/U+GaSHhEv9RkGCzYVB91P3w8Lti2/VBBEk1Nw2nc1S1ML0NTb0Q7AAXWw3CL1KoHgi+NpqbHB9oDd8v9cUkjKpTHh7+/ApMuz7ZC1XPTS1DVINQjE9qePeK1dsUqkEHZn+AkhlvblUMVZ327ecvvGu7P9kLVPP5S15uY6phyZ6hBgiL/4SfKdLfmzksGYUbVsVKVKe2X/3xKTPt/mRvIDziSNtRUxDVUtmFnZp8ZoyKK1y1tIzMr/bl1aVET+wyJspVp13781E2frsq5Kp7h5chiwzUfyGiWo6vDMYkukbVkVSyZ1Uf/zpayEZ1LvsMJ3sDbtfrGhrbQFXLClhRbeaCY1YtT2xs6VqS4nCoOpU9QuupRsCHARYwyavgFLPqgVyUzXhT+YMcz/c9PzSrnkvlWX1Ihs/3/bCnPqGmpKXqdslSqBq56hlvknaQNat+lIuyGERO/njDdTKJHpfLfb/P1zAa1XI61KjaG45nqyhYLvtChU5Ut89z5jNXHfPgQxulmVUrow0LrUEg4a0DmP4zq5aVGlSPV1tdhS5Ut8+03cEGEN4vtrpSZtXKFBqqH3g8VWihWh77taqnA1ONaGOtVO9OPwBth5r41d3JrFrpAarqhdGLRvXAQnWoSX87U72LwBP8iFZ4Epocu2ZCq6Ma5p/33eVyGWkiO3vVIUj+7beHCnsRG07Qxlqo3j2Bv8+71lu0xlPQbWeow/UJY7WsWkh4LuNF6Hue/tv2qouNge5sfqzQcxfs7UCY92OrdfcBrfIEBNUb9rhqEHKCarbkZPExXwVGQ/Tb1qr5wL8U40JHqttgOXAwfXDdcjSIFKrHRcJNGa7NqpWVMMsN5gETz/XBpUl11d5e/W7Dler2GpS/b2W8Q2u1hanep38cPqzKwzWyWpQrZJ1uDd9KC6PqqlncvocFnSxhpID6Q4vhZMDOVW+zB1c3cDMQ1fIS9hFeZ71NWn9VV80eRVrAu5gWpYD6pzuu+u49Wq8dQrophYmSxgVEtbSy4oNQ/pbNYXAFwhZMFVSz/IFhswFtLK56B3fc3xam3UyOkmoeL8DhGlEtzaHMTC7R0/e2BJZKOVU1TGfxHVG0sajq3TMo+040fXB9j9Zsg6S6wt4ibLPU2blqkNrgJ0Oc9Wq+7Ecbi/dqcGfJtAvXsmr9jiimeik+Ih/smVo27a41N62lGozVxXYv2lhMtRJQy9R2rajmE4yYDEG3cYNiHN6wa3z8YWaEccYrDh1UUM3eD3y1TA3VbfAv0Ziu71pVzbe9hFkCP5wwyEeLRbEVy/8SfBBdMYdr4RhYBdU8UF+ybrgQV7xoY82qDQG15Lre3KiqLuwUw3XZkZtmd7USG1xsOPpFwiJZz8fTBCQwqqwWi1zTajofr2OYTEUba1TdhqHjB3mgZq5/KvWJoFFdHPnlfdOsutfUoD0BCAoMq6vWHuprDrc1VLfhXvR7g+ma8bVONQ8buqzdRtVBQ5OL3gJdugO/YR7AV0o3rdQKD2HQpLrqHVzjvzWaPriusW7UqS7Og7DZzah6I0yFjADaUs8ydn0WqlTLVys/3mDBOzvaWL3q3RMe5kHX1fMhWtXFvz4fro2q06lpCJuubMz5UqI2SVs2NKi22oWZwAp76WdhZdVPIOZ/h4lOqZzni/b9A3s5FxocL/f7eSojaQ5SgOr0a/kvNOehx1a7Azp/5FoGk6xGL93O3QtBziq741ZRPcgeBKzsh8JhymghtGSPNlaregfS89owD1B/2Yg/Y465wGK6iTdz4/GJ0XiWJMlmjB/lO4FwHk+SJF7jx00kdKphQN0oNV0zDLkVNKp/hfni+3LVtabGm0FVbc6bYjjc232pKKqlgwjmgBpy5uH6JSCrPiGgpiHkNGTVz9JBBHtoCClBUt0GAXV5mCfg7MTCSwWq/vXEgBoMIW420V8uQLV0svf+JNWt1oWa8L0gqpYPIthOiaxbu9hDf8EIqqsF1CI0M2IUqqWA2jrME6D1OQZXjR9EsOOOujUCVy2f7K0EdWsErrrsIIId1K3N5Ko1J3upWzsmU211EIG6dT2OqqWDCPdVpsQMiq3NpKqtDyLYcKF2fAccVDsIqIVuTclUE1579wwPItQR3aI9AjOHXu0ioBa6NU2MBrw6eVMtFO8Z8GHetL5pmhjtuHdgmrYIbKiQN9VAI0g59QLqgku34/qpF1AL0AhSQqUMtQ5anJfgIMxj0CoGxaFpSu/h3Ds0TeEexqkHEXBosDbjJqDm0GBt5P2dY2iwJgiCIAiCIAiCIAiCIAjiu+UvV0nXO48gE7MAAAAASUVORK5CYII=;" vertex="1" parent="1">
          <mxGeometry x="581.35" y="310" width="153.65" height="59" as="geometry" />
        </mxCell>
        <mxCell id="MMp3bKSsHC83LUOIyMqO-29" value="" style="shape=image;verticalLabelPosition=bottom;labelBackgroundColor=#ffffff;verticalAlign=top;aspect=fixed;imageAspect=0;image=data:image/png,iVBORw0KGgoAAAANSUhEUgAAAO4AAADUCAMAAACs0e/bAAAA/FBMVEX///8Dm8Y5TVQAi7gkuOsAqtq/2+AivvM2U10An8spQUkxX28vRU07R0s1SlEdOUKOl5q2u71uen/29/fi5OUAs9w6SU46Q0YArdQjPUUujakczf04T1cfxPIhveiHkJRSYmgopco3WmY0a3wslLM8P0AwW2zU7fF9iIvEyMokgJkqeI8WNT4WmrwAr9YtjqszcIPQ1NVLXGKjqqzs7e5hb3TZ3N2ts7abo6YXlbwNhq8fiat2gYZca3ApaYEkcI2FnKGbuL4AhLUALTg9OjgcjbI8MiwYfKCEyN6c0uRuvNdUsdGuwsXT6Oqu2ue/09ZEnsFqr8lXdH1rjJbqzWtAAAAQhUlEQVR4nO2deUPbOBrGgyBNUGw5joMdpQ65OHI4kPsogbbbMkxnOzu70+//XVaH7ciOA6HEJmX08EdLLcv6Sa+kV2dTKSkpKSkpKSkpKSkpKSkpKSkpKSkpKSkpKSkpKSkpqUjla2ENjddOU4xqKSgk523j2v1+k/4w9RtAe9u42feVld5fq28e92vl/NQ6sa9y9Vy9/PZx1Yp5ap80Tpr1psR9U5K4EvfNSOJK3DejfyAu9arUk+yb8KqKj2q8RNn3p5XVz6/uM3/BjwoBu9tfqZt7xoioNY4z4T8nCExVFABq6HdLlLk9bhXjQaxJ/xlBs3kmqqFe1wX1VDvwuG9uizvTAHBG8Sb++YJmt3RdKpfKV52rzknnJGedlE5KRFf1k/pp/dTKnpSvyGMS6Kx+Vu9sizvWQBYALR9z8p8rgtvL1lHpvPS19PXk6xXB7Zx1yuXOWbfXrzcprnVl1c16tpfr5c62xi0gK50GAFdjTv8zRXDrjbpdUkvnV+cn5ycMt3xNcDu9br1Pcc0rs2TXGwS3uTVuUTO7maMj28TzuAmepZhwq4qVPiKygdaOG+E5igmXtIAZiptWgbZP/VE8uFOsLhhu5thCw9ghtlc8uDPIbZnwdlS4R91RPLgtxc4cubwNtEd+Zzy4NdT0cI+OLWV/et94cAHrhtzizZk4doxt5eFaHJe7GeUyw+1zXJXggue5GdDs+LhHBxbUY+fYUhS3Wc+VcqVGqUHG8AT3ukec4+teud4pdShu7oo8JoH6vW6P4G4TKzYfVrgZgApxY2ySXs0HhMzuFXOR+Q8p3dJqSei0cmJl2QNXVx1TCUUwi/oKFks30309a65iJSCwPgAUB3zhAaEJQPB9GFlwKIC7UKmrUWzPRqPRrD1NEjevhNNvBga0T453Q7kTbadD826FS9pm1LrVMOTCWm1eTA7XPBF1bXXei2paPfFxycoGHpPggdez0bgFpSHgpi2AEMkmbi+qiRStlpAnTXEbpC1u9vpn/evudZmkP3faqNgVs2K+NysEt1PuEJW7Z/1en+LalewpacNO+qV+nQTvNWkbXc+W7BLahDtXrCMR17Qa3ZvFcZro4L7bsEyEa4kYNcW169k67USb5f41La7GqV2xKl8rX9+fU9xuudvpdDvd6/5Zk+JaFfUUnDSuaOtMcXO9BhkiA9pVb8JtY+tAwDUfGKmv464J0JfIRi5W3G4A99zDJYVLmK/7PYYbmGd2cRuP4xqO4GcQ3nWBZHY9JINLKq/5KO29ChMZ9yeE28bqTWYzbdoEMAnapHBTNjIfKdycqSXjVyaF29bMfmYTbdOEy0RoE8NNtZDFPKuoslWVWjK0ieGOlwh8XUTRLmxTSWw+JxncacshbtQis0573LQATm6ARHFB3SYpzlE3o0xxyQi+cl75rfLb+98Yboe5Gf3rJnczzivWqckWPEU3w6Qz8ZG449lQU0yrf7ROe5OzTEVLwr8QcM9KZ6VeqVenPwS3Umc/vUrvfY/6zOwBf9qjuPwxXUGpnxJc+mqJRnF2dU1wg21OsZ0fahCpVj+dcS35gHpUx8eLG+I8qkhx4l4YbFUF1ZBZLhOvuOyqr4aWxMxuWVDHDC+JNdk/uz9lGw3zXtTLyZAMexTCmr058lupg3NrNTTAMB/3rLPxRRyforUBrPno708EBwAJcZumaqm5m3Qms+qBPprIHffh23kCK6BjDIBNlY1ZjVy/s0gfZTIB70JFt2RYr7cHCS0m0Bl99m2SkPgVdpRvVJzsItGA4LIvHyUpry3OIpAobaoN1YPEcT1aMvJJsNuh0qF1nDSu39E2kpmENFZj55/AzTwdZDvahaWEhrUxNVg1ETdozE/DdB8JklksnopAGAyE5yxG8Yz7xs7Qm9z0627ahe0/ntxMumE1N+ZJ5saynuBNP9xvKtxWTBNULQVpeZ6xfsucZrA3qnqR3pjeTCbdtQAwwSITFSaTzpGnVu448qlL+9GymjyDswCLhasjBaA4aKvEtQCK1qJeTBGrbm5njhZ9ui5gWt10Zi3BtNdkPjygsrL3R8Eg5PFBkz81LbtzcLQeBc2tG5JXJEDj5pj0ucJKdnGOIHHp0HDntVe3IUsyUDCezEeK2Tk+WNx37oiLzllIcrLd+2PB7zhKH993mibNDE+qlbs5SPsBju/vTDcreAx06vggHYhj0fFyC5gkSwCA7WmxOB20R0uEqf9KhPB8h8BGu4o14SSbAjFLG3XRA1It69yyGzmiRtY8J458KAALc24R3zB3QQJYVsRjEoe6isPys9MVQlhzHE3DdOTgCzuT2U5WTcZ663ZSCIu4zBdMuZh1EVCDGO5aWlxNbgujuFYRlkr2kOs4Vh0cBnQBtMRWvkSNoOqm4CBOBWEPP6rwdbZkDLD5ED9uiPaDiuxXoU0ZmnkXd/EehpUFTqLr1oJqKBsz7hrtnZnMGlCUSOX9ECfvGuzhg4pqr0VLd9t+jBF3nfaDCfArbvwc+tb8OO/x79/+eDksq7iveQyBWPPDFrj/vvw+//Py5bQXr7xp29BAbovivSxow8vL/7wQ9jCX2PreJrUUv7HazPvHXxpQvn/avngjYQ/vklvf26Sx43e9j+B+JwMpqF0ebwe72ET7Wv6FoOUWxVu/JMMWuNyydKNhie+I0OtvXy5q4OLwKd5vf07s6uW/XwBLy1bZh7MH+VXjHMFLhjM35I/fSUO1De0m2L2hTaUQMg8jeNnI7b6TU62PtM5u4YdsZKVtMgKvb8lMA8dcmfMhxzxY3D907xqqqiqqerONET8Ge9gwlf257ygPTVWla4HZBhX5C1+7NBWIh5+uXwz7AZhw8tqQgmootBmZLrpmJz8+f7+8vPz2MlbaJANtrw78GRCBz58/f3L1+fP3d39e+qq/hJVUWxUluediG00dVHsX0Ir28j+PtFJPsR4+AFNBrzWc36i2g4bv3m0g3tADPYl6SPufJDcPbS/dQeB7GNgz6Z9DZUWLEtri+FwRXvh5jZdDf/PNeYM7HKkPF6RoJ/vhW6yL2DP+FM377n//egbmyo4VuFdHdIOaKkj5ewPvf58PayrO/pzwi5JRg0jZYNDPseLDDwQWaYV9tWNfeVKB//7rhbwPOQo72bveJ0JTABH+EW3P29Xfj1lSZ53CrwBLNdeIExnZZG3RXj1ckIKFuPoqK14/p/FSowf41jvhd98eRf3w8cKkx7yGs70Z+2yn4tJREBx+WifeaNAPd1m2b1XJ/ypWLGqch5AU8fBHuJ3+tlgDfvhIUYkNayC/fzf3bCt9okE6FBwWPn0WivnP3/0m+gMBvbBVhorxZPQLVdgoGfqSbp1gw99s7e8fP37w8eHdHd1wAdiWDrrDQ4OF0a9brAFNZ0tAz9eKY38CiRCfAsC11qi9997E82RM26NqoQaoyRIpCAxvC9X5rD19Y6BSUlJSUq+iQc1u7SimZWGPLqCKluEghHfCOyYDC23fedtsP/cuYtIhAK+4aWo7temG7p1sjP91cP9hpStxny+Ju3+SuFvKMIJTjlvgGsVpMdl5SkNvDRUIFbswY6PzCNziqABIEFSr6hvSZuhLG2uahkFrtegVxC0WJiGXY1AFGsZYE98JaaznC5PJ7paWxksN8lNKCEGHLmys4bZrGkQ8iAK1ZcSEm5HH0DvqpGD/vFcAd6ARF0vckdEeYuGdfFQ+ticOO1W0swXwvKMEDi85rTDueKIhMUjEMp6OA5EA6O79E3EHDo1+dfx6fIuD0a5v1yjW/CDOTmDHQwhCUuyRIuK2g6liNKEdUUu8FmIUxmW0AN36OeSsRYtDW490IZt3cpC5CD1jgliwRiDgzhy32CEL4v4S2O9Wg24IOk3Hg7g3ta5w2xovJG9FYa6B1UtetMHrbfJeEEWBOznbOuYFh7Cd1weD9nwoFKSLqzuupU1G7cFAr0IXTUjYROGRDEeDYnHabtF67rSDuG0ejeO1SCPNjXapT8fFdh7xL4ubm/PYDVKr5ndzDHCIuGn6M+CDGgziFnkytaU/oTrjBqH4e8zz7BUF+G2rMarV3M0mHq5H6+1BmXLL1lbNkw5Ypq0Oi+k8Q7TdXQMzZwkN3lfvGZmLyzMkcOW5MYHiv/GUK7epKLm4YdqUTaNFwc1VLRat45bjWON2vLu1CB5j+PDdTBNwdWZQWuibSzZAdNvYW5byWvQnGO7tIEw7g2v1P0VvlKefdacVCgoLssNZ+jyLcW0j5givcFkp4LVmYsL+maW+yHIHb/A9KC5wz0OvaFPMbsO3xg94peAdLK9EOz1fhKI+mnLLi+FOteiSM2iO8D5lTpO+8XYPfdXNCb0qmy0JX6I+CzRmrCh2eiNMkU3RRHhnU+zhjmhqo/5vFQbJcopWbrRx5mOF6wg5smQswZBVt2Vy0wNQsPV/uVhScFQLz9onilvY9FFW7dmGMPqX8O0eoW+ELDmVwoGWnWkCA5nC49/pplhaQtFX6uQ9r4pyR1/tTnOfmiOrunjjbgQPN+AfrrMYQ951Qy+iAc2R3Z7XplAo8oSW7vnMrF5G7tcsuBnBDH/zBawubtAbZixiFSlyd05ZtcPMa9/tBTgUV4ncMu4PEaBnsmtquS9z3I3f4Lghq+S4K4sYaK5HZYTeexbOU2K4kZPn+tO4SyTiPlG6IRsKla7bJAeGeKy/3u35MWbMkccfRl6tZjU0ssFgRxXmbvMe2d4xucYcvFO9qIm5GGqSV+/tGJe5NpFX41IvgmUE7YGjDcBrbQxnowFQeU1VkFdszQvBJll4b8e4ay2GJ0PzOmTWREfliO53yKzf3TjV4HdEAV6WnQzGa5LDbmoMuIwqKqUckpYYd38irJn1zKzK5n2HI0orN0PkZXZFXaaiN2kUrg0x4LLOZM3997xg3vww/2rdIWbeFq/33M/cdALKbapCvDyjkd8kr58WiwN3wEdE4ZJhwwK3xvJRRC0UYsqHBbzGsoLedKcJwx26w+pV++xGy8ciUafF4sDlA5uwJdVYbXJ4Jhg43COm3NbYdy75rMyG/+SNDwANJcRrrAo9+s1YcMfunIJQOac2n1TwvOAZR0OCyeuhWSc+gII1Idd0bzLaHd6PQYhX9+fyvNGl0RY3i8aC6w3l4dBN3mDpOTh+EHciSpsM3FS5Jri6DoHPEgDkLAcslmkeQ+yOVL3JG8Pl9Tu1gjcZx8rWmLY0qHxZuavx4LoTJnQ60C4UhtidLVZswXht714wPKRB3KlLcS+DOzUDFKwp9hCySFzz8KfmDB7NynKHHi+GAPIPC2OvmHBXM8T05i+vzwhUVcNW1oMEj2e6s5U8jEsRnnj1eL1BvbE+wS0Mm+PCTc3Ds9vICbcdk/CkuRI+1dYOLSL4kxLCtDrnFRiq4S8L/2dpbLipaU0T0orwcN3P0hUopExxlmv9pLEUl16Q4qWc+ilep8w8KLFTm94KX0ZQEfKQvRfTFfIDuiUb8t3IhWj3V7/V3CCaEn1mpJhXNLbHmUQCVrdm2xh+8fOvhpUvgfinVcg2g5Noa0GDAVBx4jsYOdVH8/lIf+SMhDGgQWbtR2YYiu3RPD/Sg1dJt3Wxg1q/UXuqz/P59f3exiyJy7elpKSkpKSkpKSkpKSkpKSkpKSkpKSkpKSkpKSkpKTi1f8BbMmr+qJK0uoAAAAASUVORK5CYII=;" vertex="1" parent="1">
          <mxGeometry x="356" y="158" width="114.51" height="102" as="geometry" />
        </mxCell>
        <mxCell id="MMp3bKSsHC83LUOIyMqO-30" value="" style="shape=image;verticalLabelPosition=bottom;labelBackgroundColor=#ffffff;verticalAlign=top;aspect=fixed;imageAspect=0;image=data:image/png,iVBORw0KGgoAAAANSUhEUgAAAWAAAACPCAMAAADz2vGdAAABCFBMVEX///8AAADssi4utn02xfDgHlr5+fl3d3d7e3tDQ0O3t7fb29t+fn6srKzrsCPh9v1cXFwfwe+N2vXz0I3rrRPj9OwyuoPfD1X74OjlUnn78NgQsnT39/fMzMyJiYnfAFFRUVHq6ursh6Hs+f2K0bD++vH88+Pd3d2dnZ2VlZVlZWU0NDTxrb4+Pj4pKSns7OwaGhqn3cSv5fhOv45RzPKxsbEfHx9sbGzwwmL44rnCwsIQEBBUVFR61/We3/ea17tpyZ/H7frJ6tvU7+Njx5vt+PPS8Pu248/50d31v87umKzysMH98PT12abkQnLeAEfvvE755sTnZIbuj6niMmbyzIHwxGfvnrKcWcFLAAAJ6ElEQVR4nO2cbUPayhKA4xuKCEqLRSUI+FICFFCr1SJa21NbPW3Vq73t//8nN+/Z2Z3ZBE1ue07n+eaSZMnDsNmdHTQMhmEYhmEYhmEYhmEYhmEYhmEYhmEYhmEYhmEYhmEYhmEYhmEYHdsHZ4dn58ti0+q7i48X+5e/6h39uzgvl8uzs7Pls+2g5fKiVpuZmanV3qXclTVeCRhbKV9bITcfdrbSrGfdG82ZY9ehPOsbvnzh6HWoXaTb1/xUxHy6l1bJ9YXeFrPujeQ88Gtz6DW9nglJOYZFwQupXhkhl/8dBC/PCpQPnKb92oxgONVx+A8UfC4K9kJYCOC0Q/gPFHwGBDuj8KUYwDMzH9Ps7Q8UfAgF23O1VSj4RZq9sWAWnDZnZRacKe9ZcMYclllwpixzBGfMshjDLDgLDg7LASw4I7Z9DBacOSw4Y1jwk1lGCJPtGsGrq0l7MNuFQstU2+MF22e2kRN1fbXsvnLIC79I8PvoiQYJNjQIwR8+1mxef4jtYHHpNLytrgV3EvSCC1aQIm9aLbelXozA9iQKViixaRWkF2nBwyIgTfnb0tJYTAZ72WBC8IXfGrPH0VqYkpkXzOgEj3rgtBXHl3g1ZQfEtE7BGVODInidFAxesGknlJeEQ0qvq9g1jAq+CBtruvzlpqLXoTcKXqcFF/LKaUumsST+KfVlYV2JiknB8/CcNLfrzsn49QxT0zRxk4NOwbcGqF+bZlu9NSAYtdXPiR8YFFwg+upH4UgJ7tCfyVPZ1uq1BT8zcMEvQBP2RHHumdLrMHQPoQSrA4tLU2wHgtEPRFJJCF6Eh3fSkuvwXh/ANgYq+C/QVPuMXnyo85v3jiEEz1OniYOsKHiJOsEhqAfABdfhwenubZ/H+XW2jBDB+1DwPnrxpu6mj3SC8ZFbRhCs9RsGJSq4tQcObabq13gWG8F4LiKJYOmbJ2FqBB8l8isI1owPHkekYBM+SwfEaPdYDpJE8CXw6256JhEMJlnNbrfbfKPKwQS3kvmNBNfjjy1QgrvwuGG6fo1PcRHsbtt/VGxKgrEFnXjXx94qYdguBvcTrAEwwccTCjbJuUpEnxAsDUby0uTpaKfBwUT4s1J4AgWjE+Gi4FdoHlpOZPeCPxHB6tzjTT7/RmmMBCsjtn38ntxWRwUX4UEjI3U+6f36pVNCCHvDAaz1+Qu78jG8uYjcYi+aaiKCpQAeWG0zlzNbReWZ6Qtuwdae1bKPH7Y7Ylx38SFCGlvSnACHHOgGicOg+O91WPy34zaAdQY+SWvCewF0wuyNKljyZUVPnTpcOgeCYQBHJZpmuH7I+5+wLFjqavMJGjV8Oiyjjstld5Xhcbnjla/O+DIjwbXXaPwahnAzA3ptrwqGMwIQ/CZ8InmCh2AEBoOoF6B71ELDhONOdxJrE/H+/BnGwbZ40Or+zs7O5yCcPuz4vCOTaSvABaVYFQwkylkBMHx4gsHXXHpIjabEkJYFwzEnH+vpN0Na4A86aApFEWyKJymrVlMcJZaUKygl3JtLYioZCB7B1eJgspzzb8BoSmFcVAJZEdwWGk7Vq6rJHjEOY94SECw9M9PMUP5/yEm5Wd9ZB96JIlicOCFpFyVd2RK6iZsFyGlfgUx/UHD1c8vnKmi6/nvr4ctX8aDdt88xvm2Ql6XWr31xtqkIFkcWJKoUwWLEt2JulBac5f7R2s1to+rReOU1fak6LY3breio55VKCaVyRyruUbfTi55FimBxDECGRUWwuCyJu1VScJY/v7luVOcCfMFbt8HfN/6sYfeuNE1RqvyHuPQQHSRcwinnkwULkwhkyIaQgjMcIK4ac3OS4J9RU3XdO+qE9mtTeUlcfNgnbiiadKYp+PERfJrdI269KgtemxNbrp2D3lZ0fqdLJ+Tl5V1Iyc7vMkRMDdLOogWAAPYE/y02VW+co/QBrAnhILeD4X0tFcGWcghA+5CL+6YDwTAdlM9oGvxKFXwvxvRc1Z5K7Mb4na580/VR6DSV3NZUsHWgCBanz8jujSJYXCnHJROA4COY5DyOOfeRbFVlwbl1KHjNMF7qRwh7jNAKtmnVrRUlkt1xTxEMNvLUL666bS8uyZUwNEELXCq34NvJJtXzAAV/QQXvPlmwe6/tIkhPeHNPdakMsozyRUAdgCdYHLSVMByDSbeUi5DWmpnM1a7hEHGFC47xO115m7C7tqjYXaepyZ55zU2bYH3rCQb5eWkt56xaxtGkW05XSkuhLFYbYMow9z2HCjb+GzMIl3bRi2NPZmGgcP2ogmFcgdWyVOzjCYZTA/CJ+MF9HKzwlIS7lNtPf8PIHoSFEG78NHDBG/oxovIcv/ZKXp1eCkIJwVKWthne9VDKzwUzPbjtEwVsPQr3Te+zVgSb0kQ9bq39CL7ehD4b9+6bQAQb33SGS3f4pZ0J1IKsWLgjN9iQLSPZY75YLxTqiyvKlNoXLO95Nt3jiyCwTy3naafuybXgRfcymKx9XfdiuNq4d9fFqGDbMDlKVE7wAcL/gjYXh0qbx4gQrC0IQgQnK6PANz3lXblMsu6vvt82Grc3195fuGBj40cF5456wJlhcPQ7i/X20BjWi2CqNiQEx5eRSILh5gmOO7/A6iKkfeVs9o2+Xl2FqUlCsM3LDQQietV3ruDdClrZQ6dtccGt2EO97z5aOiVVXck1salDC54QMlnp4z2MUMFt8iTCRWxpj/cowIv/pK2NrP9zUFqC4+7Zt4kX/+nL2lTBcSf4MwtcsDRtyaL6RAQTvOszyXXG+lsOSnuI8lXyuaWu5DyQHUDFL1UfLJcSZTEdjkBzEQEnSZds9lxAqqqTPAXzIaoAmwjJTbLCvY0llLy+wmkMVeEud5bBdDhCm+wpVe6Sh3GdflZ1w3Id8icEBWwMX0J2lcM3ThRtC0kc8jcacolBVtlh903os2ml6QkGinoXzbfvHUWHaH5lJC84pgYjLJsWUUAqvrviSof+GZf0dRsnv8eJiUtXarYvEIaLXbm2NF8Ua5x1P+Nqgfq9ftEZVnSCbcULoLfBJhxO6X9MJ6+ZM8oOu28iLh9coTfq8QsW6p3jcT7f6/Xz44WRtHZuFSKQoa9ureT79ond4EeFMccbubrVbdp95ZvHxYJSrd4Wzoar4mEBkl2dT6zgEpHaib3wo9/z5CfmUv4hQJrE72gQuR0mGQm2jH71W/yHE7fpOdlTjlF4ULftQV1Pog04hmYN1Po4mxww364pgmASIewiVb+7LWJpGrU/xCQmdx8Yrs75ubSX04Hhyo9f++b+HTw03ILW2/UwDb97UimVpksljt90WPt5/3394Ups2nh+cvfjG4+/DMMwDMMwDMMwDMMwDMMwDMMwDMMwDMMwDMMwDMMwDMMwDMMwDPNP4n8YMv3QsVI/SAAAAABJRU5ErkJggg==;" vertex="1" parent="1">
          <mxGeometry x="530" y="576" width="120.62" height="49" as="geometry" />
        </mxCell>
      </root>
    </mxGraphModel>
  </diagram>
</mxfile>
